%TF.GenerationSoftware,KiCad,Pcbnew,(6.0.1-0)*%
%TF.CreationDate,2022-05-13T10:35:13-07:00*%
%TF.ProjectId,badge_eda,62616467-655f-4656-9461-2e6b69636164,rev?*%
%TF.SameCoordinates,Original*%
%TF.FileFunction,Soldermask,Top*%
%TF.FilePolarity,Negative*%
%FSLAX46Y46*%
G04 Gerber Fmt 4.6, Leading zero omitted, Abs format (unit mm)*
G04 Created by KiCad (PCBNEW (6.0.1-0)) date 2022-05-13 10:35:13*
%MOMM*%
%LPD*%
G01*
G04 APERTURE LIST*
G04 Aperture macros list*
%AMRoundRect*
0 Rectangle with rounded corners*
0 $1 Rounding radius*
0 $2 $3 $4 $5 $6 $7 $8 $9 X,Y pos of 4 corners*
0 Add a 4 corners polygon primitive as box body*
4,1,4,$2,$3,$4,$5,$6,$7,$8,$9,$2,$3,0*
0 Add four circle primitives for the rounded corners*
1,1,$1+$1,$2,$3*
1,1,$1+$1,$4,$5*
1,1,$1+$1,$6,$7*
1,1,$1+$1,$8,$9*
0 Add four rect primitives between the rounded corners*
20,1,$1+$1,$2,$3,$4,$5,0*
20,1,$1+$1,$4,$5,$6,$7,0*
20,1,$1+$1,$6,$7,$8,$9,0*
20,1,$1+$1,$8,$9,$2,$3,0*%
G04 Aperture macros list end*
%ADD10C,0.010000*%
%ADD11RoundRect,0.050000X-0.500000X-0.500000X0.500000X-0.500000X0.500000X0.500000X-0.500000X0.500000X0*%
%ADD12RoundRect,0.050000X0.304164X0.264545X-0.382338X0.127742X-0.304164X-0.264545X0.382338X-0.127742X0*%
%ADD13RoundRect,0.050000X0.403106X-0.002358X-0.202623X0.348488X-0.403106X0.002358X0.202623X-0.348488X0*%
%ADD14RoundRect,0.050000X-0.382338X-0.127742X0.304164X-0.264545X0.382338X0.127742X-0.304164X0.264545X0*%
%ADD15RoundRect,0.050000X-0.143708X-0.376627X0.397438X0.067401X0.143708X0.376627X-0.397438X-0.067401X0*%
%ADD16RoundRect,0.050000X-0.403106X0.002358X0.202623X-0.348488X0.403106X-0.002358X-0.202623X0.348488X0*%
%ADD17RoundRect,0.050000X-0.347601X0.204141X0.000599X-0.403112X0.347601X-0.204141X-0.000599X0.403112X0*%
%ADD18RoundRect,0.050000X-0.202623X-0.348488X0.403106X0.002358X0.202623X0.348488X-0.403106X-0.002358X0*%
%ADD19RoundRect,0.050000X0.397438X-0.067401X-0.143708X0.376627X-0.397438X0.067401X0.143708X-0.376627X0*%
%ADD20O,15.000000X3.500000*%
%ADD21RoundRect,0.050000X0.200000X-0.350000X0.200000X0.350000X-0.200000X0.350000X-0.200000X-0.350000X0*%
%ADD22RoundRect,0.050000X-0.350000X-0.200000X0.350000X-0.200000X0.350000X0.200000X-0.350000X0.200000X0*%
%ADD23RoundRect,0.050000X0.000599X0.403112X-0.347601X-0.204141X-0.000599X-0.403112X0.347601X0.204141X0*%
%ADD24C,0.600000*%
G04 APERTURE END LIST*
D10*
%TO.C,Ref\u002A\u002A*%
X127916212Y-44504393D02*
X127970594Y-44526435D01*
X127970594Y-44526435D02*
X128052012Y-44562978D01*
X128052012Y-44562978D02*
X128155162Y-44611591D01*
X128155162Y-44611591D02*
X128274739Y-44669843D01*
X128274739Y-44669843D02*
X128369314Y-44717035D01*
X128369314Y-44717035D02*
X129317639Y-45172095D01*
X129317639Y-45172095D02*
X130273769Y-45585605D01*
X130273769Y-45585605D02*
X131237640Y-45957546D01*
X131237640Y-45957546D02*
X132209189Y-46287899D01*
X132209189Y-46287899D02*
X133188352Y-46576647D01*
X133188352Y-46576647D02*
X134175064Y-46823770D01*
X134175064Y-46823770D02*
X135169262Y-47029250D01*
X135169262Y-47029250D02*
X136170883Y-47193068D01*
X136170883Y-47193068D02*
X137179861Y-47315207D01*
X137179861Y-47315207D02*
X137422833Y-47338292D01*
X137422833Y-47338292D02*
X137701736Y-47362320D01*
X137701736Y-47362320D02*
X137961103Y-47382186D01*
X137961103Y-47382186D02*
X138211606Y-47398464D01*
X138211606Y-47398464D02*
X138463917Y-47411729D01*
X138463917Y-47411729D02*
X138728709Y-47422555D01*
X138728709Y-47422555D02*
X139016655Y-47431517D01*
X139016655Y-47431517D02*
X139269625Y-47437703D01*
X139269625Y-47437703D02*
X139477121Y-47442930D01*
X139477121Y-47442930D02*
X139643443Y-47448548D01*
X139643443Y-47448548D02*
X139769747Y-47454621D01*
X139769747Y-47454621D02*
X139857193Y-47461218D01*
X139857193Y-47461218D02*
X139906936Y-47468405D01*
X139906936Y-47468405D02*
X139920445Y-47475176D01*
X139920445Y-47475176D02*
X139916666Y-47516636D01*
X139916666Y-47516636D02*
X139906346Y-47591665D01*
X139906346Y-47591665D02*
X139890854Y-47692246D01*
X139890854Y-47692246D02*
X139871559Y-47810361D01*
X139871559Y-47810361D02*
X139849829Y-47937991D01*
X139849829Y-47937991D02*
X139827033Y-48067117D01*
X139827033Y-48067117D02*
X139804539Y-48189723D01*
X139804539Y-48189723D02*
X139783716Y-48297790D01*
X139783716Y-48297790D02*
X139765933Y-48383300D01*
X139765933Y-48383300D02*
X139763805Y-48392831D01*
X139763805Y-48392831D02*
X139619490Y-48943088D01*
X139619490Y-48943088D02*
X139438831Y-49478460D01*
X139438831Y-49478460D02*
X139223272Y-49995896D01*
X139223272Y-49995896D02*
X138974255Y-50492342D01*
X138974255Y-50492342D02*
X138693221Y-50964746D01*
X138693221Y-50964746D02*
X138381615Y-51410054D01*
X138381615Y-51410054D02*
X138271420Y-51551667D01*
X138271420Y-51551667D02*
X138153529Y-51692079D01*
X138153529Y-51692079D02*
X138011978Y-51849262D01*
X138011978Y-51849262D02*
X137856181Y-52013559D01*
X137856181Y-52013559D02*
X137695553Y-52175319D01*
X137695553Y-52175319D02*
X137539508Y-52324888D01*
X137539508Y-52324888D02*
X137397461Y-52452611D01*
X137397461Y-52452611D02*
X137369916Y-52476069D01*
X137369916Y-52476069D02*
X137124038Y-52669326D01*
X137124038Y-52669326D02*
X136852213Y-52858717D01*
X136852213Y-52858717D02*
X136564537Y-53038298D01*
X136564537Y-53038298D02*
X136271109Y-53202123D01*
X136271109Y-53202123D02*
X135982025Y-53344250D01*
X135982025Y-53344250D02*
X135707383Y-53458732D01*
X135707383Y-53458732D02*
X135689403Y-53465394D01*
X135689403Y-53465394D02*
X135261325Y-53604600D01*
X135261325Y-53604600D02*
X134833279Y-53706610D01*
X134833279Y-53706610D02*
X134406583Y-53772871D01*
X134406583Y-53772871D02*
X134288830Y-53782685D01*
X134288830Y-53782685D02*
X134139289Y-53789112D01*
X134139289Y-53789112D02*
X133968363Y-53792252D01*
X133968363Y-53792252D02*
X133786454Y-53792205D01*
X133786454Y-53792205D02*
X133603963Y-53789070D01*
X133603963Y-53789070D02*
X133431294Y-53782946D01*
X133431294Y-53782946D02*
X133278849Y-53773933D01*
X133278849Y-53773933D02*
X133157028Y-53762131D01*
X133157028Y-53762131D02*
X133147166Y-53760833D01*
X133147166Y-53760833D02*
X132680178Y-53676398D01*
X132680178Y-53676398D02*
X132224736Y-53551920D01*
X132224736Y-53551920D02*
X131782196Y-53388444D01*
X131782196Y-53388444D02*
X131353910Y-53187017D01*
X131353910Y-53187017D02*
X130941235Y-52948683D01*
X130941235Y-52948683D02*
X130545526Y-52674488D01*
X130545526Y-52674488D02*
X130168136Y-52365477D01*
X130168136Y-52365477D02*
X129810420Y-52022695D01*
X129810420Y-52022695D02*
X129473734Y-51647189D01*
X129473734Y-51647189D02*
X129159432Y-51240002D01*
X129159432Y-51240002D02*
X128868869Y-50802182D01*
X128868869Y-50802182D02*
X128603400Y-50334773D01*
X128603400Y-50334773D02*
X128535446Y-50202128D01*
X128535446Y-50202128D02*
X128321306Y-49736106D01*
X128321306Y-49736106D02*
X128138082Y-49253858D01*
X128138082Y-49253858D02*
X127984602Y-48751390D01*
X127984602Y-48751390D02*
X127859693Y-48224710D01*
X127859693Y-48224710D02*
X127762184Y-47669824D01*
X127762184Y-47669824D02*
X127735460Y-47477083D01*
X127735460Y-47477083D02*
X127721066Y-47334476D01*
X127721066Y-47334476D02*
X127709788Y-47157762D01*
X127709788Y-47157762D02*
X127701626Y-46955050D01*
X127701626Y-46955050D02*
X127696579Y-46734453D01*
X127696579Y-46734453D02*
X127694646Y-46504080D01*
X127694646Y-46504080D02*
X127695828Y-46272043D01*
X127695828Y-46272043D02*
X127700123Y-46046451D01*
X127700123Y-46046451D02*
X127707530Y-45835417D01*
X127707530Y-45835417D02*
X127718051Y-45647051D01*
X127718051Y-45647051D02*
X127731683Y-45489463D01*
X127731683Y-45489463D02*
X127735597Y-45455667D01*
X127735597Y-45455667D02*
X127753121Y-45320714D01*
X127753121Y-45320714D02*
X127773172Y-45178032D01*
X127773172Y-45178032D02*
X127794694Y-45034001D01*
X127794694Y-45034001D02*
X127816628Y-44895003D01*
X127816628Y-44895003D02*
X127837917Y-44767417D01*
X127837917Y-44767417D02*
X127857501Y-44657626D01*
X127857501Y-44657626D02*
X127874324Y-44572010D01*
X127874324Y-44572010D02*
X127887327Y-44516949D01*
X127887327Y-44516949D02*
X127894171Y-44499283D01*
X127894171Y-44499283D02*
X127916212Y-44504393D01*
X127916212Y-44504393D02*
X127916212Y-44504393D01*
G36*
X127916212Y-44504393D02*
G01*
X127970594Y-44526435D01*
X128052012Y-44562978D01*
X128155162Y-44611591D01*
X128274739Y-44669843D01*
X128369314Y-44717035D01*
X129317639Y-45172095D01*
X130273769Y-45585605D01*
X131237640Y-45957546D01*
X132209189Y-46287899D01*
X133188352Y-46576647D01*
X134175064Y-46823770D01*
X135169262Y-47029250D01*
X136170883Y-47193068D01*
X137179861Y-47315207D01*
X137422833Y-47338292D01*
X137701736Y-47362320D01*
X137961103Y-47382186D01*
X138211606Y-47398464D01*
X138463917Y-47411729D01*
X138728709Y-47422555D01*
X139016655Y-47431517D01*
X139269625Y-47437703D01*
X139477121Y-47442930D01*
X139643443Y-47448548D01*
X139769747Y-47454621D01*
X139857193Y-47461218D01*
X139906936Y-47468405D01*
X139920445Y-47475176D01*
X139916666Y-47516636D01*
X139906346Y-47591665D01*
X139890854Y-47692246D01*
X139871559Y-47810361D01*
X139849829Y-47937991D01*
X139827033Y-48067117D01*
X139804539Y-48189723D01*
X139783716Y-48297790D01*
X139765933Y-48383300D01*
X139763805Y-48392831D01*
X139619490Y-48943088D01*
X139438831Y-49478460D01*
X139223272Y-49995896D01*
X138974255Y-50492342D01*
X138693221Y-50964746D01*
X138381615Y-51410054D01*
X138271420Y-51551667D01*
X138153529Y-51692079D01*
X138011978Y-51849262D01*
X137856181Y-52013559D01*
X137695553Y-52175319D01*
X137539508Y-52324888D01*
X137397461Y-52452611D01*
X137369916Y-52476069D01*
X137124038Y-52669326D01*
X136852213Y-52858717D01*
X136564537Y-53038298D01*
X136271109Y-53202123D01*
X135982025Y-53344250D01*
X135707383Y-53458732D01*
X135689403Y-53465394D01*
X135261325Y-53604600D01*
X134833279Y-53706610D01*
X134406583Y-53772871D01*
X134288830Y-53782685D01*
X134139289Y-53789112D01*
X133968363Y-53792252D01*
X133786454Y-53792205D01*
X133603963Y-53789070D01*
X133431294Y-53782946D01*
X133278849Y-53773933D01*
X133157028Y-53762131D01*
X133147166Y-53760833D01*
X132680178Y-53676398D01*
X132224736Y-53551920D01*
X131782196Y-53388444D01*
X131353910Y-53187017D01*
X130941235Y-52948683D01*
X130545526Y-52674488D01*
X130168136Y-52365477D01*
X129810420Y-52022695D01*
X129473734Y-51647189D01*
X129159432Y-51240002D01*
X128868869Y-50802182D01*
X128603400Y-50334773D01*
X128535446Y-50202128D01*
X128321306Y-49736106D01*
X128138082Y-49253858D01*
X127984602Y-48751390D01*
X127859693Y-48224710D01*
X127762184Y-47669824D01*
X127735460Y-47477083D01*
X127721066Y-47334476D01*
X127709788Y-47157762D01*
X127701626Y-46955050D01*
X127696579Y-46734453D01*
X127694646Y-46504080D01*
X127695828Y-46272043D01*
X127700123Y-46046451D01*
X127707530Y-45835417D01*
X127718051Y-45647051D01*
X127731683Y-45489463D01*
X127735597Y-45455667D01*
X127753121Y-45320714D01*
X127773172Y-45178032D01*
X127794694Y-45034001D01*
X127816628Y-44895003D01*
X127837917Y-44767417D01*
X127857501Y-44657626D01*
X127874324Y-44572010D01*
X127887327Y-44516949D01*
X127894171Y-44499283D01*
X127916212Y-44504393D01*
G37*
X127916212Y-44504393D02*
X127970594Y-44526435D01*
X128052012Y-44562978D01*
X128155162Y-44611591D01*
X128274739Y-44669843D01*
X128369314Y-44717035D01*
X129317639Y-45172095D01*
X130273769Y-45585605D01*
X131237640Y-45957546D01*
X132209189Y-46287899D01*
X133188352Y-46576647D01*
X134175064Y-46823770D01*
X135169262Y-47029250D01*
X136170883Y-47193068D01*
X137179861Y-47315207D01*
X137422833Y-47338292D01*
X137701736Y-47362320D01*
X137961103Y-47382186D01*
X138211606Y-47398464D01*
X138463917Y-47411729D01*
X138728709Y-47422555D01*
X139016655Y-47431517D01*
X139269625Y-47437703D01*
X139477121Y-47442930D01*
X139643443Y-47448548D01*
X139769747Y-47454621D01*
X139857193Y-47461218D01*
X139906936Y-47468405D01*
X139920445Y-47475176D01*
X139916666Y-47516636D01*
X139906346Y-47591665D01*
X139890854Y-47692246D01*
X139871559Y-47810361D01*
X139849829Y-47937991D01*
X139827033Y-48067117D01*
X139804539Y-48189723D01*
X139783716Y-48297790D01*
X139765933Y-48383300D01*
X139763805Y-48392831D01*
X139619490Y-48943088D01*
X139438831Y-49478460D01*
X139223272Y-49995896D01*
X138974255Y-50492342D01*
X138693221Y-50964746D01*
X138381615Y-51410054D01*
X138271420Y-51551667D01*
X138153529Y-51692079D01*
X138011978Y-51849262D01*
X137856181Y-52013559D01*
X137695553Y-52175319D01*
X137539508Y-52324888D01*
X137397461Y-52452611D01*
X137369916Y-52476069D01*
X137124038Y-52669326D01*
X136852213Y-52858717D01*
X136564537Y-53038298D01*
X136271109Y-53202123D01*
X135982025Y-53344250D01*
X135707383Y-53458732D01*
X135689403Y-53465394D01*
X135261325Y-53604600D01*
X134833279Y-53706610D01*
X134406583Y-53772871D01*
X134288830Y-53782685D01*
X134139289Y-53789112D01*
X133968363Y-53792252D01*
X133786454Y-53792205D01*
X133603963Y-53789070D01*
X133431294Y-53782946D01*
X133278849Y-53773933D01*
X133157028Y-53762131D01*
X133147166Y-53760833D01*
X132680178Y-53676398D01*
X132224736Y-53551920D01*
X131782196Y-53388444D01*
X131353910Y-53187017D01*
X130941235Y-52948683D01*
X130545526Y-52674488D01*
X130168136Y-52365477D01*
X129810420Y-52022695D01*
X129473734Y-51647189D01*
X129159432Y-51240002D01*
X128868869Y-50802182D01*
X128603400Y-50334773D01*
X128535446Y-50202128D01*
X128321306Y-49736106D01*
X128138082Y-49253858D01*
X127984602Y-48751390D01*
X127859693Y-48224710D01*
X127762184Y-47669824D01*
X127735460Y-47477083D01*
X127721066Y-47334476D01*
X127709788Y-47157762D01*
X127701626Y-46955050D01*
X127696579Y-46734453D01*
X127694646Y-46504080D01*
X127695828Y-46272043D01*
X127700123Y-46046451D01*
X127707530Y-45835417D01*
X127718051Y-45647051D01*
X127731683Y-45489463D01*
X127735597Y-45455667D01*
X127753121Y-45320714D01*
X127773172Y-45178032D01*
X127794694Y-45034001D01*
X127816628Y-44895003D01*
X127837917Y-44767417D01*
X127857501Y-44657626D01*
X127874324Y-44572010D01*
X127887327Y-44516949D01*
X127894171Y-44499283D01*
X127916212Y-44504393D01*
X154841066Y-45164435D02*
X154858713Y-45223045D01*
X154858713Y-45223045D02*
X154886541Y-45316738D01*
X154886541Y-45316738D02*
X154923732Y-45442728D01*
X154923732Y-45442728D02*
X154969469Y-45598233D01*
X154969469Y-45598233D02*
X155022936Y-45780466D01*
X155022936Y-45780466D02*
X155083316Y-45986645D01*
X155083316Y-45986645D02*
X155149793Y-46213983D01*
X155149793Y-46213983D02*
X155221550Y-46459697D01*
X155221550Y-46459697D02*
X155297770Y-46721002D01*
X155297770Y-46721002D02*
X155377636Y-46995113D01*
X155377636Y-46995113D02*
X155410264Y-47107181D01*
X155410264Y-47107181D02*
X155980028Y-49064583D01*
X155980028Y-49064583D02*
X155907029Y-49276250D01*
X155907029Y-49276250D02*
X155711271Y-49787076D01*
X155711271Y-49787076D02*
X155484506Y-50275995D01*
X155484506Y-50275995D02*
X155228248Y-50741256D01*
X155228248Y-50741256D02*
X154944011Y-51181108D01*
X154944011Y-51181108D02*
X154633310Y-51593797D01*
X154633310Y-51593797D02*
X154297660Y-51977573D01*
X154297660Y-51977573D02*
X153938576Y-52330685D01*
X153938576Y-52330685D02*
X153557570Y-52651379D01*
X153557570Y-52651379D02*
X153156159Y-52937905D01*
X153156159Y-52937905D02*
X152735857Y-53188511D01*
X152735857Y-53188511D02*
X152366500Y-53371246D01*
X152366500Y-53371246D02*
X152193771Y-53443194D01*
X152193771Y-53443194D02*
X151993301Y-53517209D01*
X151993301Y-53517209D02*
X151779154Y-53588698D01*
X151779154Y-53588698D02*
X151565394Y-53653064D01*
X151565394Y-53653064D02*
X151366085Y-53705715D01*
X151366085Y-53705715D02*
X151287000Y-53723897D01*
X151287000Y-53723897D02*
X151214873Y-53739242D01*
X151214873Y-53739242D02*
X151150757Y-53751633D01*
X151150757Y-53751633D02*
X151088942Y-53761431D01*
X151088942Y-53761431D02*
X151023718Y-53768995D01*
X151023718Y-53768995D02*
X150949378Y-53774686D01*
X150949378Y-53774686D02*
X150860211Y-53778864D01*
X150860211Y-53778864D02*
X150750508Y-53781889D01*
X150750508Y-53781889D02*
X150614561Y-53784122D01*
X150614561Y-53784122D02*
X150446660Y-53785922D01*
X150446660Y-53785922D02*
X150281583Y-53787324D01*
X150281583Y-53787324D02*
X150076392Y-53788722D01*
X150076392Y-53788722D02*
X149908030Y-53789150D01*
X149908030Y-53789150D02*
X149771003Y-53788420D01*
X149771003Y-53788420D02*
X149659812Y-53786344D01*
X149659812Y-53786344D02*
X149568963Y-53782735D01*
X149568963Y-53782735D02*
X149492959Y-53777406D01*
X149492959Y-53777406D02*
X149426303Y-53770168D01*
X149426303Y-53770168D02*
X149363499Y-53760835D01*
X149363499Y-53760835D02*
X149329083Y-53754827D01*
X149329083Y-53754827D02*
X148992329Y-53683874D01*
X148992329Y-53683874D02*
X148674227Y-53595535D01*
X148674227Y-53595535D02*
X148361820Y-53485478D01*
X148361820Y-53485478D02*
X148042147Y-53349373D01*
X148042147Y-53349373D02*
X147868583Y-53266788D01*
X147868583Y-53266788D02*
X147434163Y-53029851D01*
X147434163Y-53029851D02*
X147018312Y-52755064D01*
X147018312Y-52755064D02*
X146799666Y-52589441D01*
X146799666Y-52589441D02*
X146669464Y-52480206D01*
X146669464Y-52480206D02*
X146521251Y-52345975D01*
X146521251Y-52345975D02*
X146363245Y-52194983D01*
X146363245Y-52194983D02*
X146203662Y-52035465D01*
X146203662Y-52035465D02*
X146050717Y-51875656D01*
X146050717Y-51875656D02*
X145912627Y-51723792D01*
X145912627Y-51723792D02*
X145797608Y-51588107D01*
X145797608Y-51588107D02*
X145785373Y-51572833D01*
X145785373Y-51572833D02*
X145454309Y-51122509D01*
X145454309Y-51122509D02*
X145157196Y-50647467D01*
X145157196Y-50647467D02*
X144894544Y-50148948D01*
X144894544Y-50148948D02*
X144666862Y-49628193D01*
X144666862Y-49628193D02*
X144474661Y-49086442D01*
X144474661Y-49086442D02*
X144318451Y-48524936D01*
X144318451Y-48524936D02*
X144198740Y-47944916D01*
X144198740Y-47944916D02*
X144143215Y-47577625D01*
X144143215Y-47577625D02*
X144128694Y-47466500D01*
X144128694Y-47466500D02*
X144559305Y-47466361D01*
X144559305Y-47466361D02*
X145079642Y-47458485D01*
X145079642Y-47458485D02*
X145628968Y-47435769D01*
X145628968Y-47435769D02*
X146196968Y-47399099D01*
X146196968Y-47399099D02*
X146773326Y-47349357D01*
X146773326Y-47349357D02*
X147347727Y-47287427D01*
X147347727Y-47287427D02*
X147909856Y-47214194D01*
X147909856Y-47214194D02*
X148418916Y-47135659D01*
X148418916Y-47135659D02*
X149288737Y-46973334D01*
X149288737Y-46973334D02*
X150161742Y-46777107D01*
X150161742Y-46777107D02*
X151031709Y-46548887D01*
X151031709Y-46548887D02*
X151892411Y-46290584D01*
X151892411Y-46290584D02*
X152737624Y-46004105D01*
X152737624Y-46004105D02*
X153561124Y-45691361D01*
X153561124Y-45691361D02*
X154356686Y-45354259D01*
X154356686Y-45354259D02*
X154621181Y-45233750D01*
X154621181Y-45233750D02*
X154705805Y-45195246D01*
X154705805Y-45195246D02*
X154774913Y-45165261D01*
X154774913Y-45165261D02*
X154820414Y-45147213D01*
X154820414Y-45147213D02*
X154834414Y-45143692D01*
X154834414Y-45143692D02*
X154841066Y-45164435D01*
X154841066Y-45164435D02*
X154841066Y-45164435D01*
G36*
X154841066Y-45164435D02*
G01*
X154858713Y-45223045D01*
X154886541Y-45316738D01*
X154923732Y-45442728D01*
X154969469Y-45598233D01*
X155022936Y-45780466D01*
X155083316Y-45986645D01*
X155149793Y-46213983D01*
X155221550Y-46459697D01*
X155297770Y-46721002D01*
X155377636Y-46995113D01*
X155410264Y-47107181D01*
X155980028Y-49064583D01*
X155907029Y-49276250D01*
X155711271Y-49787076D01*
X155484506Y-50275995D01*
X155228248Y-50741256D01*
X154944011Y-51181108D01*
X154633310Y-51593797D01*
X154297660Y-51977573D01*
X153938576Y-52330685D01*
X153557570Y-52651379D01*
X153156159Y-52937905D01*
X152735857Y-53188511D01*
X152366500Y-53371246D01*
X152193771Y-53443194D01*
X151993301Y-53517209D01*
X151779154Y-53588698D01*
X151565394Y-53653064D01*
X151366085Y-53705715D01*
X151287000Y-53723897D01*
X151214873Y-53739242D01*
X151150757Y-53751633D01*
X151088942Y-53761431D01*
X151023718Y-53768995D01*
X150949378Y-53774686D01*
X150860211Y-53778864D01*
X150750508Y-53781889D01*
X150614561Y-53784122D01*
X150446660Y-53785922D01*
X150281583Y-53787324D01*
X150076392Y-53788722D01*
X149908030Y-53789150D01*
X149771003Y-53788420D01*
X149659812Y-53786344D01*
X149568963Y-53782735D01*
X149492959Y-53777406D01*
X149426303Y-53770168D01*
X149363499Y-53760835D01*
X149329083Y-53754827D01*
X148992329Y-53683874D01*
X148674227Y-53595535D01*
X148361820Y-53485478D01*
X148042147Y-53349373D01*
X147868583Y-53266788D01*
X147434163Y-53029851D01*
X147018312Y-52755064D01*
X146799666Y-52589441D01*
X146669464Y-52480206D01*
X146521251Y-52345975D01*
X146363245Y-52194983D01*
X146203662Y-52035465D01*
X146050717Y-51875656D01*
X145912627Y-51723792D01*
X145797608Y-51588107D01*
X145785373Y-51572833D01*
X145454309Y-51122509D01*
X145157196Y-50647467D01*
X144894544Y-50148948D01*
X144666862Y-49628193D01*
X144474661Y-49086442D01*
X144318451Y-48524936D01*
X144198740Y-47944916D01*
X144143215Y-47577625D01*
X144128694Y-47466500D01*
X144559305Y-47466361D01*
X145079642Y-47458485D01*
X145628968Y-47435769D01*
X146196968Y-47399099D01*
X146773326Y-47349357D01*
X147347727Y-47287427D01*
X147909856Y-47214194D01*
X148418916Y-47135659D01*
X149288737Y-46973334D01*
X150161742Y-46777107D01*
X151031709Y-46548887D01*
X151892411Y-46290584D01*
X152737624Y-46004105D01*
X153561124Y-45691361D01*
X154356686Y-45354259D01*
X154621181Y-45233750D01*
X154705805Y-45195246D01*
X154774913Y-45165261D01*
X154820414Y-45147213D01*
X154834414Y-45143692D01*
X154841066Y-45164435D01*
G37*
X154841066Y-45164435D02*
X154858713Y-45223045D01*
X154886541Y-45316738D01*
X154923732Y-45442728D01*
X154969469Y-45598233D01*
X155022936Y-45780466D01*
X155083316Y-45986645D01*
X155149793Y-46213983D01*
X155221550Y-46459697D01*
X155297770Y-46721002D01*
X155377636Y-46995113D01*
X155410264Y-47107181D01*
X155980028Y-49064583D01*
X155907029Y-49276250D01*
X155711271Y-49787076D01*
X155484506Y-50275995D01*
X155228248Y-50741256D01*
X154944011Y-51181108D01*
X154633310Y-51593797D01*
X154297660Y-51977573D01*
X153938576Y-52330685D01*
X153557570Y-52651379D01*
X153156159Y-52937905D01*
X152735857Y-53188511D01*
X152366500Y-53371246D01*
X152193771Y-53443194D01*
X151993301Y-53517209D01*
X151779154Y-53588698D01*
X151565394Y-53653064D01*
X151366085Y-53705715D01*
X151287000Y-53723897D01*
X151214873Y-53739242D01*
X151150757Y-53751633D01*
X151088942Y-53761431D01*
X151023718Y-53768995D01*
X150949378Y-53774686D01*
X150860211Y-53778864D01*
X150750508Y-53781889D01*
X150614561Y-53784122D01*
X150446660Y-53785922D01*
X150281583Y-53787324D01*
X150076392Y-53788722D01*
X149908030Y-53789150D01*
X149771003Y-53788420D01*
X149659812Y-53786344D01*
X149568963Y-53782735D01*
X149492959Y-53777406D01*
X149426303Y-53770168D01*
X149363499Y-53760835D01*
X149329083Y-53754827D01*
X148992329Y-53683874D01*
X148674227Y-53595535D01*
X148361820Y-53485478D01*
X148042147Y-53349373D01*
X147868583Y-53266788D01*
X147434163Y-53029851D01*
X147018312Y-52755064D01*
X146799666Y-52589441D01*
X146669464Y-52480206D01*
X146521251Y-52345975D01*
X146363245Y-52194983D01*
X146203662Y-52035465D01*
X146050717Y-51875656D01*
X145912627Y-51723792D01*
X145797608Y-51588107D01*
X145785373Y-51572833D01*
X145454309Y-51122509D01*
X145157196Y-50647467D01*
X144894544Y-50148948D01*
X144666862Y-49628193D01*
X144474661Y-49086442D01*
X144318451Y-48524936D01*
X144198740Y-47944916D01*
X144143215Y-47577625D01*
X144128694Y-47466500D01*
X144559305Y-47466361D01*
X145079642Y-47458485D01*
X145628968Y-47435769D01*
X146196968Y-47399099D01*
X146773326Y-47349357D01*
X147347727Y-47287427D01*
X147909856Y-47214194D01*
X148418916Y-47135659D01*
X149288737Y-46973334D01*
X150161742Y-46777107D01*
X151031709Y-46548887D01*
X151892411Y-46290584D01*
X152737624Y-46004105D01*
X153561124Y-45691361D01*
X154356686Y-45354259D01*
X154621181Y-45233750D01*
X154705805Y-45195246D01*
X154774913Y-45165261D01*
X154820414Y-45147213D01*
X154834414Y-45143692D01*
X154841066Y-45164435D01*
%TD*%
D11*
%TO.C,TP1*%
X145000000Y-34200000D03*
%TD*%
D12*
%TO.C,D6*%
X152584212Y-136242742D03*
X152427866Y-135458169D03*
X152271520Y-134673595D03*
X150996588Y-134927658D03*
X151152934Y-135712231D03*
X151309280Y-136496805D03*
%TD*%
D13*
%TO.C,D1*%
X150504095Y-69648847D03*
X150905062Y-68956586D03*
X151306029Y-68264325D03*
X150181105Y-67612753D03*
X149780138Y-68305014D03*
X149379171Y-68997275D03*
%TD*%
D14*
%TO.C,D12*%
X101728480Y-134673595D03*
X101572134Y-135458169D03*
X101415788Y-136242742D03*
X102690720Y-136496805D03*
X102847066Y-135712231D03*
X103003412Y-134927658D03*
%TD*%
D15*
%TO.C,D11*%
X98354847Y-149653859D03*
X98862307Y-150272312D03*
X99369768Y-150890764D03*
X100374753Y-150066141D03*
X99867293Y-149447688D03*
X99359832Y-148829236D03*
%TD*%
D16*
%TO.C,D19*%
X103495905Y-40587153D03*
X103094938Y-41279414D03*
X102693971Y-41971675D03*
X103818895Y-42623247D03*
X104219862Y-41930986D03*
X104620829Y-41238725D03*
%TD*%
D17*
%TO.C,D20*%
X113959476Y-30762779D03*
X113265472Y-31160722D03*
X112571468Y-31558664D03*
X113218124Y-32686421D03*
X113912128Y-32288478D03*
X114606132Y-31890536D03*
%TD*%
D12*
%TO.C,D2*%
X141205012Y-79168942D03*
X141048666Y-78384369D03*
X140892320Y-77599795D03*
X139617388Y-77853858D03*
X139773734Y-78638431D03*
X139930080Y-79423005D03*
%TD*%
D18*
%TO.C,D17*%
X102693971Y-68264325D03*
X103094938Y-68956586D03*
X103495905Y-69648847D03*
X104620829Y-68997275D03*
X104219862Y-68305014D03*
X103818895Y-67612753D03*
%TD*%
D19*
%TO.C,D7*%
X154630232Y-150890764D03*
X155137693Y-150272312D03*
X155645153Y-149653859D03*
X154640168Y-148829236D03*
X154132707Y-149447688D03*
X153625247Y-150066141D03*
%TD*%
D12*
%TO.C,D3*%
X144049812Y-93443742D03*
X143893466Y-92659169D03*
X143737120Y-91874595D03*
X142462188Y-92128658D03*
X142618534Y-92913231D03*
X142774880Y-93697805D03*
%TD*%
D20*
%TO.C,REF\u002A\u002A*%
X127000000Y-32359600D03*
%TD*%
D21*
%TO.C,D9*%
X126200000Y-150510000D03*
X127000000Y-150510000D03*
X127800000Y-150510000D03*
X127800000Y-149210000D03*
X127000000Y-149210000D03*
X126200000Y-149210000D03*
%TD*%
D14*
%TO.C,D16*%
X113107680Y-77599795D03*
X112951334Y-78384369D03*
X112794988Y-79168942D03*
X114069920Y-79423005D03*
X114226266Y-78638431D03*
X114382612Y-77853858D03*
%TD*%
D22*
%TO.C,D18*%
X99375200Y-54318000D03*
X99375200Y-55118000D03*
X99375200Y-55918000D03*
X100675200Y-55918000D03*
X100675200Y-55118000D03*
X100675200Y-54318000D03*
%TD*%
D14*
%TO.C,D13*%
X104573280Y-120424195D03*
X104416934Y-121208769D03*
X104260588Y-121993342D03*
X105535520Y-122247405D03*
X105691866Y-121462831D03*
X105848212Y-120678258D03*
%TD*%
%TO.C,D15*%
X110262880Y-91874595D03*
X110106534Y-92659169D03*
X109950188Y-93443742D03*
X111225120Y-93697805D03*
X111381466Y-92913231D03*
X111537812Y-92128658D03*
%TD*%
D12*
%TO.C,D5*%
X149739412Y-121993342D03*
X149583066Y-121208769D03*
X149426720Y-120424195D03*
X148151788Y-120678258D03*
X148308134Y-121462831D03*
X148464480Y-122247405D03*
%TD*%
D23*
%TO.C,D21*%
X141428532Y-31558664D03*
X140734528Y-31160722D03*
X140040524Y-30762779D03*
X139393868Y-31890536D03*
X140087872Y-32288478D03*
X140781876Y-32686421D03*
%TD*%
D14*
%TO.C,D14*%
X107418080Y-106149395D03*
X107261734Y-106933969D03*
X107105388Y-107718542D03*
X108380320Y-107972605D03*
X108536666Y-107188031D03*
X108693012Y-106403458D03*
%TD*%
D11*
%TO.C,TP2*%
X145000000Y-36200000D03*
%TD*%
D21*
%TO.C,D8*%
X140017600Y-150510000D03*
X140817600Y-150510000D03*
X141617600Y-150510000D03*
X141617600Y-149210000D03*
X140817600Y-149210000D03*
X140017600Y-149210000D03*
%TD*%
%TO.C,D10*%
X112382400Y-150510000D03*
X113182400Y-150510000D03*
X113982400Y-150510000D03*
X113982400Y-149210000D03*
X113182400Y-149210000D03*
X112382400Y-149210000D03*
%TD*%
D12*
%TO.C,D4*%
X146894612Y-107718542D03*
X146738266Y-106933969D03*
X146581920Y-106149395D03*
X145306988Y-106403458D03*
X145463334Y-107188031D03*
X145619680Y-107972605D03*
%TD*%
D24*
%TO.C,MK1*%
X143000000Y-110230000D03*
%TD*%
M02*
