%TF.GenerationSoftware,KiCad,Pcbnew,(6.0.1-0)*%
%TF.CreationDate,2022-05-13T10:35:12-07:00*%
%TF.ProjectId,badge_eda,62616467-655f-4656-9461-2e6b69636164,rev?*%
%TF.SameCoordinates,Original*%
%TF.FileFunction,Copper,L1,Top*%
%TF.FilePolarity,Positive*%
%FSLAX46Y46*%
G04 Gerber Fmt 4.6, Leading zero omitted, Abs format (unit mm)*
G04 Created by KiCad (PCBNEW (6.0.1-0)) date 2022-05-13 10:35:12*
%MOMM*%
%LPD*%
G01*
G04 APERTURE LIST*
G04 Aperture macros list*
%AMRotRect*
0 Rectangle, with rotation*
0 The origin of the aperture is its center*
0 $1 length*
0 $2 width*
0 $3 Rotation angle, in degrees counterclockwise*
0 Add horizontal line*
21,1,$1,$2,0,0,$3*%
G04 Aperture macros list end*
%TA.AperFunction,SMDPad,CuDef*%
%ADD10R,1.000000X1.000000*%
%TD*%
%TA.AperFunction,SMDPad,CuDef*%
%ADD11RotRect,0.700000X0.400000X191.270000*%
%TD*%
%TA.AperFunction,SMDPad,CuDef*%
%ADD12RotRect,0.700000X0.400000X149.920000*%
%TD*%
%TA.AperFunction,SMDPad,CuDef*%
%ADD13RotRect,0.700000X0.400000X348.730000*%
%TD*%
%TA.AperFunction,SMDPad,CuDef*%
%ADD14RotRect,0.700000X0.400000X39.370000*%
%TD*%
%TA.AperFunction,SMDPad,CuDef*%
%ADD15RotRect,0.700000X0.400000X329.920000*%
%TD*%
%TA.AperFunction,SMDPad,CuDef*%
%ADD16RotRect,0.700000X0.400000X299.830000*%
%TD*%
%TA.AperFunction,SMDPad,CuDef*%
%ADD17RotRect,0.700000X0.400000X30.080000*%
%TD*%
%TA.AperFunction,SMDPad,CuDef*%
%ADD18RotRect,0.700000X0.400000X140.630000*%
%TD*%
%TA.AperFunction,SMDPad,CuDef*%
%ADD19R,0.400000X0.700000*%
%TD*%
%TA.AperFunction,SMDPad,CuDef*%
%ADD20R,0.700000X0.400000*%
%TD*%
%TA.AperFunction,SMDPad,CuDef*%
%ADD21RotRect,0.700000X0.400000X240.170000*%
%TD*%
%TA.AperFunction,ViaPad*%
%ADD22C,0.600000*%
%TD*%
%TA.AperFunction,Conductor*%
%ADD23C,0.200000*%
%TD*%
%TA.AperFunction,Conductor*%
%ADD24C,0.150000*%
%TD*%
G04 APERTURE END LIST*
D10*
%TO.P,TP1,1,1*%
%TO.N,Net-(D21-Pad1)*%
X145000000Y-34200000D03*
%TD*%
D11*
%TO.P,D6,1,SDO*%
%TO.N,Net-(D6-Pad1)*%
X152584212Y-136242742D03*
%TO.P,D6,2,GND*%
%TO.N,GND*%
X152427866Y-135458169D03*
%TO.P,D6,3,SDI*%
%TO.N,Net-(D5-Pad1)*%
X152271520Y-134673595D03*
%TO.P,D6,4,CKI*%
%TO.N,Net-(D5-Pad6)*%
X150996588Y-134927658D03*
%TO.P,D6,5,VDD*%
%TO.N,+5V*%
X151152934Y-135712231D03*
%TO.P,D6,6,CKO*%
%TO.N,Net-(D6-Pad6)*%
X151309280Y-136496805D03*
%TD*%
D12*
%TO.P,D1,1,SDO*%
%TO.N,Net-(D1-Pad1)*%
X150504095Y-69648847D03*
%TO.P,D1,2,GND*%
%TO.N,GND*%
X150905062Y-68956586D03*
%TO.P,D1,3,SDI*%
%TO.N,LEDDAT*%
X151306029Y-68264325D03*
%TO.P,D1,4,CKI*%
%TO.N,LEDCLK*%
X150181105Y-67612753D03*
%TO.P,D1,5,VDD*%
%TO.N,+5V*%
X149780138Y-68305014D03*
%TO.P,D1,6,CKO*%
%TO.N,Net-(D1-Pad6)*%
X149379171Y-68997275D03*
%TD*%
D13*
%TO.P,D12,1,SDO*%
%TO.N,Net-(D12-Pad1)*%
X101728480Y-134673595D03*
%TO.P,D12,2,GND*%
%TO.N,GND*%
X101572134Y-135458169D03*
%TO.P,D12,3,SDI*%
%TO.N,Net-(D11-Pad1)*%
X101415788Y-136242742D03*
%TO.P,D12,4,CKI*%
%TO.N,Net-(D11-Pad6)*%
X102690720Y-136496805D03*
%TO.P,D12,5,VDD*%
%TO.N,+5V*%
X102847066Y-135712231D03*
%TO.P,D12,6,CKO*%
%TO.N,Net-(D12-Pad6)*%
X103003412Y-134927658D03*
%TD*%
D14*
%TO.P,D11,1,SDO*%
%TO.N,Net-(D11-Pad1)*%
X98354847Y-149653859D03*
%TO.P,D11,2,GND*%
%TO.N,GND*%
X98862307Y-150272312D03*
%TO.P,D11,3,SDI*%
%TO.N,Net-(D10-Pad1)*%
X99369768Y-150890764D03*
%TO.P,D11,4,CKI*%
%TO.N,Net-(D10-Pad6)*%
X100374753Y-150066141D03*
%TO.P,D11,5,VDD*%
%TO.N,+5V*%
X99867293Y-149447688D03*
%TO.P,D11,6,CKO*%
%TO.N,Net-(D11-Pad6)*%
X99359832Y-148829236D03*
%TD*%
D15*
%TO.P,D19,1,SDO*%
%TO.N,Net-(D19-Pad1)*%
X103495905Y-40587153D03*
%TO.P,D19,2,GND*%
%TO.N,GND*%
X103094938Y-41279414D03*
%TO.P,D19,3,SDI*%
%TO.N,Net-(D18-Pad1)*%
X102693971Y-41971675D03*
%TO.P,D19,4,CKI*%
%TO.N,Net-(D18-Pad6)*%
X103818895Y-42623247D03*
%TO.P,D19,5,VDD*%
%TO.N,+5V*%
X104219862Y-41930986D03*
%TO.P,D19,6,CKO*%
%TO.N,Net-(D19-Pad6)*%
X104620829Y-41238725D03*
%TD*%
D16*
%TO.P,D20,1,SDO*%
%TO.N,Net-(D20-Pad1)*%
X113959476Y-30762779D03*
%TO.P,D20,2,GND*%
%TO.N,GND*%
X113265472Y-31160722D03*
%TO.P,D20,3,SDI*%
%TO.N,Net-(D19-Pad1)*%
X112571468Y-31558664D03*
%TO.P,D20,4,CKI*%
%TO.N,Net-(D19-Pad6)*%
X113218124Y-32686421D03*
%TO.P,D20,5,VDD*%
%TO.N,+5V*%
X113912128Y-32288478D03*
%TO.P,D20,6,CKO*%
%TO.N,Net-(D20-Pad6)*%
X114606132Y-31890536D03*
%TD*%
D11*
%TO.P,D2,1,SDO*%
%TO.N,Net-(D2-Pad1)*%
X141205012Y-79168942D03*
%TO.P,D2,2,GND*%
%TO.N,GND*%
X141048666Y-78384369D03*
%TO.P,D2,3,SDI*%
%TO.N,Net-(D1-Pad1)*%
X140892320Y-77599795D03*
%TO.P,D2,4,CKI*%
%TO.N,Net-(D1-Pad6)*%
X139617388Y-77853858D03*
%TO.P,D2,5,VDD*%
%TO.N,+5V*%
X139773734Y-78638431D03*
%TO.P,D2,6,CKO*%
%TO.N,Net-(D2-Pad6)*%
X139930080Y-79423005D03*
%TD*%
D17*
%TO.P,D17,1,SDO*%
%TO.N,Net-(D17-Pad1)*%
X102693971Y-68264325D03*
%TO.P,D17,2,GND*%
%TO.N,GND*%
X103094938Y-68956586D03*
%TO.P,D17,3,SDI*%
%TO.N,Net-(D16-Pad1)*%
X103495905Y-69648847D03*
%TO.P,D17,4,CKI*%
%TO.N,Net-(D16-Pad6)*%
X104620829Y-68997275D03*
%TO.P,D17,5,VDD*%
%TO.N,+5V*%
X104219862Y-68305014D03*
%TO.P,D17,6,CKO*%
%TO.N,Net-(D17-Pad6)*%
X103818895Y-67612753D03*
%TD*%
D18*
%TO.P,D7,1,SDO*%
%TO.N,Net-(D7-Pad1)*%
X154630232Y-150890764D03*
%TO.P,D7,2,GND*%
%TO.N,GND*%
X155137693Y-150272312D03*
%TO.P,D7,3,SDI*%
%TO.N,Net-(D6-Pad1)*%
X155645153Y-149653859D03*
%TO.P,D7,4,CKI*%
%TO.N,Net-(D6-Pad6)*%
X154640168Y-148829236D03*
%TO.P,D7,5,VDD*%
%TO.N,+5V*%
X154132707Y-149447688D03*
%TO.P,D7,6,CKO*%
%TO.N,Net-(D7-Pad6)*%
X153625247Y-150066141D03*
%TD*%
D11*
%TO.P,D3,1,SDO*%
%TO.N,Net-(D3-Pad1)*%
X144049812Y-93443742D03*
%TO.P,D3,2,GND*%
%TO.N,GND*%
X143893466Y-92659169D03*
%TO.P,D3,3,SDI*%
%TO.N,Net-(D2-Pad1)*%
X143737120Y-91874595D03*
%TO.P,D3,4,CKI*%
%TO.N,Net-(D2-Pad6)*%
X142462188Y-92128658D03*
%TO.P,D3,5,VDD*%
%TO.N,+5V*%
X142618534Y-92913231D03*
%TO.P,D3,6,CKO*%
%TO.N,Net-(D3-Pad6)*%
X142774880Y-93697805D03*
%TD*%
D19*
%TO.P,D9,1,SDO*%
%TO.N,Net-(D10-Pad3)*%
X126200000Y-150510000D03*
%TO.P,D9,2,GND*%
%TO.N,GND*%
X127000000Y-150510000D03*
%TO.P,D9,3,SDI*%
%TO.N,Net-(D8-Pad1)*%
X127800000Y-150510000D03*
%TO.P,D9,4,CKI*%
%TO.N,Net-(D8-Pad6)*%
X127800000Y-149210000D03*
%TO.P,D9,5,VDD*%
%TO.N,+5V*%
X127000000Y-149210000D03*
%TO.P,D9,6,CKO*%
%TO.N,Net-(D10-Pad4)*%
X126200000Y-149210000D03*
%TD*%
D13*
%TO.P,D16,1,SDO*%
%TO.N,Net-(D16-Pad1)*%
X113107680Y-77599795D03*
%TO.P,D16,2,GND*%
%TO.N,GND*%
X112951334Y-78384369D03*
%TO.P,D16,3,SDI*%
%TO.N,Net-(D15-Pad1)*%
X112794988Y-79168942D03*
%TO.P,D16,4,CKI*%
%TO.N,Net-(D15-Pad6)*%
X114069920Y-79423005D03*
%TO.P,D16,5,VDD*%
%TO.N,+5V*%
X114226266Y-78638431D03*
%TO.P,D16,6,CKO*%
%TO.N,Net-(D16-Pad6)*%
X114382612Y-77853858D03*
%TD*%
D20*
%TO.P,D18,1,SDO*%
%TO.N,Net-(D18-Pad1)*%
X99375200Y-54318000D03*
%TO.P,D18,2,GND*%
%TO.N,GND*%
X99375200Y-55118000D03*
%TO.P,D18,3,SDI*%
%TO.N,Net-(D17-Pad1)*%
X99375200Y-55918000D03*
%TO.P,D18,4,CKI*%
%TO.N,Net-(D17-Pad6)*%
X100675200Y-55918000D03*
%TO.P,D18,5,VDD*%
%TO.N,+5V*%
X100675200Y-55118000D03*
%TO.P,D18,6,CKO*%
%TO.N,Net-(D18-Pad6)*%
X100675200Y-54318000D03*
%TD*%
D13*
%TO.P,D13,1,SDO*%
%TO.N,Net-(D13-Pad1)*%
X104573280Y-120424195D03*
%TO.P,D13,2,GND*%
%TO.N,GND*%
X104416934Y-121208769D03*
%TO.P,D13,3,SDI*%
%TO.N,Net-(D12-Pad1)*%
X104260588Y-121993342D03*
%TO.P,D13,4,CKI*%
%TO.N,Net-(D12-Pad6)*%
X105535520Y-122247405D03*
%TO.P,D13,5,VDD*%
%TO.N,+5V*%
X105691866Y-121462831D03*
%TO.P,D13,6,CKO*%
%TO.N,Net-(D13-Pad6)*%
X105848212Y-120678258D03*
%TD*%
%TO.P,D15,1,SDO*%
%TO.N,Net-(D15-Pad1)*%
X110262880Y-91874595D03*
%TO.P,D15,2,GND*%
%TO.N,GND*%
X110106534Y-92659169D03*
%TO.P,D15,3,SDI*%
%TO.N,Net-(D14-Pad1)*%
X109950188Y-93443742D03*
%TO.P,D15,4,CKI*%
%TO.N,Net-(D14-Pad6)*%
X111225120Y-93697805D03*
%TO.P,D15,5,VDD*%
%TO.N,+5V*%
X111381466Y-92913231D03*
%TO.P,D15,6,CKO*%
%TO.N,Net-(D15-Pad6)*%
X111537812Y-92128658D03*
%TD*%
D11*
%TO.P,D5,1,SDO*%
%TO.N,Net-(D5-Pad1)*%
X149739412Y-121993342D03*
%TO.P,D5,2,GND*%
%TO.N,GND*%
X149583066Y-121208769D03*
%TO.P,D5,3,SDI*%
%TO.N,Net-(D4-Pad1)*%
X149426720Y-120424195D03*
%TO.P,D5,4,CKI*%
%TO.N,Net-(D4-Pad6)*%
X148151788Y-120678258D03*
%TO.P,D5,5,VDD*%
%TO.N,+5V*%
X148308134Y-121462831D03*
%TO.P,D5,6,CKO*%
%TO.N,Net-(D5-Pad6)*%
X148464480Y-122247405D03*
%TD*%
D21*
%TO.P,D21,1,SDO*%
%TO.N,Net-(D21-Pad1)*%
X141428532Y-31558664D03*
%TO.P,D21,2,GND*%
%TO.N,GND*%
X140734528Y-31160722D03*
%TO.P,D21,3,SDI*%
%TO.N,Net-(D20-Pad1)*%
X140040524Y-30762779D03*
%TO.P,D21,4,CKI*%
%TO.N,Net-(D20-Pad6)*%
X139393868Y-31890536D03*
%TO.P,D21,5,VDD*%
%TO.N,+5V*%
X140087872Y-32288478D03*
%TO.P,D21,6,CKO*%
%TO.N,Net-(D21-Pad6)*%
X140781876Y-32686421D03*
%TD*%
D13*
%TO.P,D14,1,SDO*%
%TO.N,Net-(D14-Pad1)*%
X107418080Y-106149395D03*
%TO.P,D14,2,GND*%
%TO.N,GND*%
X107261734Y-106933969D03*
%TO.P,D14,3,SDI*%
%TO.N,Net-(D13-Pad1)*%
X107105388Y-107718542D03*
%TO.P,D14,4,CKI*%
%TO.N,Net-(D13-Pad6)*%
X108380320Y-107972605D03*
%TO.P,D14,5,VDD*%
%TO.N,+5V*%
X108536666Y-107188031D03*
%TO.P,D14,6,CKO*%
%TO.N,Net-(D14-Pad6)*%
X108693012Y-106403458D03*
%TD*%
D10*
%TO.P,TP2,1,1*%
%TO.N,Net-(D21-Pad6)*%
X145000000Y-36200000D03*
%TD*%
D19*
%TO.P,D8,1,SDO*%
%TO.N,Net-(D8-Pad1)*%
X140017600Y-150510000D03*
%TO.P,D8,2,GND*%
%TO.N,GND*%
X140817600Y-150510000D03*
%TO.P,D8,3,SDI*%
%TO.N,Net-(D7-Pad1)*%
X141617600Y-150510000D03*
%TO.P,D8,4,CKI*%
%TO.N,Net-(D7-Pad6)*%
X141617600Y-149210000D03*
%TO.P,D8,5,VDD*%
%TO.N,+5V*%
X140817600Y-149210000D03*
%TO.P,D8,6,CKO*%
%TO.N,Net-(D8-Pad6)*%
X140017600Y-149210000D03*
%TD*%
%TO.P,D10,1,SDO*%
%TO.N,Net-(D10-Pad1)*%
X112382400Y-150510000D03*
%TO.P,D10,2,GND*%
%TO.N,GND*%
X113182400Y-150510000D03*
%TO.P,D10,3,SDI*%
%TO.N,Net-(D10-Pad3)*%
X113982400Y-150510000D03*
%TO.P,D10,4,CKI*%
%TO.N,Net-(D10-Pad4)*%
X113982400Y-149210000D03*
%TO.P,D10,5,VDD*%
%TO.N,+5V*%
X113182400Y-149210000D03*
%TO.P,D10,6,CKO*%
%TO.N,Net-(D10-Pad6)*%
X112382400Y-149210000D03*
%TD*%
D11*
%TO.P,D4,1,SDO*%
%TO.N,Net-(D4-Pad1)*%
X146894612Y-107718542D03*
%TO.P,D4,2,GND*%
%TO.N,GND*%
X146738266Y-106933969D03*
%TO.P,D4,3,SDI*%
%TO.N,Net-(D3-Pad1)*%
X146581920Y-106149395D03*
%TO.P,D4,4,CKI*%
%TO.N,Net-(D3-Pad6)*%
X145306988Y-106403458D03*
%TO.P,D4,5,VDD*%
%TO.N,+5V*%
X145463334Y-107188031D03*
%TO.P,D4,6,CKO*%
%TO.N,Net-(D4-Pad6)*%
X145619680Y-107972605D03*
%TD*%
D22*
%TO.N,GND*%
X151000000Y-61500000D03*
X100028571Y-138228571D03*
X126000000Y-76000000D03*
X126200000Y-137800000D03*
X114400000Y-135000000D03*
X133200000Y-135000000D03*
X151000000Y-57700000D03*
X128000000Y-76000000D03*
X130000000Y-75000000D03*
X122200000Y-134600000D03*
X108806233Y-144993767D03*
X155972740Y-151107359D03*
X123000000Y-78000000D03*
X137700000Y-145400000D03*
X125000000Y-79000000D03*
X124000000Y-74000000D03*
X127000000Y-74000000D03*
X124000000Y-78000000D03*
X127000000Y-76000000D03*
X128000000Y-77000000D03*
X121600000Y-43800000D03*
X130500000Y-66000000D03*
X111800000Y-135000000D03*
X129000000Y-74000000D03*
X122400000Y-42800000D03*
X128000000Y-78000000D03*
X120200000Y-42200000D03*
X130400000Y-135000000D03*
X128200000Y-137600000D03*
X122000000Y-77000000D03*
X114900000Y-138600000D03*
X124000000Y-77000000D03*
X107993767Y-145806233D03*
X132000000Y-74000000D03*
X124000000Y-75000000D03*
X125000000Y-78000000D03*
X123000000Y-79000000D03*
X133000000Y-78000000D03*
X125000000Y-74000000D03*
X127000000Y-77000000D03*
X118000000Y-32500000D03*
X129000000Y-77000000D03*
X109000000Y-62000000D03*
X131000000Y-75000000D03*
X123300000Y-142400000D03*
X131000000Y-74000000D03*
X119500000Y-68500000D03*
X122000000Y-74000000D03*
X126000000Y-78000000D03*
X137500000Y-36000000D03*
X127200000Y-42800000D03*
X149000000Y-134000000D03*
X141200000Y-30200000D03*
X123000000Y-75000000D03*
X117700000Y-139700000D03*
X155000000Y-57500000D03*
X118600000Y-141900000D03*
X143900000Y-145400000D03*
X117400000Y-60600000D03*
X131400000Y-151400000D03*
X153971429Y-138228571D03*
X125000000Y-76000000D03*
X133000000Y-77000000D03*
X123100000Y-140000000D03*
X132000000Y-78000000D03*
X141500000Y-41000000D03*
X133000000Y-74000000D03*
X131000000Y-78000000D03*
X130500000Y-59000000D03*
X129000000Y-76000000D03*
X129000000Y-78000000D03*
X127000000Y-78000000D03*
X114600000Y-141900000D03*
X146000000Y-118000000D03*
X124800000Y-42800000D03*
X130000000Y-77000000D03*
X133000000Y-79000000D03*
X126000000Y-142600000D03*
%TO.N,NFC*%
X124500000Y-121500000D03*
X126700000Y-118600000D03*
%TO.N,+BATT*%
X123400000Y-134400000D03*
X111800000Y-134000000D03*
X146200000Y-65700000D03*
X127400000Y-69400000D03*
X116000000Y-68600000D03*
%TO.N,+5V*%
X128200000Y-56800000D03*
X115806234Y-56606234D03*
X141000000Y-34500000D03*
X112800000Y-34800000D03*
X147800000Y-57200000D03*
X152200000Y-64400000D03*
%TO.N,LEDDAT*%
X152200000Y-66400000D03*
%TO.N,LEDCLK*%
X139865000Y-62635000D03*
X151200000Y-66400000D03*
X122400000Y-61200000D03*
%TO.N,MIC_DAT*%
X144200000Y-120700000D03*
X144200000Y-140800000D03*
X123400000Y-143400000D03*
%TO.N,MIC_CLK*%
X144200000Y-142800000D03*
X145000000Y-112800000D03*
X123400000Y-144400000D03*
%TO.N,EYE_R_B*%
X121400000Y-61000000D03*
X141500000Y-62500000D03*
%TO.N,EYE_R_G*%
X119800000Y-61300000D03*
X144500000Y-62500000D03*
%TO.N,EYE_R_R*%
X143000000Y-62500000D03*
X120600000Y-61200000D03*
%TO.N,SW1*%
X143400000Y-134200000D03*
X130400000Y-138800000D03*
%TO.N,SW2*%
X134000000Y-142600000D03*
X142400000Y-142000000D03*
%TO.N,SW3*%
X117600000Y-143400000D03*
X108800000Y-139300000D03*
%TO.N,/MCU/~{RESET}*%
X132400000Y-139600000D03*
X134200000Y-139324500D03*
%TO.N,SHIFT_LEDDAT*%
X139200000Y-75200000D03*
X121600000Y-136800000D03*
X142400000Y-103400000D03*
X139200000Y-70800000D03*
%TO.N,SHIFT_LEDCLK*%
X143000000Y-102800000D03*
X122600000Y-136800000D03*
X140500000Y-70700000D03*
X140000000Y-74500000D03*
%TO.N,SHIFT_EYE_L_G*%
X117600000Y-141200000D03*
X108400000Y-120200000D03*
%TO.N,SHIFT_EYE_L_B*%
X109000000Y-119600000D03*
X114200000Y-140600000D03*
%TO.N,SHIFT_EYE_L_R*%
X107800000Y-119600000D03*
X117600000Y-142600000D03*
%TO.N,SHIFT_EYE_R_R*%
X116600000Y-136724500D03*
X110200000Y-119600000D03*
%TO.N,SHIFT_EYE_R_B*%
X119200000Y-139600000D03*
X109600000Y-120200000D03*
%TO.N,SHIFT_EYE_R_G*%
X110800000Y-120200000D03*
X117300000Y-136200000D03*
%TD*%
D23*
%TO.N,GND*%
X143893466Y-92659169D02*
X144758601Y-92441399D01*
X155972740Y-151172740D02*
X156600000Y-150545480D01*
X127000000Y-151400000D02*
X131400000Y-151400000D01*
X155345480Y-151800000D02*
X155972740Y-151172740D01*
X153300437Y-135300437D02*
X150462882Y-121062882D01*
X100600000Y-151400000D02*
X100200000Y-151800000D01*
X153400000Y-135800000D02*
X153300437Y-135300437D01*
X98862307Y-150272312D02*
X98027260Y-151107359D01*
X104416934Y-121208769D02*
X103537118Y-121062882D01*
X130400000Y-135000000D02*
X133200000Y-135000000D01*
X141200000Y-30200000D02*
X140734528Y-31160722D01*
X112951334Y-78384369D02*
X112200000Y-78200000D01*
X118111269Y-28000000D02*
X135888731Y-28000000D01*
X113200000Y-151400000D02*
X100600000Y-151400000D01*
X153800000Y-151800000D02*
X155345480Y-151800000D01*
X114400000Y-135000000D02*
X111800000Y-135000000D01*
X103094938Y-41279414D02*
X102000000Y-40600000D01*
X144758601Y-92441399D02*
X142000000Y-78600000D01*
X140817600Y-150510000D02*
X140817600Y-151382400D01*
X101572134Y-135458169D02*
X100699563Y-135300437D01*
X100600000Y-135800000D02*
X100699563Y-135300437D01*
X100028571Y-138228571D02*
X100600000Y-135800000D01*
X103094938Y-68956586D02*
X102000000Y-69600000D01*
X126200000Y-137800000D02*
X126400000Y-137600000D01*
X149583066Y-121208769D02*
X150462882Y-121062882D01*
X100699563Y-135300437D02*
X103537118Y-121062882D01*
X122600000Y-135000000D02*
X122200000Y-134600000D01*
X150462882Y-121062882D02*
X147616910Y-106783090D01*
X98027260Y-151172740D02*
X97400000Y-150545480D01*
X109241399Y-92441399D02*
X112000000Y-78600000D01*
X143900000Y-145400000D02*
X137700000Y-145400000D01*
X146738266Y-106933969D02*
X147616910Y-106783090D01*
X116000000Y-139700000D02*
X117700000Y-139700000D01*
X127000000Y-150510000D02*
X127000000Y-151400000D01*
X100200000Y-151800000D02*
X98654520Y-151800000D01*
X146000000Y-118000000D02*
X146000000Y-131000000D01*
X98027260Y-151107359D02*
X98027260Y-151172740D01*
X106383090Y-106783090D02*
X109241399Y-92441399D01*
X127000000Y-151400000D02*
X113200000Y-151400000D01*
X147616910Y-106783090D02*
X144758601Y-92441399D01*
X98400000Y-55200000D02*
X102000000Y-69600000D01*
X152427866Y-135458169D02*
X153300437Y-135300437D01*
X152000000Y-69600000D02*
X144531371Y-77068629D01*
X102000000Y-40600000D02*
X112800000Y-30200000D01*
X156600000Y-150545480D02*
X156600000Y-149400000D01*
X97400000Y-150545480D02*
X97400000Y-149400000D01*
X110106534Y-92659169D02*
X109241399Y-92441399D01*
X146000000Y-131000000D02*
X149000000Y-134000000D01*
X126400000Y-137600000D02*
X128200000Y-137600000D01*
X97400000Y-149400000D02*
X100028571Y-138228571D01*
X153971429Y-138228571D02*
X153400000Y-135800000D01*
X98654520Y-151800000D02*
X98027260Y-151172740D01*
X141000000Y-151400000D02*
X153400000Y-151400000D01*
X155972740Y-151107359D02*
X155972740Y-151172740D01*
X113265472Y-31160722D02*
X112800000Y-30200000D01*
X107261734Y-106933969D02*
X106383090Y-106783090D01*
X141800000Y-78200000D02*
X142000000Y-78600000D01*
X109468629Y-77068629D02*
X102000000Y-69600000D01*
X112200000Y-78200000D02*
X112000000Y-78600000D01*
X114900000Y-138600000D02*
X116000000Y-139700000D01*
X141048666Y-78384369D02*
X141800000Y-78200000D01*
X113182400Y-151382400D02*
X113200000Y-151400000D01*
X113182400Y-150510000D02*
X113182400Y-151382400D01*
X125800000Y-142400000D02*
X123300000Y-142400000D01*
X102000000Y-40600000D02*
X98400000Y-55200000D01*
X156600000Y-149400000D02*
X153971429Y-138228571D01*
X155137693Y-150272312D02*
X155972740Y-151107359D01*
X126000000Y-142600000D02*
X125800000Y-142400000D01*
X150905062Y-68956586D02*
X152000000Y-69600000D01*
X131400000Y-151400000D02*
X141000000Y-151400000D01*
X103537118Y-121062882D02*
X106383090Y-106783090D01*
X153400000Y-151400000D02*
X153800000Y-151800000D01*
X124000000Y-140000000D02*
X123100000Y-140000000D01*
X99375200Y-55118000D02*
X98400000Y-55200000D01*
X114600000Y-141900000D02*
X118600000Y-141900000D01*
X130400000Y-135000000D02*
X122600000Y-135000000D01*
X126200000Y-137800000D02*
X124000000Y-140000000D01*
X107993767Y-145806233D02*
X108806233Y-144993767D01*
X109468629Y-77068629D02*
G75*
G03*
X112200000Y-78200000I2731373J2731375D01*
G01*
X141800000Y-78199999D02*
G75*
G03*
X144531370Y-77068628I0J3862741D01*
G01*
X141200000Y-30200000D02*
G75*
G03*
X135888731Y-28000000I-5311268J-5311264D01*
G01*
X118111269Y-28000000D02*
G75*
G03*
X112800000Y-30200000I3J-7511275D01*
G01*
D24*
%TO.N,Net-(D10-Pad4)*%
X126200000Y-149210000D02*
X113982400Y-149210000D01*
%TO.N,Net-(D10-Pad3)*%
X126200000Y-150510000D02*
X113982400Y-150510000D01*
%TO.N,Net-(D5-Pad1)*%
X152271520Y-134673595D02*
X149739412Y-121993342D01*
%TO.N,Net-(D1-Pad1)*%
X140892320Y-77599795D02*
X150504095Y-69648847D01*
%TO.N,Net-(D1-Pad6)*%
X149379171Y-68997275D02*
X139617388Y-77853858D01*
%TO.N,Net-(D2-Pad1)*%
X143737120Y-91874595D02*
X141205012Y-79168942D01*
%TO.N,Net-(D2-Pad6)*%
X139930080Y-79423005D02*
X142462188Y-92128658D01*
%TO.N,Net-(D3-Pad1)*%
X146581920Y-106149395D02*
X144049812Y-93443742D01*
%TO.N,Net-(D3-Pad6)*%
X142774880Y-93697805D02*
X145306988Y-106403458D01*
%TO.N,Net-(D4-Pad1)*%
X146894612Y-107718542D02*
X149426720Y-120424195D01*
%TO.N,Net-(D4-Pad6)*%
X145619680Y-107972605D02*
X148151788Y-120678258D01*
%TO.N,Net-(D6-Pad1)*%
X152584212Y-136242742D02*
X155645153Y-149653859D01*
%TO.N,Net-(D6-Pad6)*%
X151309280Y-136496805D02*
X154640168Y-148829236D01*
%TO.N,Net-(D10-Pad1)*%
X99369768Y-150890764D02*
X112382400Y-150510000D01*
%TO.N,Net-(D10-Pad6)*%
X112382400Y-149210000D02*
X100374753Y-150066141D01*
%TO.N,Net-(D11-Pad1)*%
X98354847Y-149653859D02*
X101415788Y-136242742D01*
%TO.N,Net-(D11-Pad6)*%
X99359832Y-148829236D02*
X102690720Y-136496805D01*
%TO.N,Net-(D12-Pad1)*%
X104260588Y-121993342D02*
X101728480Y-134673595D01*
%TO.N,Net-(D12-Pad6)*%
X103003412Y-134927658D02*
X105535520Y-122247405D01*
%TO.N,Net-(D13-Pad1)*%
X104573280Y-120424195D02*
X107105388Y-107718542D01*
%TO.N,Net-(D13-Pad6)*%
X105848212Y-120678258D02*
X108380320Y-107972605D01*
%TO.N,Net-(D14-Pad1)*%
X107418080Y-106149395D02*
X109950188Y-93443742D01*
%TO.N,Net-(D14-Pad6)*%
X108693012Y-106403458D02*
X111225120Y-93697805D01*
%TO.N,Net-(D15-Pad1)*%
X110262880Y-91874595D02*
X112794988Y-79168942D01*
%TO.N,Net-(D15-Pad6)*%
X111537812Y-92128658D02*
X114069920Y-79423005D01*
%TO.N,Net-(D16-Pad1)*%
X113107680Y-77599795D02*
X103495905Y-69648847D01*
%TO.N,Net-(D16-Pad6)*%
X104620829Y-68997275D02*
X114382612Y-77853858D01*
%TO.N,Net-(D17-Pad1)*%
X99375200Y-55918000D02*
X102693971Y-68264325D01*
%TO.N,Net-(D17-Pad6)*%
X100675200Y-55918000D02*
X103818895Y-67612753D01*
%TO.N,Net-(D19-Pad1)*%
X103495905Y-40587153D02*
X112571468Y-31558664D01*
%TO.N,Net-(D19-Pad6)*%
X104620829Y-41238725D02*
X113218124Y-32686421D01*
%TO.N,Net-(D20-Pad1)*%
X119422307Y-28500000D02*
X134577693Y-28500000D01*
X119422307Y-28500001D02*
G75*
G03*
X113959477Y-30762780I2J-7725613D01*
G01*
X140040524Y-30762779D02*
G75*
G03*
X134577693Y-28500000I-5462832J-5462833D01*
G01*
%TO.N,Net-(D20-Pad6)*%
X121584503Y-29000000D02*
X132415497Y-29000000D01*
X139393868Y-31890536D02*
G75*
G03*
X132415497Y-29000000I-6978372J-6978373D01*
G01*
X121584503Y-29000001D02*
G75*
G03*
X114606133Y-31890537I-1J-9868904D01*
G01*
D23*
%TO.N,NFC*%
X124900000Y-120500000D02*
X124900000Y-120100000D01*
X125300000Y-120100000D02*
X125300000Y-119700000D01*
X133300000Y-101700000D02*
X133300000Y-119300000D01*
X120700000Y-119300000D02*
X120700000Y-101700000D01*
X133300000Y-119300000D02*
X126100000Y-119300000D01*
X124900000Y-120100000D02*
X119900000Y-120100000D01*
X119900000Y-120100000D02*
X119900000Y-100900000D01*
X124500000Y-121500000D02*
X124500000Y-120500000D01*
X126100000Y-119300000D02*
X126100000Y-118900000D01*
X125700000Y-119300000D02*
X120700000Y-119300000D01*
X132900000Y-102100000D02*
X132900000Y-118900000D01*
X119900000Y-100900000D02*
X134100000Y-100900000D01*
X124500000Y-120500000D02*
X119500000Y-120500000D01*
X120700000Y-101700000D02*
X133300000Y-101700000D01*
X134500000Y-120500000D02*
X124900000Y-120500000D01*
X126100000Y-118900000D02*
X121100000Y-118900000D01*
X127000000Y-118900000D02*
X126700000Y-118600000D01*
X121100000Y-102100000D02*
X132900000Y-102100000D01*
X121100000Y-118900000D02*
X121100000Y-102100000D01*
X132900000Y-118900000D02*
X127000000Y-118900000D01*
X120300000Y-101300000D02*
X133700000Y-101300000D01*
X133700000Y-119700000D02*
X125700000Y-119700000D01*
X119500000Y-120500000D02*
X119500000Y-100500000D01*
X134500000Y-100500000D02*
X134500000Y-120500000D01*
X125300000Y-119700000D02*
X120300000Y-119700000D01*
X134100000Y-100900000D02*
X134100000Y-120100000D01*
X120300000Y-119700000D02*
X120300000Y-101300000D01*
X133700000Y-101300000D02*
X133700000Y-119700000D01*
X134100000Y-120100000D02*
X125300000Y-120100000D01*
X119500000Y-100500000D02*
X134500000Y-100500000D01*
X125700000Y-119700000D02*
X125700000Y-119300000D01*
%TO.N,+BATT*%
X146200000Y-65700000D02*
X142500000Y-69400000D01*
X111800000Y-134000000D02*
X123000000Y-134000000D01*
X116000000Y-68600000D02*
X116800000Y-69400000D01*
X142500000Y-69400000D02*
X127400000Y-69400000D01*
X123000000Y-134000000D02*
X123400000Y-134400000D01*
X116800000Y-69400000D02*
X127400000Y-69400000D01*
%TO.N,+5V*%
X140817600Y-149210000D02*
X140817600Y-148417600D01*
X150400000Y-136400000D02*
X153000000Y-148400000D01*
X106524781Y-121724781D02*
X109383090Y-107383090D01*
X113912128Y-32288478D02*
X114400000Y-33200000D01*
X114226266Y-78638431D02*
X115000000Y-78800000D01*
X138600000Y-77200000D02*
X139000000Y-78800000D01*
X101600000Y-55200000D02*
X105000000Y-42400000D01*
X149780138Y-68305014D02*
X148800000Y-67800000D01*
X147400000Y-56800000D02*
X128200000Y-56800000D01*
X139000000Y-78800000D02*
X139000000Y-79200000D01*
X127000000Y-148400000D02*
X113200000Y-148400000D01*
X105200000Y-67800000D02*
X101600000Y-55200000D01*
X151152934Y-135712231D02*
X150300437Y-135900437D01*
X150300437Y-135900437D02*
X147462882Y-121662882D01*
X141000000Y-148400000D02*
X127000000Y-148400000D01*
X115400000Y-77200000D02*
X115000000Y-78800000D01*
X145463334Y-107188031D02*
X144616910Y-107383090D01*
X109383090Y-107383090D02*
X112241399Y-93041399D01*
X103699708Y-135899708D02*
X106524781Y-121724781D01*
X148308134Y-121462831D02*
X147462882Y-121662882D01*
X103600000Y-136400000D02*
X103699708Y-135899708D01*
X123332590Y-29500000D02*
X130667410Y-29500000D01*
X102847066Y-135712231D02*
X103699708Y-135899708D01*
X153000000Y-148400000D02*
X154132707Y-149447688D01*
X113200000Y-148400000D02*
X101200000Y-148400000D01*
X142618534Y-92913231D02*
X141758601Y-93041399D01*
X128200000Y-56800000D02*
X116000000Y-56800000D01*
X139773734Y-78638431D02*
X139000000Y-78800000D01*
X127000000Y-148400000D02*
X127000000Y-149210000D01*
X101200000Y-148400000D02*
X99867293Y-149447688D01*
X112241399Y-93041399D02*
X115000000Y-79200000D01*
X139600000Y-33200000D02*
X140087872Y-32288478D01*
X105000000Y-42400000D02*
X114400000Y-33200000D01*
X112800000Y-34800000D02*
X114400000Y-33200000D01*
X103600000Y-136400000D02*
X101200000Y-148400000D01*
X111381466Y-92913231D02*
X112241399Y-93041399D01*
X100675200Y-55118000D02*
X101600000Y-55200000D01*
X113182400Y-148417600D02*
X113200000Y-148400000D01*
X105691866Y-121462831D02*
X106524781Y-121724781D01*
X144616910Y-107383090D02*
X141758601Y-93041399D01*
X141000000Y-148400000D02*
X153000000Y-148400000D01*
X141000000Y-34500000D02*
X139600000Y-33200000D01*
X108536666Y-107188031D02*
X109383090Y-107383090D01*
X148800000Y-67800000D02*
X138600000Y-77200000D01*
X113182400Y-149210000D02*
X113182400Y-148417600D01*
X105200000Y-67800000D02*
X115400000Y-77200000D01*
X147462882Y-121662882D02*
X144616910Y-107383090D01*
X104219862Y-68305014D02*
X105200000Y-67800000D01*
X104219862Y-41930986D02*
X105000000Y-42400000D01*
X115000000Y-78800000D02*
X115000000Y-79200000D01*
X152200000Y-64400000D02*
X148800000Y-67800000D01*
X147800000Y-57200000D02*
X147400000Y-56800000D01*
X141758601Y-93041399D02*
X139000000Y-79200000D01*
X116000000Y-56800000D02*
X115806234Y-56606234D01*
X150400000Y-136400000D02*
X150300437Y-135900437D01*
X139600000Y-33200000D02*
G75*
G03*
X130667410Y-29500000I-8932589J-8932586D01*
G01*
X123332590Y-29500001D02*
G75*
G03*
X114400001Y-33200001I-1J-12632587D01*
G01*
D24*
%TO.N,LEDDAT*%
X152200000Y-67400000D02*
X151335675Y-68264325D01*
X152200000Y-66400000D02*
X152200000Y-67400000D01*
X151335675Y-68264325D02*
X151306029Y-68264325D01*
%TO.N,LEDCLK*%
X151200000Y-66400000D02*
X151200000Y-66900000D01*
X139700000Y-62800000D02*
X139865000Y-62635000D01*
X150487247Y-67612753D02*
X150181105Y-67612753D01*
X151200000Y-66900000D02*
X150487247Y-67612753D01*
X122400000Y-61200000D02*
X124000000Y-62800000D01*
X124000000Y-62800000D02*
X139700000Y-62800000D01*
%TO.N,Net-(D5-Pad6)*%
X148464480Y-122247405D02*
X150996588Y-134927658D01*
%TO.N,Net-(D7-Pad1)*%
X141617600Y-150510000D02*
X154630232Y-150890764D01*
%TO.N,Net-(D7-Pad6)*%
X153625247Y-150066141D02*
X141617600Y-149210000D01*
%TO.N,Net-(D8-Pad1)*%
X127800000Y-150510000D02*
X140017600Y-150510000D01*
%TO.N,Net-(D8-Pad6)*%
X140017600Y-149210000D02*
X127800000Y-149210000D01*
%TO.N,Net-(D18-Pad1)*%
X99375200Y-54318000D02*
X102693971Y-41971675D01*
%TO.N,Net-(D18-Pad6)*%
X100675200Y-54318000D02*
X103818895Y-42623247D01*
%TO.N,Net-(D21-Pad1)*%
X141428532Y-31558664D02*
X142358664Y-31558664D01*
X142358664Y-31558664D02*
X145000000Y-34200000D01*
%TO.N,Net-(D21-Pad6)*%
X141486421Y-32686421D02*
X145000000Y-36200000D01*
X140781876Y-32686421D02*
X141486421Y-32686421D01*
%TO.N,MIC_DAT*%
X144200000Y-120700000D02*
X144200000Y-141800000D01*
X144200000Y-141800000D02*
X142600000Y-143400000D01*
X142600000Y-143400000D02*
X123400000Y-143400000D01*
%TO.N,MIC_CLK*%
X142600000Y-144400000D02*
X123400000Y-144400000D01*
X145000000Y-142000000D02*
X142600000Y-144400000D01*
X145000000Y-112800000D02*
X145000000Y-142000000D01*
%TO.N,EYE_R_B*%
X140840489Y-63159511D02*
X141500000Y-62500000D01*
X123559511Y-63159511D02*
X140840489Y-63159511D01*
X121400000Y-61000000D02*
X123559511Y-63159511D01*
%TO.N,EYE_R_G*%
X119800000Y-61400000D02*
X122158551Y-63758551D01*
X119800000Y-61300000D02*
X119800000Y-61400000D01*
X122158551Y-63758551D02*
X143241449Y-63758551D01*
X143241449Y-63758551D02*
X144500000Y-62500000D01*
%TO.N,EYE_R_R*%
X122859031Y-63459031D02*
X142040969Y-63459031D01*
X120600000Y-61200000D02*
X122859031Y-63459031D01*
X142040969Y-63459031D02*
X143000000Y-62500000D01*
%TO.N,SW1*%
X138800000Y-138800000D02*
X130400000Y-138800000D01*
X143400000Y-134200000D02*
X138800000Y-138800000D01*
%TO.N,SW2*%
X141800000Y-142600000D02*
X142400000Y-142000000D01*
X134000000Y-142600000D02*
X141800000Y-142600000D01*
%TO.N,SW3*%
X112900000Y-143400000D02*
X117600000Y-143400000D01*
X108800000Y-139300000D02*
X112900000Y-143400000D01*
%TO.N,/MCU/~{RESET}*%
X132400000Y-139600000D02*
X133924500Y-139600000D01*
X133924500Y-139600000D02*
X134200000Y-139324500D01*
%TO.N,SHIFT_LEDDAT*%
X139976414Y-136200000D02*
X122200000Y-136200000D01*
X142700480Y-103700480D02*
X142700480Y-108162272D01*
X142400000Y-103400000D02*
X142700480Y-103700480D01*
X142700480Y-108162272D02*
X143900480Y-109362273D01*
X143900480Y-109362273D02*
X143900480Y-119275934D01*
X143900480Y-119275934D02*
X143000480Y-120175934D01*
X143000480Y-133175934D02*
X139976414Y-136200000D01*
X139200000Y-70800000D02*
X139200000Y-75200000D01*
X122200000Y-136200000D02*
X121600000Y-136800000D01*
X143000480Y-120175934D02*
X143000480Y-133175934D01*
%TO.N,SHIFT_LEDCLK*%
X143300000Y-133300000D02*
X143300000Y-120300000D01*
X122600000Y-136800000D02*
X139800000Y-136800000D01*
X140500000Y-70700000D02*
X140000000Y-71200000D01*
X143300000Y-120300000D02*
X144200000Y-119400000D01*
X139800000Y-136800000D02*
X143300000Y-133300000D01*
X140000000Y-71200000D02*
X140000000Y-74500000D01*
X144200000Y-119400000D02*
X144200000Y-109238207D01*
X143000000Y-108038207D02*
X143000000Y-102800000D01*
X144200000Y-109238207D02*
X143000000Y-108038207D01*
%TO.N,SHIFT_EYE_L_G*%
X108400000Y-136700000D02*
X112900000Y-141200000D01*
X112900000Y-141200000D02*
X117600000Y-141200000D01*
X108400000Y-120200000D02*
X108400000Y-136700000D01*
%TO.N,SHIFT_EYE_L_B*%
X114200000Y-140600000D02*
X113200000Y-140600000D01*
X109000000Y-136400000D02*
X109000000Y-119600000D01*
X113200000Y-140600000D02*
X109000000Y-136400000D01*
%TO.N,SHIFT_EYE_L_R*%
X107800000Y-137100000D02*
X113300000Y-142600000D01*
X107800000Y-119600000D02*
X107800000Y-137100000D01*
X113300000Y-142600000D02*
X117600000Y-142600000D01*
%TO.N,SHIFT_EYE_R_R*%
X116600000Y-136724500D02*
X111324500Y-136724500D01*
X111324500Y-136724500D02*
X110200000Y-135600000D01*
X110200000Y-135600000D02*
X110200000Y-119600000D01*
%TO.N,SHIFT_EYE_R_B*%
X119200000Y-139600000D02*
X118500000Y-140300000D01*
X118500000Y-140300000D02*
X115500000Y-140300000D01*
X114800000Y-139600000D02*
X113200000Y-139600000D01*
X115500000Y-140300000D02*
X114800000Y-139600000D01*
X113200000Y-139600000D02*
X109600000Y-136000000D01*
X109600000Y-136000000D02*
X109600000Y-120200000D01*
%TO.N,SHIFT_EYE_R_G*%
X110800000Y-135200000D02*
X110800000Y-120200000D01*
X117300000Y-136200000D02*
X111800000Y-136200000D01*
X111800000Y-136200000D02*
X110800000Y-135200000D01*
%TD*%
%TA.AperFunction,Conductor*%
%TO.N,GND*%
G36*
X127537918Y-25956921D02*
G01*
X128607638Y-25996320D01*
X128610304Y-25996468D01*
X129677810Y-26075212D01*
X129680505Y-26075460D01*
X129938200Y-26104038D01*
X130744394Y-26193442D01*
X130747096Y-26193792D01*
X131805902Y-26350849D01*
X131808589Y-26351298D01*
X132860917Y-26547224D01*
X132863585Y-26547772D01*
X133907972Y-26782295D01*
X133910619Y-26782941D01*
X134354230Y-26899861D01*
X134945667Y-27055744D01*
X134948247Y-27056474D01*
X135717833Y-27289923D01*
X135972598Y-27367205D01*
X135975190Y-27368044D01*
X136987349Y-27716246D01*
X136989908Y-27717179D01*
X137988592Y-28102409D01*
X137991110Y-28103434D01*
X138974960Y-28525171D01*
X138977416Y-28526279D01*
X139506561Y-28776542D01*
X139945046Y-28983927D01*
X139947487Y-28985137D01*
X140897603Y-29478085D01*
X140899997Y-29479383D01*
X141831370Y-30006993D01*
X141833696Y-30008368D01*
X142745010Y-30569896D01*
X142747264Y-30571343D01*
X142878527Y-30659049D01*
X143637285Y-31166027D01*
X143639522Y-31167582D01*
X144507035Y-31794612D01*
X144509213Y-31796248D01*
X144911792Y-32110419D01*
X145353078Y-32454797D01*
X145355166Y-32456490D01*
X146174233Y-33145662D01*
X146176249Y-33147424D01*
X146518376Y-33457504D01*
X146969388Y-33866272D01*
X146971372Y-33868138D01*
X147391873Y-34278436D01*
X147737512Y-34615688D01*
X147739398Y-34617597D01*
X148066636Y-34961301D01*
X148477489Y-35392826D01*
X148479331Y-35394833D01*
X149188394Y-36196708D01*
X149190155Y-36198776D01*
X149757677Y-36890289D01*
X149869228Y-37026212D01*
X149870908Y-37028339D01*
X150519045Y-37880181D01*
X150520655Y-37882379D01*
X151137012Y-38757522D01*
X151138539Y-38759777D01*
X151722274Y-39657019D01*
X151723693Y-39659290D01*
X151952563Y-40041129D01*
X152274015Y-40577427D01*
X152275372Y-40579789D01*
X152791511Y-41517524D01*
X152792780Y-41519934D01*
X152926145Y-41784878D01*
X153101339Y-42132917D01*
X153274047Y-42476020D01*
X153275224Y-42478469D01*
X153414297Y-42782089D01*
X153720988Y-43451648D01*
X153722077Y-43454146D01*
X154131710Y-44443053D01*
X154132703Y-44445580D01*
X154404877Y-45177770D01*
X154430000Y-45245356D01*
X154430346Y-45295974D01*
X154398074Y-45334972D01*
X154391318Y-45338480D01*
X154357597Y-45353844D01*
X154355787Y-45354640D01*
X153562397Y-45690821D01*
X153559799Y-45691864D01*
X153367177Y-45765017D01*
X152738855Y-46003637D01*
X152736382Y-46004526D01*
X151893613Y-46290176D01*
X151891189Y-46290951D01*
X151032934Y-46548519D01*
X151030465Y-46549213D01*
X150925889Y-46576647D01*
X150163021Y-46776771D01*
X150160472Y-46777392D01*
X149290045Y-46973040D01*
X149287392Y-46973585D01*
X148420072Y-47135443D01*
X148417780Y-47135834D01*
X147910712Y-47214062D01*
X147908993Y-47214306D01*
X147348530Y-47287322D01*
X147346940Y-47287512D01*
X146774085Y-47349275D01*
X146772540Y-47349425D01*
X146638115Y-47361026D01*
X146197751Y-47399031D01*
X146196156Y-47399151D01*
X145863202Y-47420647D01*
X145629814Y-47435714D01*
X145628155Y-47435803D01*
X145413808Y-47444666D01*
X145080622Y-47458444D01*
X145078685Y-47458499D01*
X144559821Y-47466353D01*
X144558725Y-47466361D01*
X144363103Y-47466424D01*
X144128694Y-47466500D01*
X144129645Y-47473780D01*
X144129645Y-47473781D01*
X144135137Y-47515806D01*
X144143215Y-47577625D01*
X144198740Y-47944916D01*
X144318451Y-48524936D01*
X144474661Y-49086442D01*
X144666862Y-49628193D01*
X144667384Y-49629387D01*
X144667388Y-49629397D01*
X144874273Y-50102583D01*
X144894544Y-50148948D01*
X145157196Y-50647467D01*
X145454309Y-51122509D01*
X145785373Y-51572833D01*
X145797608Y-51588107D01*
X145912627Y-51723792D01*
X146050717Y-51875656D01*
X146203662Y-52035465D01*
X146363245Y-52194983D01*
X146521251Y-52345975D01*
X146521622Y-52346311D01*
X146664383Y-52475604D01*
X146669464Y-52480206D01*
X146799666Y-52589441D01*
X146800411Y-52590005D01*
X147017362Y-52754345D01*
X147017374Y-52754354D01*
X147018312Y-52755064D01*
X147434163Y-53029851D01*
X147435537Y-53030601D01*
X147435548Y-53030607D01*
X147691342Y-53170119D01*
X147868583Y-53266788D01*
X148042147Y-53349373D01*
X148361820Y-53485478D01*
X148362907Y-53485861D01*
X148362920Y-53485866D01*
X148550422Y-53551920D01*
X148674227Y-53595535D01*
X148675411Y-53595864D01*
X148675418Y-53595866D01*
X148785604Y-53626465D01*
X148992329Y-53683874D01*
X149095297Y-53705569D01*
X149328436Y-53754691D01*
X149328454Y-53754694D01*
X149329083Y-53754827D01*
X149329699Y-53754935D01*
X149329717Y-53754938D01*
X149343492Y-53757342D01*
X149363499Y-53760835D01*
X149363937Y-53760900D01*
X149363955Y-53760903D01*
X149425560Y-53770058D01*
X149425581Y-53770061D01*
X149426303Y-53770168D01*
X149427027Y-53770247D01*
X149427030Y-53770247D01*
X149461362Y-53773975D01*
X149492959Y-53777406D01*
X149493627Y-53777453D01*
X149493640Y-53777454D01*
X149546441Y-53781156D01*
X149568963Y-53782735D01*
X149569503Y-53782756D01*
X149569531Y-53782758D01*
X149659449Y-53786330D01*
X149659485Y-53786331D01*
X149659812Y-53786344D01*
X149712301Y-53787324D01*
X149770673Y-53788414D01*
X149770699Y-53788414D01*
X149771003Y-53788420D01*
X149771273Y-53788421D01*
X149771318Y-53788422D01*
X149855401Y-53788870D01*
X149908030Y-53789150D01*
X149908157Y-53789150D01*
X150076188Y-53788723D01*
X150076271Y-53788722D01*
X150076428Y-53788722D01*
X150281490Y-53787325D01*
X150281583Y-53787324D01*
X150281614Y-53787324D01*
X150446660Y-53785922D01*
X150446847Y-53785920D01*
X150446855Y-53785920D01*
X150530611Y-53785022D01*
X150614561Y-53784122D01*
X150750508Y-53781889D01*
X150750581Y-53781887D01*
X150750631Y-53781886D01*
X150859848Y-53778874D01*
X150859847Y-53778874D01*
X150860211Y-53778864D01*
X150949378Y-53774686D01*
X151023718Y-53768995D01*
X151088942Y-53761431D01*
X151108262Y-53758369D01*
X151150179Y-53751725D01*
X151150201Y-53751721D01*
X151150757Y-53751633D01*
X151214873Y-53739242D01*
X151215102Y-53739193D01*
X151215153Y-53739183D01*
X151286640Y-53723974D01*
X151286683Y-53723964D01*
X151287000Y-53723897D01*
X151361205Y-53706837D01*
X151365529Y-53705843D01*
X151365539Y-53705841D01*
X151366085Y-53705715D01*
X151565394Y-53653064D01*
X151566019Y-53652876D01*
X151566036Y-53652871D01*
X151692437Y-53614810D01*
X151779154Y-53588698D01*
X151993301Y-53517209D01*
X152193771Y-53443194D01*
X152366500Y-53371246D01*
X152367543Y-53370730D01*
X152367554Y-53370725D01*
X152734557Y-53189154D01*
X152735857Y-53188511D01*
X152737110Y-53187764D01*
X153154845Y-52938689D01*
X153154854Y-52938683D01*
X153156159Y-52937905D01*
X153557570Y-52651379D01*
X153938576Y-52330685D01*
X154096896Y-52174998D01*
X154296675Y-51978542D01*
X154296680Y-51978537D01*
X154297660Y-51977573D01*
X154298555Y-51976549D01*
X154298566Y-51976538D01*
X154632424Y-51594810D01*
X154633310Y-51593797D01*
X154898878Y-51241056D01*
X154943207Y-51182176D01*
X154943208Y-51182175D01*
X154944011Y-51181108D01*
X154981159Y-51123623D01*
X155227544Y-50742345D01*
X155228248Y-50741256D01*
X155366002Y-50491150D01*
X155483893Y-50277109D01*
X155483900Y-50277096D01*
X155484506Y-50275995D01*
X155542874Y-50150151D01*
X155573509Y-50084099D01*
X155609229Y-50048233D01*
X155659646Y-50043717D01*
X155701170Y-50072666D01*
X155713550Y-50102583D01*
X155743643Y-50275995D01*
X155807948Y-50646562D01*
X155808362Y-50649236D01*
X155828987Y-50801074D01*
X155952438Y-51709930D01*
X155952755Y-51712636D01*
X156000270Y-52194983D01*
X156055443Y-52755064D01*
X156057690Y-52777879D01*
X156057905Y-52780574D01*
X156067574Y-52937905D01*
X156123561Y-53848975D01*
X156123678Y-53851697D01*
X156149965Y-54921790D01*
X156149981Y-54924514D01*
X156139961Y-55742196D01*
X156136865Y-55994796D01*
X156136782Y-55997511D01*
X156125404Y-56229189D01*
X156084276Y-57066649D01*
X156084092Y-57069367D01*
X155992276Y-58135795D01*
X155991993Y-58138504D01*
X155860983Y-59200865D01*
X155860600Y-59203562D01*
X155690575Y-60260395D01*
X155690095Y-60263060D01*
X155484044Y-61299049D01*
X155481295Y-61312871D01*
X155480715Y-61315533D01*
X155233407Y-62356986D01*
X155232729Y-62359624D01*
X154947260Y-63391255D01*
X154946485Y-63393867D01*
X154923718Y-63465738D01*
X154627766Y-64400000D01*
X154623242Y-64414280D01*
X154622376Y-64416849D01*
X154262612Y-65422388D01*
X154261784Y-65424702D01*
X154260820Y-65427248D01*
X154145682Y-65715177D01*
X153863382Y-66421131D01*
X153862324Y-66423641D01*
X153428575Y-67402219D01*
X153427448Y-67404643D01*
X153244620Y-67779257D01*
X152957954Y-68366633D01*
X152956714Y-68369059D01*
X152452154Y-69313075D01*
X152450826Y-69315453D01*
X151911860Y-70240260D01*
X151910445Y-70242588D01*
X151337821Y-71146907D01*
X151336322Y-71149182D01*
X150730757Y-72031873D01*
X150729174Y-72034090D01*
X150091587Y-72893819D01*
X150089925Y-72895977D01*
X149421084Y-73731709D01*
X149419343Y-73733804D01*
X148758451Y-74500000D01*
X148720214Y-74544329D01*
X148718404Y-74546351D01*
X148108567Y-75202862D01*
X147989901Y-75330610D01*
X147988010Y-75332572D01*
X147231141Y-76089479D01*
X147229180Y-76091369D01*
X146444965Y-76819904D01*
X146442935Y-76821721D01*
X146062244Y-77150125D01*
X145731732Y-77435243D01*
X145632446Y-77520892D01*
X145630364Y-77522623D01*
X144794650Y-78191518D01*
X144792533Y-78193149D01*
X143951002Y-78817306D01*
X143932780Y-78830821D01*
X143930605Y-78832374D01*
X143074273Y-79419918D01*
X143062986Y-79426284D01*
X143044210Y-79434802D01*
X143042212Y-79436626D01*
X143036841Y-79439156D01*
X142996749Y-79478037D01*
X142995756Y-79479000D01*
X142994057Y-79480597D01*
X142993923Y-79480719D01*
X142944105Y-79500000D01*
X141830910Y-79500000D01*
X141783344Y-79482687D01*
X141758034Y-79438850D01*
X141762534Y-79397704D01*
X141785076Y-79343233D01*
X141787864Y-79336496D01*
X141787843Y-79276867D01*
X141785325Y-79264228D01*
X141728937Y-78981266D01*
X141736620Y-78931233D01*
X141753974Y-78910092D01*
X141764207Y-78901515D01*
X141854314Y-78801019D01*
X141860109Y-78792339D01*
X141918385Y-78670598D01*
X141921513Y-78660635D01*
X141943379Y-78526814D01*
X141943718Y-78517607D01*
X141938783Y-78461986D01*
X141938216Y-78458034D01*
X141931758Y-78425629D01*
X141926236Y-78416536D01*
X141920454Y-78414575D01*
X140964182Y-78605137D01*
X140914149Y-78597454D01*
X140880761Y-78559409D01*
X140877147Y-78547026D01*
X140827898Y-78299885D01*
X140835581Y-78249852D01*
X140873627Y-78216464D01*
X140886009Y-78212850D01*
X141838238Y-78023094D01*
X141847330Y-78017573D01*
X141849290Y-78011791D01*
X141842028Y-77975350D01*
X141841034Y-77971471D01*
X141824272Y-77918207D01*
X141820432Y-77909838D01*
X141748936Y-77794617D01*
X141742228Y-77786615D01*
X141641742Y-77696518D01*
X141633056Y-77690718D01*
X141511318Y-77632443D01*
X141498574Y-77628442D01*
X141458377Y-77597677D01*
X141448165Y-77572301D01*
X141444008Y-77551440D01*
X141451691Y-77501409D01*
X141469412Y-77479961D01*
X150389546Y-70101145D01*
X150437231Y-70084167D01*
X150473801Y-70094131D01*
X150623314Y-70180731D01*
X150679751Y-70199977D01*
X150719551Y-70197424D01*
X150752077Y-70195338D01*
X150752079Y-70195337D01*
X150759351Y-70194871D01*
X150765891Y-70191657D01*
X150765892Y-70191657D01*
X150824399Y-70162906D01*
X150824400Y-70162905D01*
X150830939Y-70159692D01*
X150835750Y-70154221D01*
X150835752Y-70154220D01*
X150867913Y-70117651D01*
X150867915Y-70117649D01*
X150870318Y-70114916D01*
X151021389Y-69854095D01*
X151060211Y-69821612D01*
X151087203Y-69817206D01*
X151100561Y-69817527D01*
X151234589Y-69801616D01*
X151244674Y-69798929D01*
X151368851Y-69746040D01*
X151377775Y-69740632D01*
X151482608Y-69654614D01*
X151488938Y-69647933D01*
X151521989Y-69602907D01*
X151524171Y-69599570D01*
X151540730Y-69570981D01*
X151542592Y-69560507D01*
X151539546Y-69555215D01*
X150695789Y-69066499D01*
X150663305Y-69027677D01*
X150663376Y-68977058D01*
X150668844Y-68965376D01*
X150795149Y-68747313D01*
X150833971Y-68714829D01*
X150884590Y-68714900D01*
X150896272Y-68720368D01*
X151736461Y-69207016D01*
X151746936Y-69208879D01*
X151752226Y-69205834D01*
X151770848Y-69173684D01*
X151772666Y-69170113D01*
X151795273Y-69119054D01*
X151797919Y-69110235D01*
X151820370Y-68976505D01*
X151820621Y-68966066D01*
X151804710Y-68832039D01*
X151802023Y-68821954D01*
X151749135Y-68697780D01*
X151742209Y-68686353D01*
X151732360Y-68636702D01*
X151741457Y-68610914D01*
X151892531Y-68350087D01*
X151911777Y-68293649D01*
X151908014Y-68235001D01*
X151907137Y-68221325D01*
X151907137Y-68221324D01*
X151906670Y-68214049D01*
X151886825Y-68173664D01*
X151881386Y-68123338D01*
X151900914Y-68088702D01*
X152370471Y-67619145D01*
X152381682Y-67609944D01*
X152398624Y-67598624D01*
X152403917Y-67590704D01*
X152416494Y-67571881D01*
X152447441Y-67525565D01*
X152447442Y-67525563D01*
X152455464Y-67513558D01*
X152455464Y-67513557D01*
X152459515Y-67507495D01*
X152475500Y-67427133D01*
X152475500Y-67427132D01*
X152480897Y-67400000D01*
X152476922Y-67380016D01*
X152475500Y-67365580D01*
X152475500Y-66859604D01*
X152492813Y-66812038D01*
X152510774Y-66796546D01*
X152522991Y-66789045D01*
X152619200Y-66682754D01*
X152681710Y-66553733D01*
X152705496Y-66412354D01*
X152705647Y-66400000D01*
X152685323Y-66258082D01*
X152625984Y-66127572D01*
X152532400Y-66018963D01*
X152527981Y-66016099D01*
X152527979Y-66016097D01*
X152482564Y-65986661D01*
X152412095Y-65940985D01*
X152308168Y-65909904D01*
X152279792Y-65901418D01*
X152279791Y-65901418D01*
X152274739Y-65899907D01*
X152201103Y-65899457D01*
X152136646Y-65899063D01*
X152136645Y-65899063D01*
X152131376Y-65899031D01*
X151993529Y-65938428D01*
X151872280Y-66014930D01*
X151777377Y-66122388D01*
X151775138Y-66127157D01*
X151767331Y-66143785D01*
X151731444Y-66179484D01*
X151681006Y-66183763D01*
X151639618Y-66154621D01*
X151632982Y-66142964D01*
X151628165Y-66132369D01*
X151625984Y-66127572D01*
X151532400Y-66018963D01*
X151527981Y-66016099D01*
X151527979Y-66016097D01*
X151482564Y-65986661D01*
X151412095Y-65940985D01*
X151407047Y-65939475D01*
X151407044Y-65939474D01*
X151278335Y-65900982D01*
X151237724Y-65870767D01*
X151226036Y-65821515D01*
X151247212Y-65777759D01*
X152103470Y-64921501D01*
X152149346Y-64900109D01*
X152157152Y-64899839D01*
X152212105Y-64900846D01*
X152262499Y-64901770D01*
X152267581Y-64900385D01*
X152267585Y-64900384D01*
X152395727Y-64865448D01*
X152395729Y-64865447D01*
X152400817Y-64864060D01*
X152522991Y-64789045D01*
X152619200Y-64682754D01*
X152681710Y-64553733D01*
X152705496Y-64412354D01*
X152705647Y-64400000D01*
X152685323Y-64258082D01*
X152625984Y-64127572D01*
X152532400Y-64018963D01*
X152527981Y-64016099D01*
X152527979Y-64016097D01*
X152460784Y-63972544D01*
X152412095Y-63940985D01*
X152308168Y-63909904D01*
X152279792Y-63901418D01*
X152279791Y-63901418D01*
X152274739Y-63899907D01*
X152201103Y-63899457D01*
X152136646Y-63899063D01*
X152136645Y-63899063D01*
X152131376Y-63899031D01*
X151993529Y-63938428D01*
X151872280Y-64014930D01*
X151777377Y-64122388D01*
X151716447Y-64252163D01*
X151694391Y-64393823D01*
X151695074Y-64399046D01*
X151695074Y-64399049D01*
X151699704Y-64434453D01*
X151688705Y-64483863D01*
X151678655Y-64496374D01*
X148626215Y-67548814D01*
X148623320Y-67551288D01*
X148620137Y-67552806D01*
X148590100Y-67584558D01*
X148586518Y-67588092D01*
X138403139Y-76972775D01*
X138400676Y-76974945D01*
X138363649Y-77006110D01*
X138360357Y-77012095D01*
X138349258Y-77032272D01*
X138343684Y-77040920D01*
X138329883Y-77059377D01*
X138329881Y-77059381D01*
X138325791Y-77064851D01*
X138323945Y-77071426D01*
X138323944Y-77071427D01*
X138322308Y-77077254D01*
X138315903Y-77092910D01*
X138309695Y-77104195D01*
X138308778Y-77110967D01*
X138305686Y-77133793D01*
X138303601Y-77143863D01*
X138295523Y-77172626D01*
X138296168Y-77179431D01*
X138296738Y-77185449D01*
X138296398Y-77202361D01*
X138294669Y-77215127D01*
X138295597Y-77221382D01*
X138296035Y-77223133D01*
X138301564Y-77245252D01*
X138303443Y-77256216D01*
X138306083Y-77284072D01*
X138309132Y-77290184D01*
X138312869Y-77297676D01*
X138318441Y-77312759D01*
X138695219Y-78819867D01*
X138696523Y-78827177D01*
X138696080Y-78832988D01*
X138698049Y-78839532D01*
X138698786Y-78846324D01*
X138698196Y-78846388D01*
X138699500Y-78855245D01*
X138699500Y-79165452D01*
X138698266Y-79178910D01*
X138694295Y-79200381D01*
X138694920Y-79206674D01*
X138704170Y-79253085D01*
X138704263Y-79253552D01*
X138704435Y-79254448D01*
X138714791Y-79310053D01*
X138715664Y-79311468D01*
X138716117Y-79313030D01*
X138735057Y-79408058D01*
X138735750Y-79411536D01*
X138728068Y-79461568D01*
X138690024Y-79494958D01*
X138663177Y-79500000D01*
X115336824Y-79500000D01*
X115289258Y-79482687D01*
X115263948Y-79438850D01*
X115264251Y-79411536D01*
X115265153Y-79407013D01*
X115284477Y-79310053D01*
X115287954Y-79292609D01*
X115291794Y-79279654D01*
X115297948Y-79264228D01*
X115299883Y-79259378D01*
X115300500Y-79253085D01*
X115300500Y-79205319D01*
X115300506Y-79204386D01*
X115300557Y-79200381D01*
X115301219Y-79147815D01*
X115300640Y-79146255D01*
X115300500Y-79144631D01*
X115300500Y-78846106D01*
X115302709Y-78828158D01*
X115493540Y-78064833D01*
X115689292Y-77281826D01*
X115690163Y-77278649D01*
X115703995Y-77232287D01*
X115703461Y-77225477D01*
X115703461Y-77225474D01*
X115701659Y-77202511D01*
X115701569Y-77192224D01*
X115702970Y-77169224D01*
X115702970Y-77169222D01*
X115703385Y-77162406D01*
X115701318Y-77155897D01*
X115701318Y-77155893D01*
X115699487Y-77150125D01*
X115696245Y-77133527D01*
X115695772Y-77127498D01*
X115695772Y-77127497D01*
X115695237Y-77120685D01*
X115690584Y-77110967D01*
X115682337Y-77093747D01*
X115678547Y-77084176D01*
X115676350Y-77077254D01*
X115669510Y-77055710D01*
X115661450Y-77045654D01*
X115652453Y-77031339D01*
X115649142Y-77024424D01*
X115646889Y-77019719D01*
X115642680Y-77015000D01*
X115633034Y-77006110D01*
X115624589Y-76998328D01*
X115616996Y-76990194D01*
X115603768Y-76973691D01*
X115599496Y-76968361D01*
X115586352Y-76960715D01*
X115573416Y-76951169D01*
X115518113Y-76900203D01*
X113666509Y-75193823D01*
X138694391Y-75193823D01*
X138695074Y-75199046D01*
X138695074Y-75199049D01*
X138695573Y-75202862D01*
X138712980Y-75335979D01*
X138770720Y-75467203D01*
X138774112Y-75471238D01*
X138859580Y-75572916D01*
X138859583Y-75572919D01*
X138862970Y-75576948D01*
X138867357Y-75579868D01*
X138977924Y-75653469D01*
X138977927Y-75653470D01*
X138982313Y-75656390D01*
X139119157Y-75699142D01*
X139124425Y-75699239D01*
X139124428Y-75699239D01*
X139184733Y-75700344D01*
X139262499Y-75701770D01*
X139267582Y-75700384D01*
X139267584Y-75700384D01*
X139395727Y-75665448D01*
X139395729Y-75665447D01*
X139400817Y-75664060D01*
X139522991Y-75589045D01*
X139619200Y-75482754D01*
X139681710Y-75353733D01*
X139705496Y-75212354D01*
X139705647Y-75200000D01*
X139685323Y-75058082D01*
X139683143Y-75053287D01*
X139683142Y-75053284D01*
X139682978Y-75052924D01*
X139682957Y-75052652D01*
X139681662Y-75048224D01*
X139682591Y-75047952D01*
X139679054Y-75002458D01*
X139708487Y-74961276D01*
X139757505Y-74948647D01*
X139780121Y-74954931D01*
X139782313Y-74956390D01*
X139919157Y-74999142D01*
X139924425Y-74999239D01*
X139924428Y-74999239D01*
X139984733Y-75000344D01*
X140062499Y-75001770D01*
X140067582Y-75000384D01*
X140067584Y-75000384D01*
X140195727Y-74965448D01*
X140195729Y-74965447D01*
X140200817Y-74964060D01*
X140268687Y-74922388D01*
X140318498Y-74891804D01*
X140318499Y-74891803D01*
X140322991Y-74889045D01*
X140419200Y-74782754D01*
X140481710Y-74653733D01*
X140505496Y-74512354D01*
X140505647Y-74500000D01*
X140485323Y-74358082D01*
X140425984Y-74227572D01*
X140332400Y-74118963D01*
X140327982Y-74116099D01*
X140327977Y-74116095D01*
X140309250Y-74103957D01*
X140278752Y-74063557D01*
X140275500Y-74041861D01*
X140275500Y-71344768D01*
X140292813Y-71297202D01*
X140297174Y-71292442D01*
X140368752Y-71220864D01*
X140414628Y-71199472D01*
X140422433Y-71199202D01*
X140562499Y-71201770D01*
X140567582Y-71200384D01*
X140567584Y-71200384D01*
X140695727Y-71165448D01*
X140695729Y-71165447D01*
X140700817Y-71164060D01*
X140794112Y-71106777D01*
X140818498Y-71091804D01*
X140818499Y-71091803D01*
X140822991Y-71089045D01*
X140919200Y-70982754D01*
X140981710Y-70853733D01*
X141005496Y-70712354D01*
X141005647Y-70700000D01*
X140998796Y-70652163D01*
X140986070Y-70563297D01*
X140986070Y-70563296D01*
X140985323Y-70558082D01*
X140925984Y-70427572D01*
X140851597Y-70341242D01*
X140835840Y-70322955D01*
X140835839Y-70322954D01*
X140832400Y-70318963D01*
X140827981Y-70316099D01*
X140827979Y-70316097D01*
X140788068Y-70290228D01*
X140712095Y-70240985D01*
X140608168Y-70209904D01*
X140579792Y-70201418D01*
X140579791Y-70201418D01*
X140574739Y-70199907D01*
X140501103Y-70199457D01*
X140436646Y-70199063D01*
X140436645Y-70199063D01*
X140431376Y-70199031D01*
X140293529Y-70238428D01*
X140172280Y-70314930D01*
X140150603Y-70339475D01*
X140083964Y-70414930D01*
X140077377Y-70422388D01*
X140016447Y-70552163D01*
X139994391Y-70693823D01*
X139995074Y-70699046D01*
X139995074Y-70699050D01*
X140003792Y-70765721D01*
X139992793Y-70815130D01*
X139982743Y-70827641D01*
X139829529Y-70980855D01*
X139818318Y-70990056D01*
X139801376Y-71001376D01*
X139801375Y-71001377D01*
X139799736Y-70998923D01*
X139765297Y-71014982D01*
X139716402Y-71001881D01*
X139687368Y-70960417D01*
X139685873Y-70928988D01*
X139705496Y-70812354D01*
X139705647Y-70800000D01*
X139690921Y-70697172D01*
X139686070Y-70663297D01*
X139686070Y-70663296D01*
X139685323Y-70658082D01*
X139625984Y-70527572D01*
X139539818Y-70427572D01*
X139535840Y-70422955D01*
X139535839Y-70422954D01*
X139532400Y-70418963D01*
X139527981Y-70416099D01*
X139527979Y-70416097D01*
X139488068Y-70390228D01*
X139412095Y-70340985D01*
X139308168Y-70309904D01*
X139279792Y-70301418D01*
X139279791Y-70301418D01*
X139274739Y-70299907D01*
X139201103Y-70299457D01*
X139136646Y-70299063D01*
X139136645Y-70299063D01*
X139131376Y-70299031D01*
X138993529Y-70338428D01*
X138872280Y-70414930D01*
X138777377Y-70522388D01*
X138716447Y-70652163D01*
X138694391Y-70793823D01*
X138695074Y-70799046D01*
X138695074Y-70799049D01*
X138695573Y-70802862D01*
X138712980Y-70935979D01*
X138770720Y-71067203D01*
X138793063Y-71093783D01*
X138859580Y-71172916D01*
X138859583Y-71172919D01*
X138862970Y-71176948D01*
X138867357Y-71179868D01*
X138891505Y-71195943D01*
X138921508Y-71236713D01*
X138924500Y-71257543D01*
X138924500Y-74741174D01*
X138907187Y-74788740D01*
X138889988Y-74803757D01*
X138872280Y-74814930D01*
X138777377Y-74922388D01*
X138716447Y-75052163D01*
X138694391Y-75193823D01*
X113666509Y-75193823D01*
X106504805Y-68593823D01*
X115494391Y-68593823D01*
X115495074Y-68599046D01*
X115495074Y-68599049D01*
X115495573Y-68602862D01*
X115512980Y-68735979D01*
X115570720Y-68867203D01*
X115574112Y-68871238D01*
X115659580Y-68972916D01*
X115659583Y-68972919D01*
X115662970Y-68976948D01*
X115667357Y-68979868D01*
X115777924Y-69053469D01*
X115777927Y-69053470D01*
X115782313Y-69056390D01*
X115919157Y-69099142D01*
X115924425Y-69099239D01*
X115924428Y-69099239D01*
X116047212Y-69101490D01*
X116098181Y-69123152D01*
X116548930Y-69573901D01*
X116552515Y-69578054D01*
X116554575Y-69582269D01*
X116587298Y-69612624D01*
X116591181Y-69616226D01*
X116593181Y-69618152D01*
X116607277Y-69632248D01*
X116610088Y-69634176D01*
X116612707Y-69636353D01*
X116612597Y-69636485D01*
X116615773Y-69639039D01*
X116626237Y-69648745D01*
X116636646Y-69658401D01*
X116649919Y-69663696D01*
X116664355Y-69671404D01*
X116676146Y-69679493D01*
X116698319Y-69684755D01*
X116703848Y-69686067D01*
X116714181Y-69689335D01*
X116735769Y-69697947D01*
X116740622Y-69699883D01*
X116746915Y-69700500D01*
X116756008Y-69700500D01*
X116773094Y-69702500D01*
X116778414Y-69703762D01*
X116778417Y-69703762D01*
X116785066Y-69705340D01*
X116791834Y-69704419D01*
X116791837Y-69704419D01*
X116815663Y-69701176D01*
X116825642Y-69700500D01*
X126964241Y-69700500D01*
X127011807Y-69717813D01*
X127020887Y-69726884D01*
X127059580Y-69772916D01*
X127059583Y-69772919D01*
X127062970Y-69776948D01*
X127100028Y-69801616D01*
X127177924Y-69853469D01*
X127177927Y-69853470D01*
X127182313Y-69856390D01*
X127319157Y-69899142D01*
X127324425Y-69899239D01*
X127324428Y-69899239D01*
X127384733Y-69900344D01*
X127462499Y-69901770D01*
X127467582Y-69900384D01*
X127467584Y-69900384D01*
X127595727Y-69865448D01*
X127595729Y-69865447D01*
X127600817Y-69864060D01*
X127669950Y-69821612D01*
X127718498Y-69791804D01*
X127718499Y-69791803D01*
X127722991Y-69789045D01*
X127766812Y-69740632D01*
X127781105Y-69724841D01*
X127825861Y-69701194D01*
X127835968Y-69700500D01*
X142445433Y-69700500D01*
X142450906Y-69700902D01*
X142455342Y-69702425D01*
X142462166Y-69702169D01*
X142462167Y-69702169D01*
X142505241Y-69700552D01*
X142508017Y-69700500D01*
X142527948Y-69700500D01*
X142531300Y-69699876D01*
X142534691Y-69699563D01*
X142534709Y-69699753D01*
X142538755Y-69699294D01*
X142567208Y-69698226D01*
X142573485Y-69695529D01*
X142573490Y-69695528D01*
X142580343Y-69692584D01*
X142596002Y-69687826D01*
X142603336Y-69686460D01*
X142610053Y-69685209D01*
X142615868Y-69681624D01*
X142615872Y-69681623D01*
X142634290Y-69670270D01*
X142643907Y-69665274D01*
X142665262Y-69656099D01*
X142665264Y-69656098D01*
X142670063Y-69654036D01*
X142674949Y-69650022D01*
X142681380Y-69643591D01*
X142694876Y-69632923D01*
X142699532Y-69630053D01*
X142705348Y-69626468D01*
X142724039Y-69601888D01*
X142730617Y-69594354D01*
X146103470Y-66221501D01*
X146149346Y-66200109D01*
X146157152Y-66199839D01*
X146212105Y-66200846D01*
X146262499Y-66201770D01*
X146267581Y-66200385D01*
X146267585Y-66200384D01*
X146395727Y-66165448D01*
X146395729Y-66165447D01*
X146400817Y-66164060D01*
X146468687Y-66122388D01*
X146518498Y-66091804D01*
X146518499Y-66091803D01*
X146522991Y-66089045D01*
X146619200Y-65982754D01*
X146681710Y-65853733D01*
X146705496Y-65712354D01*
X146705647Y-65700000D01*
X146685323Y-65558082D01*
X146625984Y-65427572D01*
X146532400Y-65318963D01*
X146527981Y-65316099D01*
X146527979Y-65316097D01*
X146488068Y-65290228D01*
X146412095Y-65240985D01*
X146308168Y-65209904D01*
X146279792Y-65201418D01*
X146279791Y-65201418D01*
X146274739Y-65199907D01*
X146201103Y-65199457D01*
X146136646Y-65199063D01*
X146136645Y-65199063D01*
X146131376Y-65199031D01*
X145993529Y-65238428D01*
X145872280Y-65314930D01*
X145777377Y-65422388D01*
X145716447Y-65552163D01*
X145694391Y-65693823D01*
X145695074Y-65699046D01*
X145695074Y-65699049D01*
X145699704Y-65734453D01*
X145688705Y-65783863D01*
X145678655Y-65796374D01*
X142397203Y-69077826D01*
X142351327Y-69099218D01*
X142344877Y-69099500D01*
X127835714Y-69099500D01*
X127788148Y-69082187D01*
X127779654Y-69073804D01*
X127735840Y-69022955D01*
X127735839Y-69022954D01*
X127732400Y-69018963D01*
X127727981Y-69016099D01*
X127727979Y-69016097D01*
X127672084Y-68979868D01*
X127612095Y-68940985D01*
X127503024Y-68908366D01*
X127479792Y-68901418D01*
X127479791Y-68901418D01*
X127474739Y-68899907D01*
X127401103Y-68899457D01*
X127336646Y-68899063D01*
X127336645Y-68899063D01*
X127331376Y-68899031D01*
X127193529Y-68938428D01*
X127072280Y-69014930D01*
X127049896Y-69040275D01*
X127019683Y-69074485D01*
X126975219Y-69098678D01*
X126964217Y-69099500D01*
X116955123Y-69099500D01*
X116907557Y-69082187D01*
X116902797Y-69077826D01*
X116522657Y-68697686D01*
X116501265Y-68651810D01*
X116502008Y-68633084D01*
X116505496Y-68612354D01*
X116505647Y-68600000D01*
X116504017Y-68588616D01*
X116486070Y-68463297D01*
X116486070Y-68463296D01*
X116485323Y-68458082D01*
X116482445Y-68451751D01*
X116428166Y-68332371D01*
X116425984Y-68327572D01*
X116332400Y-68218963D01*
X116327981Y-68216099D01*
X116327979Y-68216097D01*
X116270623Y-68178921D01*
X116212095Y-68140985D01*
X116085359Y-68103083D01*
X116079792Y-68101418D01*
X116079791Y-68101418D01*
X116074739Y-68099907D01*
X116001103Y-68099457D01*
X115936646Y-68099063D01*
X115936645Y-68099063D01*
X115931376Y-68099031D01*
X115793529Y-68138428D01*
X115672280Y-68214930D01*
X115577377Y-68322388D01*
X115516447Y-68452163D01*
X115494391Y-68593823D01*
X106504805Y-68593823D01*
X105481031Y-67650345D01*
X105460027Y-67616259D01*
X105459380Y-67613993D01*
X103653617Y-61293823D01*
X119294391Y-61293823D01*
X119295074Y-61299046D01*
X119295074Y-61299049D01*
X119297230Y-61315533D01*
X119312980Y-61435979D01*
X119370720Y-61567203D01*
X119374112Y-61571238D01*
X119459580Y-61672916D01*
X119459583Y-61672919D01*
X119462970Y-61676948D01*
X119467357Y-61679868D01*
X119577924Y-61753469D01*
X119577927Y-61753470D01*
X119582313Y-61756390D01*
X119719157Y-61799142D01*
X119724426Y-61799239D01*
X119724428Y-61799239D01*
X119781360Y-61800283D01*
X119832329Y-61821945D01*
X121939406Y-63929022D01*
X121948607Y-63940233D01*
X121959927Y-63957175D01*
X121982928Y-63972544D01*
X121982929Y-63972545D01*
X122009086Y-63990022D01*
X122051056Y-64018066D01*
X122095922Y-64026990D01*
X122131416Y-64034051D01*
X122131419Y-64034051D01*
X122158551Y-64039448D01*
X122178535Y-64035473D01*
X122192971Y-64034051D01*
X143207029Y-64034051D01*
X143221465Y-64035473D01*
X143241449Y-64039448D01*
X143268581Y-64034051D01*
X143268584Y-64034051D01*
X143304078Y-64026990D01*
X143348944Y-64018066D01*
X143390914Y-63990022D01*
X143417071Y-63972545D01*
X143417072Y-63972544D01*
X143440073Y-63957175D01*
X143451393Y-63940233D01*
X143460594Y-63929022D01*
X144368752Y-63020864D01*
X144414628Y-62999472D01*
X144422433Y-62999202D01*
X144562499Y-63001770D01*
X144567582Y-63000384D01*
X144567584Y-63000384D01*
X144695727Y-62965448D01*
X144695729Y-62965447D01*
X144700817Y-62964060D01*
X144822991Y-62889045D01*
X144919200Y-62782754D01*
X144981710Y-62653733D01*
X145005496Y-62512354D01*
X145005647Y-62500000D01*
X144985323Y-62358082D01*
X144937946Y-62253880D01*
X144928166Y-62232371D01*
X144925984Y-62227572D01*
X144845411Y-62134063D01*
X144835840Y-62122955D01*
X144835839Y-62122954D01*
X144832400Y-62118963D01*
X144827981Y-62116099D01*
X144827979Y-62116097D01*
X144788068Y-62090228D01*
X144712095Y-62040985D01*
X144608168Y-62009904D01*
X144579792Y-62001418D01*
X144579791Y-62001418D01*
X144574739Y-61999907D01*
X144501103Y-61999457D01*
X144436646Y-61999063D01*
X144436645Y-61999063D01*
X144431376Y-61999031D01*
X144293529Y-62038428D01*
X144172280Y-62114930D01*
X144077377Y-62222388D01*
X144016447Y-62352163D01*
X143994391Y-62493823D01*
X143995074Y-62499046D01*
X143995074Y-62499050D01*
X144003792Y-62565721D01*
X143992793Y-62615130D01*
X143982743Y-62627641D01*
X143149007Y-63461377D01*
X143103131Y-63482769D01*
X143096681Y-63483051D01*
X142585217Y-63483051D01*
X142537651Y-63465738D01*
X142512341Y-63421901D01*
X142521131Y-63372051D01*
X142532891Y-63356725D01*
X142868752Y-63020864D01*
X142914628Y-62999472D01*
X142922433Y-62999202D01*
X143062499Y-63001770D01*
X143067582Y-63000384D01*
X143067584Y-63000384D01*
X143195727Y-62965448D01*
X143195729Y-62965447D01*
X143200817Y-62964060D01*
X143322991Y-62889045D01*
X143419200Y-62782754D01*
X143481710Y-62653733D01*
X143505496Y-62512354D01*
X143505647Y-62500000D01*
X143485323Y-62358082D01*
X143437946Y-62253880D01*
X143428166Y-62232371D01*
X143425984Y-62227572D01*
X143345411Y-62134063D01*
X143335840Y-62122955D01*
X143335839Y-62122954D01*
X143332400Y-62118963D01*
X143327981Y-62116099D01*
X143327979Y-62116097D01*
X143288068Y-62090228D01*
X143212095Y-62040985D01*
X143108168Y-62009904D01*
X143079792Y-62001418D01*
X143079791Y-62001418D01*
X143074739Y-61999907D01*
X143001103Y-61999457D01*
X142936646Y-61999063D01*
X142936645Y-61999063D01*
X142931376Y-61999031D01*
X142793529Y-62038428D01*
X142672280Y-62114930D01*
X142577377Y-62222388D01*
X142516447Y-62352163D01*
X142494391Y-62493823D01*
X142495074Y-62499046D01*
X142495074Y-62499050D01*
X142503792Y-62565721D01*
X142492793Y-62615130D01*
X142482743Y-62627641D01*
X141948527Y-63161857D01*
X141902651Y-63183249D01*
X141896201Y-63183531D01*
X141384737Y-63183531D01*
X141337171Y-63166218D01*
X141311861Y-63122381D01*
X141320651Y-63072531D01*
X141332411Y-63057205D01*
X141368752Y-63020864D01*
X141414628Y-62999472D01*
X141422433Y-62999202D01*
X141562499Y-63001770D01*
X141567582Y-63000384D01*
X141567584Y-63000384D01*
X141695727Y-62965448D01*
X141695729Y-62965447D01*
X141700817Y-62964060D01*
X141822991Y-62889045D01*
X141919200Y-62782754D01*
X141981710Y-62653733D01*
X142005496Y-62512354D01*
X142005647Y-62500000D01*
X141985323Y-62358082D01*
X141937946Y-62253880D01*
X141928166Y-62232371D01*
X141925984Y-62227572D01*
X141845411Y-62134063D01*
X141835840Y-62122955D01*
X141835839Y-62122954D01*
X141832400Y-62118963D01*
X141827981Y-62116099D01*
X141827979Y-62116097D01*
X141788068Y-62090228D01*
X141712095Y-62040985D01*
X141608168Y-62009904D01*
X141579792Y-62001418D01*
X141579791Y-62001418D01*
X141574739Y-61999907D01*
X141501103Y-61999457D01*
X141436646Y-61999063D01*
X141436645Y-61999063D01*
X141431376Y-61999031D01*
X141293529Y-62038428D01*
X141172280Y-62114930D01*
X141077377Y-62222388D01*
X141016447Y-62352163D01*
X140994391Y-62493823D01*
X140995074Y-62499046D01*
X140995074Y-62499050D01*
X141003792Y-62565721D01*
X140992793Y-62615130D01*
X140982743Y-62627641D01*
X140748047Y-62862337D01*
X140702171Y-62883729D01*
X140695721Y-62884011D01*
X140416811Y-62884011D01*
X140369245Y-62866698D01*
X140343935Y-62822861D01*
X140346156Y-62789877D01*
X140346710Y-62788733D01*
X140370496Y-62647354D01*
X140370647Y-62635000D01*
X140351724Y-62502862D01*
X140351070Y-62498297D01*
X140351070Y-62498296D01*
X140350323Y-62493082D01*
X140290984Y-62362572D01*
X140197400Y-62253963D01*
X140192981Y-62251099D01*
X140192979Y-62251097D01*
X140142590Y-62218437D01*
X140077095Y-62175985D01*
X139973168Y-62144904D01*
X139944792Y-62136418D01*
X139944791Y-62136418D01*
X139939739Y-62134907D01*
X139866103Y-62134457D01*
X139801646Y-62134063D01*
X139801645Y-62134063D01*
X139796376Y-62134031D01*
X139658529Y-62173428D01*
X139537280Y-62249930D01*
X139530193Y-62257955D01*
X139446001Y-62353285D01*
X139442377Y-62357388D01*
X139440138Y-62362157D01*
X139440136Y-62362160D01*
X139383895Y-62481949D01*
X139348008Y-62517648D01*
X139316910Y-62524500D01*
X124144768Y-62524500D01*
X124097202Y-62507187D01*
X124092442Y-62502826D01*
X122917565Y-61327949D01*
X122896173Y-61282073D01*
X122896917Y-61263346D01*
X122905021Y-61215177D01*
X122905496Y-61212354D01*
X122905647Y-61200000D01*
X122898796Y-61152163D01*
X122886070Y-61063297D01*
X122886070Y-61063296D01*
X122885323Y-61058082D01*
X122825984Y-60927572D01*
X122751597Y-60841242D01*
X122735840Y-60822955D01*
X122735839Y-60822954D01*
X122732400Y-60818963D01*
X122727981Y-60816099D01*
X122727979Y-60816097D01*
X122660937Y-60772643D01*
X122612095Y-60740985D01*
X122508168Y-60709904D01*
X122479792Y-60701418D01*
X122479791Y-60701418D01*
X122474739Y-60699907D01*
X122401103Y-60699457D01*
X122336646Y-60699063D01*
X122336645Y-60699063D01*
X122331376Y-60699031D01*
X122193529Y-60738428D01*
X122072280Y-60814930D01*
X122034170Y-60858082D01*
X122010592Y-60884779D01*
X121966128Y-60908972D01*
X121916516Y-60898923D01*
X121885337Y-60858180D01*
X121885323Y-60858082D01*
X121825984Y-60727572D01*
X121732400Y-60618963D01*
X121727981Y-60616099D01*
X121727979Y-60616097D01*
X121688068Y-60590228D01*
X121612095Y-60540985D01*
X121508168Y-60509904D01*
X121479792Y-60501418D01*
X121479791Y-60501418D01*
X121474739Y-60499907D01*
X121401103Y-60499457D01*
X121336646Y-60499063D01*
X121336645Y-60499063D01*
X121331376Y-60499031D01*
X121193529Y-60538428D01*
X121072280Y-60614930D01*
X121065193Y-60622955D01*
X120997260Y-60699875D01*
X120977377Y-60722388D01*
X120975138Y-60727157D01*
X120975136Y-60727160D01*
X120968171Y-60741995D01*
X120932284Y-60777695D01*
X120881846Y-60781974D01*
X120860939Y-60772644D01*
X120832602Y-60754277D01*
X120816517Y-60743851D01*
X120816516Y-60743851D01*
X120812095Y-60740985D01*
X120708168Y-60709904D01*
X120679792Y-60701418D01*
X120679791Y-60701418D01*
X120674739Y-60699907D01*
X120601103Y-60699457D01*
X120536646Y-60699063D01*
X120536645Y-60699063D01*
X120531376Y-60699031D01*
X120393529Y-60738428D01*
X120272280Y-60814930D01*
X120268794Y-60818878D01*
X120268792Y-60818879D01*
X120205136Y-60890957D01*
X120160672Y-60915150D01*
X120109421Y-60904069D01*
X120079661Y-60884779D01*
X120055644Y-60869212D01*
X120016517Y-60843851D01*
X120016516Y-60843850D01*
X120012095Y-60840985D01*
X119908168Y-60809904D01*
X119879792Y-60801418D01*
X119879791Y-60801418D01*
X119874739Y-60799907D01*
X119801103Y-60799457D01*
X119736646Y-60799063D01*
X119736645Y-60799063D01*
X119731376Y-60799031D01*
X119593529Y-60838428D01*
X119472280Y-60914930D01*
X119464642Y-60923579D01*
X119386239Y-61012354D01*
X119377377Y-61022388D01*
X119316447Y-61152163D01*
X119294391Y-61293823D01*
X103653617Y-61293823D01*
X102312541Y-56600057D01*
X115300625Y-56600057D01*
X115301308Y-56605280D01*
X115301308Y-56605283D01*
X115304030Y-56626099D01*
X115319214Y-56742213D01*
X115376954Y-56873437D01*
X115380346Y-56877472D01*
X115465814Y-56979150D01*
X115465817Y-56979153D01*
X115469204Y-56983182D01*
X115473591Y-56986102D01*
X115584158Y-57059703D01*
X115584161Y-57059704D01*
X115588547Y-57062624D01*
X115725391Y-57105376D01*
X115730659Y-57105473D01*
X115730662Y-57105473D01*
X115790967Y-57106578D01*
X115868733Y-57108004D01*
X115878017Y-57105473D01*
X115893777Y-57101176D01*
X115901425Y-57099091D01*
X115937400Y-57098598D01*
X115940622Y-57099883D01*
X115946915Y-57100500D01*
X115956008Y-57100500D01*
X115973094Y-57102500D01*
X115978414Y-57103762D01*
X115978417Y-57103762D01*
X115985066Y-57105340D01*
X115991834Y-57104419D01*
X115991837Y-57104419D01*
X116015663Y-57101176D01*
X116025642Y-57100500D01*
X127764241Y-57100500D01*
X127811807Y-57117813D01*
X127820887Y-57126884D01*
X127859580Y-57172916D01*
X127859583Y-57172919D01*
X127862970Y-57176948D01*
X127881143Y-57189045D01*
X127977924Y-57253469D01*
X127977927Y-57253470D01*
X127982313Y-57256390D01*
X128119157Y-57299142D01*
X128124425Y-57299239D01*
X128124428Y-57299239D01*
X128184733Y-57300344D01*
X128262499Y-57301770D01*
X128267582Y-57300384D01*
X128267584Y-57300384D01*
X128395727Y-57265448D01*
X128395729Y-57265447D01*
X128400817Y-57264060D01*
X128485029Y-57212354D01*
X128518498Y-57191804D01*
X128518499Y-57191803D01*
X128522991Y-57189045D01*
X128581105Y-57124841D01*
X128625861Y-57101194D01*
X128635968Y-57100500D01*
X147222508Y-57100500D01*
X147270074Y-57117813D01*
X147295384Y-57161650D01*
X147295627Y-57185884D01*
X147294391Y-57193823D01*
X147295074Y-57199046D01*
X147295074Y-57199049D01*
X147295573Y-57202862D01*
X147312980Y-57335979D01*
X147370720Y-57467203D01*
X147374112Y-57471238D01*
X147459580Y-57572916D01*
X147459583Y-57572919D01*
X147462970Y-57576948D01*
X147467357Y-57579868D01*
X147577924Y-57653469D01*
X147577927Y-57653470D01*
X147582313Y-57656390D01*
X147719157Y-57699142D01*
X147724425Y-57699239D01*
X147724428Y-57699239D01*
X147784733Y-57700344D01*
X147862499Y-57701770D01*
X147867582Y-57700384D01*
X147867584Y-57700384D01*
X147995727Y-57665448D01*
X147995729Y-57665447D01*
X148000817Y-57664060D01*
X148122991Y-57589045D01*
X148219200Y-57482754D01*
X148281710Y-57353733D01*
X148305496Y-57212354D01*
X148305647Y-57200000D01*
X148292472Y-57108004D01*
X148286070Y-57063297D01*
X148286070Y-57063296D01*
X148285323Y-57058082D01*
X148225984Y-56927572D01*
X148132400Y-56818963D01*
X148127981Y-56816099D01*
X148127979Y-56816097D01*
X148088068Y-56790228D01*
X148012095Y-56740985D01*
X147908168Y-56709904D01*
X147879792Y-56701418D01*
X147879791Y-56701418D01*
X147874739Y-56699907D01*
X147824752Y-56699602D01*
X147754343Y-56699171D01*
X147706883Y-56681567D01*
X147702469Y-56677498D01*
X147651070Y-56626099D01*
X147647485Y-56621946D01*
X147645425Y-56617731D01*
X147608818Y-56583773D01*
X147606819Y-56581848D01*
X147592723Y-56567752D01*
X147589912Y-56565824D01*
X147587293Y-56563647D01*
X147587403Y-56563515D01*
X147584227Y-56560961D01*
X147568364Y-56546246D01*
X147568363Y-56546245D01*
X147563354Y-56541599D01*
X147557012Y-56539069D01*
X147557006Y-56539065D01*
X147550077Y-56536301D01*
X147535641Y-56528593D01*
X147529493Y-56524376D01*
X147529492Y-56524375D01*
X147523854Y-56520508D01*
X147517204Y-56518930D01*
X147517202Y-56518929D01*
X147496160Y-56513936D01*
X147485824Y-56510668D01*
X147483932Y-56509913D01*
X147459378Y-56500117D01*
X147453085Y-56499500D01*
X147443988Y-56499500D01*
X147426901Y-56497500D01*
X147421585Y-56496238D01*
X147421583Y-56496238D01*
X147414934Y-56494660D01*
X147394066Y-56497500D01*
X147384337Y-56498824D01*
X147374358Y-56499500D01*
X128635714Y-56499500D01*
X128588148Y-56482187D01*
X128579654Y-56473804D01*
X128535840Y-56422955D01*
X128535839Y-56422954D01*
X128532400Y-56418963D01*
X128527981Y-56416099D01*
X128527979Y-56416097D01*
X128472107Y-56379883D01*
X128412095Y-56340985D01*
X128298012Y-56306867D01*
X128279792Y-56301418D01*
X128279791Y-56301418D01*
X128274739Y-56299907D01*
X128201103Y-56299457D01*
X128136646Y-56299063D01*
X128136645Y-56299063D01*
X128131376Y-56299031D01*
X127993529Y-56338428D01*
X127872280Y-56414930D01*
X127838127Y-56453601D01*
X127819683Y-56474485D01*
X127775219Y-56498678D01*
X127764217Y-56499500D01*
X116355198Y-56499500D01*
X116307632Y-56482187D01*
X116287834Y-56456128D01*
X116234400Y-56338605D01*
X116232218Y-56333806D01*
X116138634Y-56225197D01*
X116134215Y-56222333D01*
X116134213Y-56222331D01*
X116082912Y-56189080D01*
X116018329Y-56147219D01*
X115914402Y-56116138D01*
X115886026Y-56107652D01*
X115886025Y-56107652D01*
X115880973Y-56106141D01*
X115807337Y-56105691D01*
X115742880Y-56105297D01*
X115742879Y-56105297D01*
X115737610Y-56105265D01*
X115599763Y-56144662D01*
X115478514Y-56221164D01*
X115441962Y-56262552D01*
X115396418Y-56314121D01*
X115383611Y-56328622D01*
X115322681Y-56458397D01*
X115321871Y-56463602D01*
X115321870Y-56463604D01*
X115312408Y-56524376D01*
X115300625Y-56600057D01*
X102312541Y-56600057D01*
X101917296Y-55216701D01*
X101916929Y-55177379D01*
X104220774Y-46504080D01*
X127694646Y-46504080D01*
X127696579Y-46734453D01*
X127696584Y-46734687D01*
X127696585Y-46734731D01*
X127701620Y-46954789D01*
X127701626Y-46955050D01*
X127701636Y-46955289D01*
X127701637Y-46955333D01*
X127706128Y-47066857D01*
X127709788Y-47157762D01*
X127709816Y-47158195D01*
X127709816Y-47158202D01*
X127713390Y-47214194D01*
X127721066Y-47334476D01*
X127721133Y-47335144D01*
X127721134Y-47335151D01*
X127735268Y-47475176D01*
X127735460Y-47477083D01*
X127762184Y-47669824D01*
X127762292Y-47670439D01*
X127762296Y-47670464D01*
X127859507Y-48223653D01*
X127859693Y-48224710D01*
X127984602Y-48751390D01*
X128138082Y-49253858D01*
X128138516Y-49254999D01*
X128138521Y-49255015D01*
X128280763Y-49629397D01*
X128321306Y-49736106D01*
X128321828Y-49737241D01*
X128321833Y-49737254D01*
X128462655Y-50043717D01*
X128535446Y-50202128D01*
X128603400Y-50334773D01*
X128868869Y-50802182D01*
X129159432Y-51240002D01*
X129160238Y-51241046D01*
X129160245Y-51241056D01*
X129342028Y-51476560D01*
X129473734Y-51647189D01*
X129654605Y-51848914D01*
X129770832Y-51978542D01*
X129810420Y-52022695D01*
X129811428Y-52023661D01*
X129811431Y-52023664D01*
X129878754Y-52088176D01*
X130168136Y-52365477D01*
X130545526Y-52674488D01*
X130941235Y-52948683D01*
X130942552Y-52949443D01*
X130942551Y-52949443D01*
X131352569Y-53186243D01*
X131352578Y-53186248D01*
X131353910Y-53187017D01*
X131355299Y-53187670D01*
X131355310Y-53187676D01*
X131780769Y-53387773D01*
X131782196Y-53388444D01*
X132224736Y-53551920D01*
X132680178Y-53676398D01*
X132681788Y-53676689D01*
X132681792Y-53676690D01*
X133146290Y-53760675D01*
X133146306Y-53760677D01*
X133147166Y-53760833D01*
X133150492Y-53761271D01*
X133156411Y-53762050D01*
X133156423Y-53762051D01*
X133157028Y-53762131D01*
X133256415Y-53771760D01*
X133278146Y-53773865D01*
X133278152Y-53773865D01*
X133278849Y-53773933D01*
X133279529Y-53773973D01*
X133279552Y-53773975D01*
X133352508Y-53778288D01*
X133431294Y-53782946D01*
X133603963Y-53789070D01*
X133708253Y-53790862D01*
X133786151Y-53792200D01*
X133786174Y-53792200D01*
X133786454Y-53792205D01*
X133875760Y-53792228D01*
X133968054Y-53792252D01*
X133968363Y-53792252D01*
X133968623Y-53792247D01*
X133968650Y-53792247D01*
X134138862Y-53789120D01*
X134138874Y-53789120D01*
X134139289Y-53789112D01*
X134190880Y-53786895D01*
X134288097Y-53782717D01*
X134288121Y-53782715D01*
X134288830Y-53782685D01*
X134289570Y-53782623D01*
X134289575Y-53782623D01*
X134405281Y-53772980D01*
X134405295Y-53772978D01*
X134406583Y-53772871D01*
X134833279Y-53706610D01*
X134834715Y-53706268D01*
X134834724Y-53706266D01*
X135259879Y-53604945D01*
X135259888Y-53604942D01*
X135261325Y-53604600D01*
X135262723Y-53604145D01*
X135262735Y-53604142D01*
X135529483Y-53517398D01*
X135689403Y-53465394D01*
X135690094Y-53465138D01*
X135706693Y-53458988D01*
X135706708Y-53458982D01*
X135707383Y-53458732D01*
X135982025Y-53344250D01*
X135983047Y-53343747D01*
X135983057Y-53343743D01*
X136270243Y-53202549D01*
X136270250Y-53202545D01*
X136271109Y-53202123D01*
X136564537Y-53038298D01*
X136852213Y-52858717D01*
X136852960Y-52858197D01*
X136852976Y-52858186D01*
X137116629Y-52674488D01*
X137124038Y-52669326D01*
X137369916Y-52476069D01*
X137397461Y-52452611D01*
X137397778Y-52452326D01*
X137397810Y-52452298D01*
X137539066Y-52325286D01*
X137539085Y-52325268D01*
X137539508Y-52324888D01*
X137695553Y-52175319D01*
X137695872Y-52174998D01*
X137855844Y-52013899D01*
X137855869Y-52013873D01*
X137856181Y-52013559D01*
X138011978Y-51849262D01*
X138153529Y-51692079D01*
X138271420Y-51551667D01*
X138381615Y-51410054D01*
X138582826Y-51122509D01*
X138692427Y-50965881D01*
X138692430Y-50965877D01*
X138693221Y-50964746D01*
X138974255Y-50492342D01*
X139169758Y-50102583D01*
X139222689Y-49997059D01*
X139222693Y-49997051D01*
X139223272Y-49995896D01*
X139438831Y-49478460D01*
X139619490Y-48943088D01*
X139763805Y-48392831D01*
X139763943Y-48392211D01*
X139763950Y-48392184D01*
X139765890Y-48383492D01*
X139765933Y-48383300D01*
X139783716Y-48297790D01*
X139804539Y-48189723D01*
X139827033Y-48067117D01*
X139849829Y-47937991D01*
X139871559Y-47810361D01*
X139890854Y-47692246D01*
X139906346Y-47591665D01*
X139916666Y-47516636D01*
X139918320Y-47498496D01*
X139919261Y-47488168D01*
X139919261Y-47488167D01*
X139920445Y-47475176D01*
X139906936Y-47468405D01*
X139869788Y-47463038D01*
X139858433Y-47461397D01*
X139858428Y-47461397D01*
X139857193Y-47461218D01*
X139796917Y-47456671D01*
X139770278Y-47454661D01*
X139770274Y-47454661D01*
X139769747Y-47454621D01*
X139713896Y-47451936D01*
X139643700Y-47448560D01*
X139643657Y-47448558D01*
X139643443Y-47448548D01*
X139546473Y-47445273D01*
X139477273Y-47442935D01*
X139477243Y-47442934D01*
X139477121Y-47442930D01*
X139269625Y-47437703D01*
X139016834Y-47431521D01*
X139016395Y-47431509D01*
X138865824Y-47426823D01*
X138729065Y-47422566D01*
X138728344Y-47422540D01*
X138685493Y-47420788D01*
X138464300Y-47411745D01*
X138463574Y-47411711D01*
X138211966Y-47398483D01*
X138211208Y-47398438D01*
X137961516Y-47382213D01*
X137960749Y-47382159D01*
X137782217Y-47368484D01*
X137702090Y-47362347D01*
X137701390Y-47362290D01*
X137423112Y-47338316D01*
X137422465Y-47338257D01*
X137180831Y-47315299D01*
X137178937Y-47315095D01*
X136172412Y-47193253D01*
X136169361Y-47192819D01*
X135818550Y-47135443D01*
X135170762Y-47029495D01*
X135167746Y-47028937D01*
X134807744Y-46954532D01*
X134176580Y-46824083D01*
X134173580Y-46823398D01*
X133189833Y-46577018D01*
X133186880Y-46576213D01*
X132943361Y-46504401D01*
X132210636Y-46288326D01*
X132207790Y-46287423D01*
X131239034Y-45958020D01*
X131236238Y-45957005D01*
X130275134Y-45586132D01*
X130272409Y-45585017D01*
X130052731Y-45490010D01*
X129318943Y-45172659D01*
X129316347Y-45171475D01*
X128369836Y-44717285D01*
X128368809Y-44716783D01*
X128275022Y-44669984D01*
X128274988Y-44669967D01*
X128274739Y-44669843D01*
X128155162Y-44611591D01*
X128155018Y-44611523D01*
X128052340Y-44563132D01*
X128052294Y-44563111D01*
X128052012Y-44562978D01*
X127970594Y-44526435D01*
X127916212Y-44504393D01*
X127912076Y-44503434D01*
X127906883Y-44502230D01*
X127894171Y-44499283D01*
X127889231Y-44512034D01*
X127888245Y-44514578D01*
X127888243Y-44514585D01*
X127887327Y-44516949D01*
X127874324Y-44572010D01*
X127874192Y-44572680D01*
X127874188Y-44572700D01*
X127866531Y-44611670D01*
X127857501Y-44657626D01*
X127857444Y-44657946D01*
X127857440Y-44657967D01*
X127849116Y-44704635D01*
X127837917Y-44767417D01*
X127837896Y-44767543D01*
X127816673Y-44894732D01*
X127816603Y-44895158D01*
X127794726Y-45033798D01*
X127794694Y-45034001D01*
X127773172Y-45178032D01*
X127773159Y-45178127D01*
X127773150Y-45178186D01*
X127753137Y-45320599D01*
X127753106Y-45320827D01*
X127745447Y-45379808D01*
X127735597Y-45455667D01*
X127731683Y-45489463D01*
X127718051Y-45647051D01*
X127707530Y-45835417D01*
X127700123Y-46046451D01*
X127695828Y-46272043D01*
X127695827Y-46272290D01*
X127694831Y-46467846D01*
X127694646Y-46504080D01*
X104220774Y-46504080D01*
X105264001Y-42576638D01*
X105283761Y-42542750D01*
X105289141Y-42537485D01*
X112355200Y-35621769D01*
X112663671Y-35319861D01*
X112709774Y-35298963D01*
X112719153Y-35299358D01*
X112719157Y-35299142D01*
X112862499Y-35301770D01*
X112867582Y-35300384D01*
X112867584Y-35300384D01*
X112995727Y-35265448D01*
X112995729Y-35265447D01*
X113000817Y-35264060D01*
X113122991Y-35189045D01*
X113219200Y-35082754D01*
X113281710Y-34953733D01*
X113305496Y-34812354D01*
X113305647Y-34800000D01*
X113300788Y-34766072D01*
X113311183Y-34716533D01*
X113321715Y-34703256D01*
X114584774Y-33440197D01*
X114596682Y-33430536D01*
X114611040Y-33421174D01*
X114614101Y-33416928D01*
X114615764Y-33415764D01*
X114624822Y-33402828D01*
X114634501Y-33391595D01*
X114812005Y-33223150D01*
X115079417Y-32969386D01*
X115082288Y-32966801D01*
X115082290Y-32966800D01*
X115570292Y-32550007D01*
X115573295Y-32547575D01*
X115573297Y-32547574D01*
X115761927Y-32402833D01*
X119344906Y-32402833D01*
X119345161Y-32405505D01*
X119345161Y-32405509D01*
X119353591Y-32493857D01*
X119371102Y-32677392D01*
X119378302Y-32706817D01*
X119431916Y-32925918D01*
X119436657Y-32945294D01*
X119437666Y-32947785D01*
X119530232Y-33176318D01*
X119540199Y-33200926D01*
X119541551Y-33203236D01*
X119541553Y-33203239D01*
X119566505Y-33245854D01*
X119679558Y-33438935D01*
X119851816Y-33654332D01*
X120053364Y-33842608D01*
X120279979Y-33999816D01*
X120282373Y-34001007D01*
X120282378Y-34001010D01*
X120524521Y-34121475D01*
X120524527Y-34121477D01*
X120526914Y-34122665D01*
X120669338Y-34169354D01*
X120786447Y-34207744D01*
X120786450Y-34207745D01*
X120788998Y-34208580D01*
X121060738Y-34255762D01*
X121062992Y-34255874D01*
X121062999Y-34255875D01*
X121116260Y-34258526D01*
X121147876Y-34260100D01*
X132820070Y-34260100D01*
X132885192Y-34255375D01*
X133022411Y-34245419D01*
X133022413Y-34245419D01*
X133025083Y-34245225D01*
X133027695Y-34244648D01*
X133027697Y-34244648D01*
X133291787Y-34186342D01*
X133291793Y-34186340D01*
X133294403Y-34185764D01*
X133296909Y-34184815D01*
X133296911Y-34184814D01*
X133549804Y-34089002D01*
X133549806Y-34089001D01*
X133552319Y-34088049D01*
X133793428Y-33954125D01*
X133906098Y-33868138D01*
X134010549Y-33788423D01*
X134010551Y-33788422D01*
X134012678Y-33786798D01*
X134014553Y-33784880D01*
X134203598Y-33591497D01*
X134203603Y-33591491D01*
X134205477Y-33589574D01*
X134367787Y-33366584D01*
X134467891Y-33176318D01*
X134494956Y-33124875D01*
X134494956Y-33124874D01*
X134496206Y-33122499D01*
X134588045Y-32862432D01*
X134589825Y-32853404D01*
X134640860Y-32594471D01*
X134640860Y-32594469D01*
X134641380Y-32591832D01*
X134643525Y-32548757D01*
X134647322Y-32472470D01*
X134655094Y-32316367D01*
X134628898Y-32041808D01*
X134595317Y-31904572D01*
X134563982Y-31776516D01*
X134563981Y-31776512D01*
X134563343Y-31773906D01*
X134528604Y-31688139D01*
X134460809Y-31520762D01*
X134460808Y-31520759D01*
X134459801Y-31518274D01*
X134320442Y-31280265D01*
X134148184Y-31064868D01*
X133997358Y-30923974D01*
X133948591Y-30878418D01*
X133948589Y-30878416D01*
X133946636Y-30876592D01*
X133720021Y-30719384D01*
X133717627Y-30718193D01*
X133717622Y-30718190D01*
X133475479Y-30597725D01*
X133475473Y-30597723D01*
X133473086Y-30596535D01*
X133296990Y-30538808D01*
X133213553Y-30511456D01*
X133213550Y-30511455D01*
X133211002Y-30510620D01*
X132939262Y-30463438D01*
X132937008Y-30463326D01*
X132937001Y-30463325D01*
X132883740Y-30460674D01*
X132852124Y-30459100D01*
X121179930Y-30459100D01*
X121178607Y-30459196D01*
X120977589Y-30473781D01*
X120977587Y-30473781D01*
X120974917Y-30473975D01*
X120972305Y-30474552D01*
X120972303Y-30474552D01*
X120708213Y-30532858D01*
X120708207Y-30532860D01*
X120705597Y-30533436D01*
X120703091Y-30534385D01*
X120703089Y-30534386D01*
X120461335Y-30625978D01*
X120447681Y-30631151D01*
X120445335Y-30632454D01*
X120445333Y-30632455D01*
X120397455Y-30659049D01*
X120206572Y-30765075D01*
X120204444Y-30766699D01*
X119991936Y-30928881D01*
X119987322Y-30932402D01*
X119985447Y-30934320D01*
X119796402Y-31127703D01*
X119796397Y-31127709D01*
X119794523Y-31129626D01*
X119792940Y-31131801D01*
X119792939Y-31131802D01*
X119750279Y-31190411D01*
X119632213Y-31352616D01*
X119503794Y-31596701D01*
X119411955Y-31856768D01*
X119411437Y-31859398D01*
X119411435Y-31859404D01*
X119359140Y-32124729D01*
X119358620Y-32127368D01*
X119358486Y-32130054D01*
X119358486Y-32130056D01*
X119357150Y-32156900D01*
X119344906Y-32402833D01*
X115761927Y-32402833D01*
X115804912Y-32369849D01*
X116082433Y-32156900D01*
X116085567Y-32154623D01*
X116518948Y-31856768D01*
X116614462Y-31791123D01*
X116617704Y-31789018D01*
X116638106Y-31776516D01*
X117063292Y-31515961D01*
X117164879Y-31453708D01*
X117168234Y-31451771D01*
X117732249Y-31145536D01*
X117735684Y-31143786D01*
X118081309Y-30978931D01*
X118314923Y-30867503D01*
X118318462Y-30865927D01*
X118911381Y-30620332D01*
X118914998Y-30618944D01*
X119519927Y-30404727D01*
X119523612Y-30403529D01*
X120138964Y-30221254D01*
X120142706Y-30220252D01*
X120766709Y-30070442D01*
X120770499Y-30069636D01*
X121401524Y-29952682D01*
X121405350Y-29952076D01*
X121999982Y-29873791D01*
X122041615Y-29868310D01*
X122045467Y-29867905D01*
X122045480Y-29867904D01*
X122685256Y-29817553D01*
X122689097Y-29817352D01*
X123302254Y-29801295D01*
X123317041Y-29802394D01*
X123332590Y-29805136D01*
X123352508Y-29801624D01*
X123365357Y-29800500D01*
X130634643Y-29800500D01*
X130647493Y-29801624D01*
X130661034Y-29804012D01*
X130661035Y-29804012D01*
X130667410Y-29805136D01*
X130682967Y-29802392D01*
X130697748Y-29801294D01*
X130710350Y-29801624D01*
X131310903Y-29817351D01*
X131314744Y-29817552D01*
X131954533Y-29867904D01*
X131958385Y-29868309D01*
X132000018Y-29873790D01*
X132594650Y-29952075D01*
X132598476Y-29952681D01*
X133229501Y-30069635D01*
X133233291Y-30070441D01*
X133857294Y-30220251D01*
X133861036Y-30221253D01*
X134476388Y-30403528D01*
X134480073Y-30404726D01*
X135085002Y-30618943D01*
X135088619Y-30620331D01*
X135681538Y-30865926D01*
X135685077Y-30867502D01*
X136264315Y-31143784D01*
X136267767Y-31145543D01*
X136434598Y-31236125D01*
X136831762Y-31451768D01*
X136835097Y-31453693D01*
X137382303Y-31789022D01*
X137385538Y-31791122D01*
X137550608Y-31904572D01*
X137914433Y-32154623D01*
X137917567Y-32156900D01*
X138196814Y-32371173D01*
X138385492Y-32515950D01*
X138426705Y-32547574D01*
X138429708Y-32550006D01*
X138917314Y-32966459D01*
X138917713Y-32966800D01*
X138920584Y-32969385D01*
X139091170Y-33131265D01*
X139349245Y-33376169D01*
X139353703Y-33380784D01*
X139356624Y-33384083D01*
X139366386Y-33393148D01*
X139376652Y-33404931D01*
X139384236Y-33415764D01*
X139389540Y-33419478D01*
X139402483Y-33428541D01*
X139411727Y-33436203D01*
X139430128Y-33454164D01*
X139433055Y-33455419D01*
X139435690Y-33457501D01*
X140472818Y-34420548D01*
X140495894Y-34465601D01*
X140495584Y-34486158D01*
X140494391Y-34493823D01*
X140495074Y-34499046D01*
X140495074Y-34499049D01*
X140498126Y-34522388D01*
X140512980Y-34635979D01*
X140570720Y-34767203D01*
X140593096Y-34793823D01*
X140659580Y-34872916D01*
X140659583Y-34872919D01*
X140662970Y-34876948D01*
X140667357Y-34879868D01*
X140777924Y-34953469D01*
X140777927Y-34953470D01*
X140782313Y-34956390D01*
X140919157Y-34999142D01*
X140924425Y-34999239D01*
X140924428Y-34999239D01*
X140984733Y-35000344D01*
X141062499Y-35001770D01*
X141067582Y-35000384D01*
X141067584Y-35000384D01*
X141195727Y-34965448D01*
X141195729Y-34965447D01*
X141200817Y-34964060D01*
X141322991Y-34889045D01*
X141419200Y-34782754D01*
X141481710Y-34653733D01*
X141505496Y-34512354D01*
X141505647Y-34500000D01*
X141493464Y-34414930D01*
X141486070Y-34363297D01*
X141486070Y-34363296D01*
X141485323Y-34358082D01*
X141434099Y-34245419D01*
X141428166Y-34232371D01*
X141425984Y-34227572D01*
X141332400Y-34118963D01*
X141327981Y-34116099D01*
X141327979Y-34116097D01*
X141282694Y-34086745D01*
X141212095Y-34040985D01*
X141108168Y-34009904D01*
X141079792Y-34001418D01*
X141079791Y-34001418D01*
X141074739Y-33999907D01*
X140931376Y-33999031D01*
X140931393Y-33996286D01*
X140891816Y-33987723D01*
X140880905Y-33979337D01*
X140759143Y-33866272D01*
X140016115Y-33176318D01*
X139993039Y-33131265D01*
X140001225Y-33087171D01*
X140087532Y-32925918D01*
X140125242Y-32892151D01*
X140133407Y-32889417D01*
X140133498Y-32889392D01*
X140140768Y-32888894D01*
X140146519Y-32886037D01*
X140196466Y-32890255D01*
X140232366Y-32925940D01*
X140236501Y-32937194D01*
X140236971Y-32944057D01*
X140240214Y-32950583D01*
X140240214Y-32950585D01*
X140249558Y-32969392D01*
X140272462Y-33015491D01*
X140277958Y-33020282D01*
X140314668Y-33052285D01*
X140314671Y-33052287D01*
X140317409Y-33054674D01*
X140320559Y-33056480D01*
X140320563Y-33056483D01*
X140611229Y-33223150D01*
X140698674Y-33273291D01*
X140755195Y-33292291D01*
X140762463Y-33291793D01*
X140762464Y-33291793D01*
X140812161Y-33288387D01*
X140834772Y-33286837D01*
X140870088Y-33269291D01*
X140899681Y-33254589D01*
X140899682Y-33254588D01*
X140906206Y-33251347D01*
X140945389Y-33206399D01*
X140948528Y-33200926D01*
X141064248Y-32999111D01*
X141102927Y-32966459D01*
X141128443Y-32961921D01*
X141341653Y-32961921D01*
X141389219Y-32979234D01*
X141393979Y-32983595D01*
X144277826Y-35867442D01*
X144299218Y-35913318D01*
X144299500Y-35919768D01*
X144299500Y-36719748D01*
X144311133Y-36778231D01*
X144355448Y-36844552D01*
X144421769Y-36888867D01*
X144466295Y-36897724D01*
X144476682Y-36899790D01*
X144476683Y-36899790D01*
X144480252Y-36900500D01*
X145519748Y-36900500D01*
X145523317Y-36899790D01*
X145523318Y-36899790D01*
X145533705Y-36897724D01*
X145578231Y-36888867D01*
X145644552Y-36844552D01*
X145688867Y-36778231D01*
X145700500Y-36719748D01*
X145700500Y-35680252D01*
X145688867Y-35621769D01*
X145644552Y-35555448D01*
X145578231Y-35511133D01*
X145533705Y-35502276D01*
X145523318Y-35500210D01*
X145523317Y-35500210D01*
X145519748Y-35499500D01*
X144719768Y-35499500D01*
X144672202Y-35482187D01*
X144667442Y-35477826D01*
X141705566Y-32515950D01*
X141696363Y-32504736D01*
X141693929Y-32501092D01*
X141685045Y-32487797D01*
X141662044Y-32472428D01*
X141662043Y-32472427D01*
X141635886Y-32454950D01*
X141593916Y-32426906D01*
X141549050Y-32417982D01*
X141513556Y-32410921D01*
X141513553Y-32410921D01*
X141486421Y-32405524D01*
X141479272Y-32406946D01*
X141466438Y-32409499D01*
X141452001Y-32410921D01*
X141363770Y-32410921D01*
X141316204Y-32393608D01*
X141297500Y-32369849D01*
X141294535Y-32363882D01*
X141294534Y-32363881D01*
X141291290Y-32357351D01*
X141275473Y-32343562D01*
X141249084Y-32320557D01*
X141249081Y-32320555D01*
X141246343Y-32318168D01*
X141243193Y-32316362D01*
X141243189Y-32316359D01*
X140954569Y-32150865D01*
X140921917Y-32112186D01*
X140921767Y-32061567D01*
X140954189Y-32022694D01*
X140962086Y-32018715D01*
X140997014Y-32003658D01*
X141008410Y-31996683D01*
X141058018Y-31986616D01*
X141083852Y-31995602D01*
X141345330Y-32145534D01*
X141401851Y-32164534D01*
X141409119Y-32164036D01*
X141409120Y-32164036D01*
X141458817Y-32160630D01*
X141481428Y-32159080D01*
X141516744Y-32141534D01*
X141546337Y-32126832D01*
X141546338Y-32126831D01*
X141552862Y-32123590D01*
X141592045Y-32078642D01*
X141608372Y-32050169D01*
X141679044Y-31926917D01*
X141710904Y-31871354D01*
X141749583Y-31838702D01*
X141775099Y-31834164D01*
X142213896Y-31834164D01*
X142261462Y-31851477D01*
X142266222Y-31855838D01*
X144277826Y-33867442D01*
X144299218Y-33913318D01*
X144299500Y-33919768D01*
X144299500Y-34719748D01*
X144311133Y-34778231D01*
X144315184Y-34784293D01*
X144315184Y-34784294D01*
X144351398Y-34838491D01*
X144355448Y-34844552D01*
X144361509Y-34848602D01*
X144379916Y-34860901D01*
X144421769Y-34888867D01*
X144466295Y-34897724D01*
X144476682Y-34899790D01*
X144476683Y-34899790D01*
X144480252Y-34900500D01*
X145519748Y-34900500D01*
X145523317Y-34899790D01*
X145523318Y-34899790D01*
X145533705Y-34897724D01*
X145578231Y-34888867D01*
X145620085Y-34860901D01*
X145638491Y-34848602D01*
X145644552Y-34844552D01*
X145648602Y-34838491D01*
X145684816Y-34784294D01*
X145684816Y-34784293D01*
X145688867Y-34778231D01*
X145700500Y-34719748D01*
X145700500Y-33680252D01*
X145688867Y-33621769D01*
X145644552Y-33555448D01*
X145578231Y-33511133D01*
X145533705Y-33502276D01*
X145523318Y-33500210D01*
X145523317Y-33500210D01*
X145519748Y-33499500D01*
X144719768Y-33499500D01*
X144672202Y-33482187D01*
X144667442Y-33477826D01*
X142577809Y-31388193D01*
X142568606Y-31376979D01*
X142566172Y-31373335D01*
X142557288Y-31360040D01*
X142534287Y-31344671D01*
X142534286Y-31344670D01*
X142493078Y-31317136D01*
X142466159Y-31299149D01*
X142459014Y-31297728D01*
X142459012Y-31297727D01*
X142385799Y-31283164D01*
X142385796Y-31283164D01*
X142358664Y-31277767D01*
X142351515Y-31279189D01*
X142338681Y-31281742D01*
X142324244Y-31283164D01*
X142010426Y-31283164D01*
X141962860Y-31265851D01*
X141944156Y-31242092D01*
X141941191Y-31236125D01*
X141941190Y-31236124D01*
X141937946Y-31229594D01*
X141922129Y-31215805D01*
X141895740Y-31192800D01*
X141895737Y-31192798D01*
X141892999Y-31190411D01*
X141889849Y-31188605D01*
X141889845Y-31188602D01*
X141631521Y-31040480D01*
X141598869Y-31001801D01*
X141594345Y-30974827D01*
X141594608Y-30961466D01*
X141578113Y-30827510D01*
X141575383Y-30817439D01*
X141521950Y-30693490D01*
X141516503Y-30684592D01*
X141430027Y-30580133D01*
X141423322Y-30573835D01*
X141378165Y-30540991D01*
X141374793Y-30538808D01*
X141346144Y-30522380D01*
X141335661Y-30520563D01*
X141330383Y-30523631D01*
X140845352Y-31369514D01*
X140806673Y-31402166D01*
X140756054Y-31402316D01*
X140744347Y-31396899D01*
X140525736Y-31271547D01*
X140493084Y-31232868D01*
X140492934Y-31182249D01*
X140498351Y-31170542D01*
X140981329Y-30328239D01*
X140983146Y-30317756D01*
X140980078Y-30312478D01*
X140947840Y-30293993D01*
X140944270Y-30292195D01*
X140893113Y-30269812D01*
X140884278Y-30267203D01*
X140750451Y-30245336D01*
X140740013Y-30245131D01*
X140606059Y-30261625D01*
X140595982Y-30264357D01*
X140472041Y-30317786D01*
X140460646Y-30324761D01*
X140411038Y-30334826D01*
X140385204Y-30325840D01*
X140126886Y-30177721D01*
X140123726Y-30175909D01*
X140067205Y-30156909D01*
X140059937Y-30157407D01*
X140059936Y-30157407D01*
X140010239Y-30160813D01*
X139987628Y-30162363D01*
X139916194Y-30197853D01*
X139914802Y-30195052D01*
X139879088Y-30206436D01*
X139835138Y-30189700D01*
X139452014Y-29875277D01*
X139452004Y-29875269D01*
X139451069Y-29874502D01*
X139025253Y-29569367D01*
X138580391Y-29292734D01*
X138251374Y-29116871D01*
X138119469Y-29046366D01*
X138119462Y-29046363D01*
X138118389Y-29045789D01*
X138117277Y-29045285D01*
X137642327Y-28830088D01*
X137642319Y-28830085D01*
X137641225Y-28829589D01*
X137150943Y-28645060D01*
X136649642Y-28492991D01*
X136648480Y-28492720D01*
X136648476Y-28492719D01*
X136425801Y-28440799D01*
X136139468Y-28374036D01*
X136138288Y-28373841D01*
X136138272Y-28373838D01*
X135623790Y-28288896D01*
X135623781Y-28288895D01*
X135622607Y-28288701D01*
X135621425Y-28288585D01*
X135621413Y-28288583D01*
X135102464Y-28237471D01*
X135102449Y-28237470D01*
X135101271Y-28237354D01*
X135100075Y-28237315D01*
X135100062Y-28237314D01*
X134835310Y-28228647D01*
X134590441Y-28220631D01*
X134589517Y-28220525D01*
X134588388Y-28220525D01*
X134587108Y-28220504D01*
X134586926Y-28220516D01*
X134584379Y-28220433D01*
X134577693Y-28219103D01*
X134570544Y-28220525D01*
X134557709Y-28223078D01*
X134543273Y-28224500D01*
X119456727Y-28224500D01*
X119442291Y-28223078D01*
X119429456Y-28220525D01*
X119422307Y-28219103D01*
X119415615Y-28220434D01*
X119413167Y-28220514D01*
X119413128Y-28220500D01*
X119411636Y-28220525D01*
X119410488Y-28220525D01*
X119409557Y-28220632D01*
X119136600Y-28229568D01*
X118899938Y-28237315D01*
X118899925Y-28237316D01*
X118898729Y-28237355D01*
X118897551Y-28237471D01*
X118897536Y-28237472D01*
X118378587Y-28288584D01*
X118378575Y-28288586D01*
X118377393Y-28288702D01*
X118376219Y-28288896D01*
X118376210Y-28288897D01*
X117861728Y-28373839D01*
X117861712Y-28373842D01*
X117860532Y-28374037D01*
X117573731Y-28440910D01*
X117351524Y-28492721D01*
X117351520Y-28492722D01*
X117350358Y-28492993D01*
X117083530Y-28573934D01*
X116850210Y-28644711D01*
X116850203Y-28644713D01*
X116849057Y-28645061D01*
X116358775Y-28829590D01*
X116357681Y-28830086D01*
X116357673Y-28830089D01*
X115882724Y-29045286D01*
X115881612Y-29045790D01*
X115880539Y-29046364D01*
X115880532Y-29046367D01*
X115748135Y-29117135D01*
X115419610Y-29292735D01*
X114974748Y-29569368D01*
X114548932Y-29874503D01*
X114547997Y-29875270D01*
X114547987Y-29875278D01*
X114164863Y-30189701D01*
X114117111Y-30206494D01*
X114085047Y-30195356D01*
X114083806Y-30197853D01*
X114018895Y-30165604D01*
X114018896Y-30165604D01*
X114012372Y-30162363D01*
X113989761Y-30160813D01*
X113940064Y-30157407D01*
X113940063Y-30157407D01*
X113932795Y-30156909D01*
X113876274Y-30175909D01*
X113873114Y-30177721D01*
X113614796Y-30325840D01*
X113564920Y-30334482D01*
X113539354Y-30324761D01*
X113527959Y-30317786D01*
X113404018Y-30264357D01*
X113393941Y-30261625D01*
X113259987Y-30245131D01*
X113249549Y-30245336D01*
X113115717Y-30267203D01*
X113106890Y-30269811D01*
X113055735Y-30292192D01*
X113052158Y-30293993D01*
X113023500Y-30310426D01*
X113016637Y-30318555D01*
X113016619Y-30324660D01*
X113501649Y-31170542D01*
X113510291Y-31220418D01*
X113484852Y-31264180D01*
X113474264Y-31271547D01*
X113255653Y-31396899D01*
X113205777Y-31405541D01*
X113162015Y-31380102D01*
X113154648Y-31369514D01*
X112671668Y-30527210D01*
X112663539Y-30520347D01*
X112657434Y-30520329D01*
X112625207Y-30538808D01*
X112621835Y-30540991D01*
X112576678Y-30573835D01*
X112569973Y-30580133D01*
X112483497Y-30684592D01*
X112478050Y-30693490D01*
X112424617Y-30817439D01*
X112421887Y-30827510D01*
X112405392Y-30961466D01*
X112405655Y-30974827D01*
X112389282Y-31022725D01*
X112368479Y-31040480D01*
X112110155Y-31188602D01*
X112110151Y-31188605D01*
X112107001Y-31190411D01*
X112104263Y-31192798D01*
X112104260Y-31192800D01*
X112077871Y-31215805D01*
X112062054Y-31229594D01*
X112026563Y-31301028D01*
X112021110Y-31380605D01*
X112023432Y-31387513D01*
X112028408Y-31402316D01*
X112040109Y-31437126D01*
X112064469Y-31479609D01*
X112107367Y-31554423D01*
X112116008Y-31604298D01*
X112095361Y-31643694D01*
X108951511Y-34771238D01*
X103613281Y-40081780D01*
X103583266Y-40111639D01*
X103537334Y-40132912D01*
X103493987Y-40123211D01*
X103413010Y-40076308D01*
X103376686Y-40055269D01*
X103320249Y-40036023D01*
X103280449Y-40038576D01*
X103247923Y-40040662D01*
X103247921Y-40040663D01*
X103240649Y-40041129D01*
X103234109Y-40044343D01*
X103234108Y-40044343D01*
X103175601Y-40073094D01*
X103169061Y-40076308D01*
X103164250Y-40081779D01*
X103164248Y-40081780D01*
X103132087Y-40118349D01*
X103129682Y-40121084D01*
X102978611Y-40381905D01*
X102939789Y-40414388D01*
X102912797Y-40418794D01*
X102899439Y-40418473D01*
X102765411Y-40434384D01*
X102755326Y-40437071D01*
X102631149Y-40489960D01*
X102622225Y-40495368D01*
X102517392Y-40581386D01*
X102511062Y-40588067D01*
X102478011Y-40633093D01*
X102475829Y-40636430D01*
X102459270Y-40665019D01*
X102457408Y-40675493D01*
X102460454Y-40680785D01*
X103304211Y-41169501D01*
X103336695Y-41208323D01*
X103336624Y-41258942D01*
X103331156Y-41270624D01*
X103204851Y-41488687D01*
X103166029Y-41521171D01*
X103115410Y-41521100D01*
X103103728Y-41515632D01*
X102263539Y-41028984D01*
X102253064Y-41027121D01*
X102247774Y-41030166D01*
X102229152Y-41062316D01*
X102227334Y-41065887D01*
X102204727Y-41116946D01*
X102202081Y-41125765D01*
X102179630Y-41259495D01*
X102179379Y-41269934D01*
X102195290Y-41403961D01*
X102197977Y-41414046D01*
X102250865Y-41538220D01*
X102257791Y-41549647D01*
X102267640Y-41599298D01*
X102258543Y-41625086D01*
X102107469Y-41885913D01*
X102088223Y-41942351D01*
X102093330Y-42021951D01*
X102128508Y-42093539D01*
X102173284Y-42132917D01*
X102290369Y-42200734D01*
X102322852Y-42239556D01*
X102324742Y-42283978D01*
X99215997Y-53848975D01*
X99212305Y-53862710D01*
X99183238Y-53904151D01*
X99140842Y-53917500D01*
X99005452Y-53917500D01*
X99001883Y-53918210D01*
X99001882Y-53918210D01*
X98991495Y-53920276D01*
X98946969Y-53929133D01*
X98880648Y-53973448D01*
X98836333Y-54039769D01*
X98824700Y-54098252D01*
X98824700Y-54399666D01*
X98807387Y-54447232D01*
X98786238Y-54464574D01*
X98774517Y-54470992D01*
X98666519Y-54551931D01*
X98659131Y-54559319D01*
X98578191Y-54667317D01*
X98573177Y-54676475D01*
X98525577Y-54803447D01*
X98523447Y-54812407D01*
X98517417Y-54867911D01*
X98517200Y-54871921D01*
X98517200Y-54904952D01*
X98520838Y-54914948D01*
X98526125Y-54918000D01*
X99501200Y-54918000D01*
X99548766Y-54935313D01*
X99574076Y-54979150D01*
X99575200Y-54992000D01*
X99575200Y-55244000D01*
X99557887Y-55291566D01*
X99514050Y-55316876D01*
X99501200Y-55318000D01*
X98530249Y-55318000D01*
X98520253Y-55321638D01*
X98517201Y-55326925D01*
X98517201Y-55364077D01*
X98517419Y-55368091D01*
X98523447Y-55423594D01*
X98525576Y-55432550D01*
X98573177Y-55559525D01*
X98578191Y-55568683D01*
X98659131Y-55676681D01*
X98666519Y-55684069D01*
X98774517Y-55765008D01*
X98786238Y-55771426D01*
X98819646Y-55809455D01*
X98824700Y-55836334D01*
X98824700Y-56137748D01*
X98825410Y-56141317D01*
X98825410Y-56141318D01*
X98826584Y-56147219D01*
X98836333Y-56196231D01*
X98880648Y-56262552D01*
X98886708Y-56266601D01*
X98886709Y-56266602D01*
X98936553Y-56299907D01*
X98946969Y-56306867D01*
X98991495Y-56315724D01*
X99001882Y-56317790D01*
X99001883Y-56317790D01*
X99005452Y-56318500D01*
X99140842Y-56318500D01*
X99188408Y-56335813D01*
X99212305Y-56373290D01*
X102283124Y-67797195D01*
X102324742Y-67952022D01*
X102320371Y-68002452D01*
X102290370Y-68035265D01*
X102173284Y-68103083D01*
X102128508Y-68142461D01*
X102093330Y-68214049D01*
X102092863Y-68221324D01*
X102092863Y-68221325D01*
X102091986Y-68235001D01*
X102088223Y-68293649D01*
X102107469Y-68350087D01*
X102258542Y-68610911D01*
X102267401Y-68660745D01*
X102257791Y-68686353D01*
X102250865Y-68697780D01*
X102197977Y-68821954D01*
X102195290Y-68832039D01*
X102179379Y-68966066D01*
X102179630Y-68976505D01*
X102202082Y-69110240D01*
X102204726Y-69119051D01*
X102227335Y-69170118D01*
X102229144Y-69173671D01*
X102245708Y-69202267D01*
X102253864Y-69209092D01*
X102259971Y-69209083D01*
X103103728Y-68720368D01*
X103153565Y-68711508D01*
X103197438Y-68736757D01*
X103204851Y-68747313D01*
X103331156Y-68965376D01*
X103340016Y-69015213D01*
X103314767Y-69059086D01*
X103304211Y-69066499D01*
X102464023Y-69553148D01*
X102457196Y-69561307D01*
X102457204Y-69567411D01*
X102475827Y-69599564D01*
X102478017Y-69602913D01*
X102511060Y-69647930D01*
X102517394Y-69654615D01*
X102622225Y-69740632D01*
X102631149Y-69746040D01*
X102755326Y-69798929D01*
X102765411Y-69801616D01*
X102899439Y-69817527D01*
X102912797Y-69817206D01*
X102960766Y-69833370D01*
X102978611Y-69854095D01*
X103129682Y-70114916D01*
X103132085Y-70117649D01*
X103132087Y-70117651D01*
X103164248Y-70154220D01*
X103164250Y-70154221D01*
X103169061Y-70159692D01*
X103175600Y-70162905D01*
X103175601Y-70162906D01*
X103234108Y-70191657D01*
X103234109Y-70191657D01*
X103240649Y-70194871D01*
X103247921Y-70195337D01*
X103247923Y-70195338D01*
X103280449Y-70197424D01*
X103320249Y-70199977D01*
X103376686Y-70180731D01*
X103526198Y-70094132D01*
X103576035Y-70085272D01*
X103610453Y-70101145D01*
X112530587Y-77479960D01*
X112556203Y-77523618D01*
X112555992Y-77551439D01*
X112551835Y-77572301D01*
X112525560Y-77615567D01*
X112501426Y-77628442D01*
X112488682Y-77632443D01*
X112366944Y-77690718D01*
X112358258Y-77696518D01*
X112257772Y-77786615D01*
X112251064Y-77794617D01*
X112179569Y-77909836D01*
X112175728Y-77918209D01*
X112158961Y-77971483D01*
X112157973Y-77975339D01*
X112151515Y-78007746D01*
X112153130Y-78018261D01*
X112157719Y-78022288D01*
X113113991Y-78212850D01*
X113157257Y-78239125D01*
X113173511Y-78287063D01*
X113172102Y-78299885D01*
X113122853Y-78547026D01*
X113096578Y-78590292D01*
X113048640Y-78606546D01*
X113035818Y-78605137D01*
X112083591Y-78415382D01*
X112073076Y-78416997D01*
X112069049Y-78421586D01*
X112061786Y-78458031D01*
X112061218Y-78461986D01*
X112056282Y-78517608D01*
X112056621Y-78526814D01*
X112078487Y-78660635D01*
X112081615Y-78670598D01*
X112139891Y-78792339D01*
X112145686Y-78801019D01*
X112235793Y-78901515D01*
X112246026Y-78910092D01*
X112271359Y-78953916D01*
X112271063Y-78981266D01*
X112214676Y-79264228D01*
X112212157Y-79276867D01*
X112212136Y-79336496D01*
X112214924Y-79343233D01*
X112237466Y-79397704D01*
X112239658Y-79448275D01*
X112208830Y-79488424D01*
X112169090Y-79500000D01*
X111061992Y-79500000D01*
X111015468Y-79483066D01*
X111014370Y-79481554D01*
X110992021Y-79465834D01*
X110986087Y-79461660D01*
X110978763Y-79455779D01*
X110960091Y-79438729D01*
X110960090Y-79438728D01*
X110955790Y-79434802D01*
X110939890Y-79427589D01*
X110927903Y-79420734D01*
X110910896Y-79408772D01*
X110909012Y-79408224D01*
X110906921Y-79407013D01*
X110069419Y-78832390D01*
X110067202Y-78830807D01*
X109657337Y-78526814D01*
X109207467Y-78193149D01*
X109205350Y-78191518D01*
X108369636Y-77522623D01*
X108367554Y-77520892D01*
X108268269Y-77435243D01*
X107937756Y-77150125D01*
X107557065Y-76821721D01*
X107555035Y-76819904D01*
X106770820Y-76091369D01*
X106768859Y-76089479D01*
X106011990Y-75332572D01*
X106010099Y-75330610D01*
X105891433Y-75202862D01*
X105281596Y-74546351D01*
X105279786Y-74544329D01*
X105241550Y-74500000D01*
X104580657Y-73733804D01*
X104578916Y-73731709D01*
X103910075Y-72895977D01*
X103908413Y-72893819D01*
X103270826Y-72034090D01*
X103269243Y-72031873D01*
X102663678Y-71149182D01*
X102662179Y-71146907D01*
X102089555Y-70242588D01*
X102088140Y-70240260D01*
X101549174Y-69315453D01*
X101547846Y-69313075D01*
X101043286Y-68369059D01*
X101042046Y-68366633D01*
X100755380Y-67779257D01*
X100572552Y-67404643D01*
X100571425Y-67402219D01*
X100137676Y-66423641D01*
X100136618Y-66421131D01*
X99854318Y-65715177D01*
X99739180Y-65427248D01*
X99738216Y-65424702D01*
X99737388Y-65422388D01*
X99377624Y-64416849D01*
X99376758Y-64414280D01*
X99372235Y-64400000D01*
X99076282Y-63465738D01*
X99053515Y-63393867D01*
X99052740Y-63391255D01*
X98767271Y-62359624D01*
X98766593Y-62356986D01*
X98519285Y-61315533D01*
X98518705Y-61312871D01*
X98515956Y-61299049D01*
X98309905Y-60263060D01*
X98309425Y-60260395D01*
X98139400Y-59203562D01*
X98139017Y-59200865D01*
X98008007Y-58138504D01*
X98007724Y-58135795D01*
X97915908Y-57069367D01*
X97915724Y-57066649D01*
X97874596Y-56229189D01*
X97863218Y-55997511D01*
X97863135Y-55994796D01*
X97860040Y-55742196D01*
X97850019Y-54924514D01*
X97850035Y-54921790D01*
X97876322Y-53851697D01*
X97876439Y-53848975D01*
X97932426Y-52937905D01*
X97942095Y-52780574D01*
X97942310Y-52777879D01*
X97944558Y-52755064D01*
X97999730Y-52194983D01*
X98047245Y-51712636D01*
X98047562Y-51709930D01*
X98171013Y-50801074D01*
X98191638Y-50649236D01*
X98192052Y-50646562D01*
X98246158Y-50334773D01*
X98296665Y-50043717D01*
X98375061Y-49591950D01*
X98375576Y-49589275D01*
X98597281Y-48542098D01*
X98597894Y-48539443D01*
X98857995Y-47501125D01*
X98858705Y-47498496D01*
X99156849Y-46470448D01*
X99157656Y-46467846D01*
X99493430Y-45451488D01*
X99494332Y-45448917D01*
X99766298Y-44717285D01*
X99867297Y-44445580D01*
X99868290Y-44443053D01*
X100277923Y-43454146D01*
X100279012Y-43451648D01*
X100585703Y-42782089D01*
X100724776Y-42478469D01*
X100725953Y-42476020D01*
X100898662Y-42132917D01*
X101073855Y-41784878D01*
X101207220Y-41519934D01*
X101208489Y-41517524D01*
X101724628Y-40579789D01*
X101725985Y-40577427D01*
X102047437Y-40041129D01*
X102276307Y-39659290D01*
X102277726Y-39657019D01*
X102861461Y-38759777D01*
X102862988Y-38757522D01*
X103479345Y-37882379D01*
X103480955Y-37880181D01*
X104129092Y-37028339D01*
X104130772Y-37026212D01*
X104242324Y-36890289D01*
X104809845Y-36198776D01*
X104811606Y-36196708D01*
X105520669Y-35394833D01*
X105522511Y-35392826D01*
X105933364Y-34961301D01*
X106260602Y-34617597D01*
X106262488Y-34615688D01*
X106608127Y-34278436D01*
X107028628Y-33868138D01*
X107030612Y-33866272D01*
X107481624Y-33457504D01*
X107823751Y-33147424D01*
X107825767Y-33145662D01*
X108644834Y-32456490D01*
X108646922Y-32454797D01*
X109088208Y-32110419D01*
X109490787Y-31796248D01*
X109492965Y-31794612D01*
X110360478Y-31167582D01*
X110362715Y-31166027D01*
X111121473Y-30659049D01*
X111252736Y-30571343D01*
X111254990Y-30569896D01*
X112166304Y-30008368D01*
X112168630Y-30006993D01*
X113100003Y-29479383D01*
X113102397Y-29478085D01*
X114052513Y-28985137D01*
X114054954Y-28983927D01*
X114493439Y-28776542D01*
X115022584Y-28526279D01*
X115025040Y-28525171D01*
X116008890Y-28103434D01*
X116011408Y-28102409D01*
X117010092Y-27717179D01*
X117012651Y-27716246D01*
X118024810Y-27368044D01*
X118027402Y-27367205D01*
X118282167Y-27289923D01*
X119051753Y-27056474D01*
X119054333Y-27055744D01*
X119645770Y-26899861D01*
X120089381Y-26782941D01*
X120092028Y-26782295D01*
X121136415Y-26547772D01*
X121139083Y-26547224D01*
X122191411Y-26351298D01*
X122194098Y-26350849D01*
X123252904Y-26193792D01*
X123255606Y-26193442D01*
X124061800Y-26104038D01*
X124319495Y-26075460D01*
X124322190Y-26075212D01*
X125389696Y-25996468D01*
X125392362Y-25996320D01*
X126462082Y-25956921D01*
X126464805Y-25956871D01*
X127535195Y-25956871D01*
X127537918Y-25956921D01*
G37*
%TD.AperFunction*%
%TD*%
M02*
