%TF.GenerationSoftware,KiCad,Pcbnew,(6.0.1-0)*%
%TF.CreationDate,2022-05-13T10:35:13-07:00*%
%TF.ProjectId,badge_eda,62616467-655f-4656-9461-2e6b69636164,rev?*%
%TF.SameCoordinates,Original*%
%TF.FileFunction,Legend,Top*%
%TF.FilePolarity,Positive*%
%FSLAX46Y46*%
G04 Gerber Fmt 4.6, Leading zero omitted, Abs format (unit mm)*
G04 Created by KiCad (PCBNEW (6.0.1-0)) date 2022-05-13 10:35:13*
%MOMM*%
%LPD*%
G01*
G04 APERTURE LIST*
%ADD10C,0.100000*%
%ADD11C,0.120000*%
G04 APERTURE END LIST*
D10*
%TO.C,D6*%
X153854677Y-136368301D02*
X153518432Y-136435307D01*
X153686555Y-136401804D02*
X153569295Y-135813374D01*
X153530005Y-135908603D01*
X153485132Y-135975811D01*
X153434675Y-136015000D01*
%TO.C,D1*%
X151350267Y-69940853D02*
X151646951Y-70112696D01*
X151498609Y-70026774D02*
X151197884Y-70545970D01*
X151290292Y-70500440D01*
X151368379Y-70479633D01*
X151432147Y-70483550D01*
%TO.C,D12*%
X100833346Y-134670016D02*
X100497101Y-134603010D01*
X100665223Y-134636513D02*
X100782483Y-134048083D01*
X100709691Y-134120977D01*
X100642482Y-134165850D01*
X100580857Y-134182703D01*
%TO.C,D11*%
X97784394Y-150343685D02*
X97519343Y-150561168D01*
X97651869Y-150452427D02*
X97271273Y-149988587D01*
X97281469Y-150091097D01*
X97273541Y-150171520D01*
X97247489Y-150229854D01*
%TO.C,D19*%
X102649721Y-40295147D02*
X102353043Y-40123293D01*
X102501382Y-40209220D02*
X102802125Y-39690035D01*
X102709716Y-39735562D01*
X102631627Y-39756366D01*
X102567860Y-39752447D01*
%TO.C,D20*%
X113373734Y-30085887D02*
X113203187Y-29788457D01*
X113288461Y-29937172D02*
X113808964Y-29638715D01*
X113706182Y-29631780D01*
X113628186Y-29610633D01*
X113574975Y-29575273D01*
%TO.C,D2*%
X142475477Y-79294501D02*
X142139232Y-79361507D01*
X142307355Y-79328004D02*
X142190095Y-78739574D01*
X142150805Y-78834803D01*
X142105932Y-78902011D01*
X142055475Y-78941200D01*
%TO.C,D17*%
X102019641Y-68853013D02*
X101722957Y-69024856D01*
X101871299Y-68938935D02*
X101570574Y-68419739D01*
X101564087Y-68522550D01*
X101543280Y-68600638D01*
X101508153Y-68654002D01*
%TO.C,D7*%
X155338870Y-151952686D02*
X155073819Y-151735203D01*
X155206344Y-151843945D02*
X155586940Y-151380105D01*
X155488394Y-151410121D01*
X155407971Y-151418049D01*
X155345673Y-151403889D01*
%TO.C,D3*%
X145320277Y-93569301D02*
X144984032Y-93636307D01*
X145152155Y-93602804D02*
X145034895Y-93014374D01*
X144995605Y-93109603D01*
X144950732Y-93176811D01*
X144900275Y-93216000D01*
%TO.C,D9*%
X126371428Y-151388571D02*
X126371428Y-151731428D01*
X126371428Y-151560000D02*
X125771428Y-151560000D01*
X125857142Y-151617142D01*
X125914285Y-151674285D01*
X125942857Y-151731428D01*
%TO.C,D16*%
X112212546Y-77596216D02*
X111876301Y-77529210D01*
X112044423Y-77562713D02*
X112161683Y-76974283D01*
X112088891Y-77047177D01*
X112021682Y-77092050D01*
X111960057Y-77108903D01*
%TO.C,D18*%
X98496628Y-54489428D02*
X98153771Y-54489428D01*
X98325200Y-54489428D02*
X98325200Y-53889428D01*
X98268057Y-53975142D01*
X98210914Y-54032285D01*
X98153771Y-54060857D01*
%TO.C,D13*%
X103678146Y-120420616D02*
X103341901Y-120353610D01*
X103510023Y-120387113D02*
X103627283Y-119798683D01*
X103554491Y-119871577D01*
X103487282Y-119916450D01*
X103425657Y-119933303D01*
%TO.C,D15*%
X109367746Y-91871016D02*
X109031501Y-91804010D01*
X109199623Y-91837513D02*
X109316883Y-91249083D01*
X109244091Y-91321977D01*
X109176882Y-91366850D01*
X109115257Y-91383703D01*
%TO.C,D5*%
X151009877Y-122118901D02*
X150673632Y-122185907D01*
X150841755Y-122152404D02*
X150724495Y-121563974D01*
X150685205Y-121659203D01*
X150640332Y-121726411D01*
X150589875Y-121765600D01*
%TO.C,D21*%
X142358322Y-30683828D02*
X142187775Y-30981258D01*
X142273048Y-30832543D02*
X141752545Y-30534086D01*
X141798478Y-30626294D01*
X141819625Y-30704290D01*
X141815987Y-30768074D01*
%TO.C,D14*%
X106522946Y-106145816D02*
X106186701Y-106078810D01*
X106354823Y-106112313D02*
X106472083Y-105523883D01*
X106399291Y-105596777D01*
X106332082Y-105641650D01*
X106270457Y-105658503D01*
%TO.C,D8*%
X140189028Y-151388571D02*
X140189028Y-151731428D01*
X140189028Y-151560000D02*
X139589028Y-151560000D01*
X139674742Y-151617142D01*
X139731885Y-151674285D01*
X139760457Y-151731428D01*
%TO.C,D10*%
X112553828Y-151388571D02*
X112553828Y-151731428D01*
X112553828Y-151560000D02*
X111953828Y-151560000D01*
X112039542Y-151617142D01*
X112096685Y-151674285D01*
X112125257Y-151731428D01*
%TO.C,D4*%
X148165077Y-107844101D02*
X147828832Y-107911107D01*
X147996955Y-107877604D02*
X147879695Y-107289174D01*
X147840405Y-107384403D01*
X147795532Y-107451611D01*
X147745075Y-107490800D01*
D11*
%TO.C,TP1*%
X144300000Y-34900000D02*
X144300000Y-33500000D01*
X145700000Y-33500000D02*
X145700000Y-34900000D01*
X144300000Y-33500000D02*
X145700000Y-33500000D01*
X145700000Y-34900000D02*
X144300000Y-34900000D01*
%TO.C,D6*%
X152693655Y-133977677D02*
X152007153Y-134114480D01*
%TO.C,D1*%
X152082684Y-68020793D02*
X151476955Y-67669947D01*
%TO.C,D12*%
X100759134Y-136723685D02*
X101445636Y-136860488D01*
%TO.C,D11*%
X99325177Y-151703483D02*
X99866323Y-151259455D01*
%TO.C,D19*%
X101917316Y-42215207D02*
X102523045Y-42566053D01*
%TO.C,D20*%
X111777379Y-31379993D02*
X112125579Y-31987247D01*
%TO.C,D2*%
X141314455Y-76903877D02*
X140627953Y-77040680D01*
%TO.C,D17*%
X103320700Y-70443707D02*
X103926429Y-70092861D01*
%TO.C,D7*%
X156450935Y-149538899D02*
X155909789Y-149094871D01*
%TO.C,D3*%
X144159255Y-91178677D02*
X143472753Y-91315480D01*
%TO.C,D9*%
X128400000Y-151060000D02*
X128400000Y-150360000D01*
%TO.C,D16*%
X112138334Y-79649885D02*
X112824836Y-79786688D01*
%TO.C,D18*%
X98825200Y-56518000D02*
X99525200Y-56518000D01*
%TO.C,D13*%
X103603934Y-122474285D02*
X104290436Y-122611088D01*
%TO.C,D15*%
X109293534Y-93924685D02*
X109980036Y-94061488D01*
%TO.C,D5*%
X149848855Y-119728277D02*
X149162353Y-119865080D01*
%TO.C,D21*%
X139793607Y-29987194D02*
X139445407Y-30594448D01*
%TO.C,D14*%
X106448734Y-108199485D02*
X107135236Y-108336288D01*
%TO.C,TP2*%
X144300000Y-36900000D02*
X144300000Y-35500000D01*
X145700000Y-35500000D02*
X145700000Y-36900000D01*
X144300000Y-35500000D02*
X145700000Y-35500000D01*
X145700000Y-36900000D02*
X144300000Y-36900000D01*
%TO.C,D8*%
X142217600Y-151060000D02*
X142217600Y-150360000D01*
%TO.C,D10*%
X114582400Y-151060000D02*
X114582400Y-150360000D01*
%TO.C,D4*%
X147004055Y-105453477D02*
X146317553Y-105590280D01*
%TD*%
M02*
