%TF.GenerationSoftware,KiCad,Pcbnew,(6.0.1-0)*%
%TF.CreationDate,2022-05-13T10:35:12-07:00*%
%TF.ProjectId,badge_eda,62616467-655f-4656-9461-2e6b69636164,rev?*%
%TF.SameCoordinates,Original*%
%TF.FileFunction,Paste,Top*%
%TF.FilePolarity,Positive*%
%FSLAX46Y46*%
G04 Gerber Fmt 4.6, Leading zero omitted, Abs format (unit mm)*
G04 Created by KiCad (PCBNEW (6.0.1-0)) date 2022-05-13 10:35:12*
%MOMM*%
%LPD*%
G01*
G04 APERTURE LIST*
G04 Aperture macros list*
%AMRotRect*
0 Rectangle, with rotation*
0 The origin of the aperture is its center*
0 $1 length*
0 $2 width*
0 $3 Rotation angle, in degrees counterclockwise*
0 Add horizontal line*
21,1,$1,$2,0,0,$3*%
G04 Aperture macros list end*
%ADD10RotRect,0.700000X0.400000X191.270000*%
%ADD11RotRect,0.700000X0.400000X149.920000*%
%ADD12RotRect,0.700000X0.400000X348.730000*%
%ADD13RotRect,0.700000X0.400000X39.370000*%
%ADD14RotRect,0.700000X0.400000X329.920000*%
%ADD15RotRect,0.700000X0.400000X299.830000*%
%ADD16RotRect,0.700000X0.400000X30.080000*%
%ADD17RotRect,0.700000X0.400000X140.630000*%
%ADD18R,0.400000X0.700000*%
%ADD19R,0.700000X0.400000*%
%ADD20RotRect,0.700000X0.400000X240.170000*%
G04 APERTURE END LIST*
D10*
%TO.C,D6*%
X152584212Y-136242742D03*
X152427866Y-135458169D03*
X152271520Y-134673595D03*
X150996588Y-134927658D03*
X151152934Y-135712231D03*
X151309280Y-136496805D03*
%TD*%
D11*
%TO.C,D1*%
X150504095Y-69648847D03*
X150905062Y-68956586D03*
X151306029Y-68264325D03*
X150181105Y-67612753D03*
X149780138Y-68305014D03*
X149379171Y-68997275D03*
%TD*%
D12*
%TO.C,D12*%
X101728480Y-134673595D03*
X101572134Y-135458169D03*
X101415788Y-136242742D03*
X102690720Y-136496805D03*
X102847066Y-135712231D03*
X103003412Y-134927658D03*
%TD*%
D13*
%TO.C,D11*%
X98354847Y-149653859D03*
X98862307Y-150272312D03*
X99369768Y-150890764D03*
X100374753Y-150066141D03*
X99867293Y-149447688D03*
X99359832Y-148829236D03*
%TD*%
D14*
%TO.C,D19*%
X103495905Y-40587153D03*
X103094938Y-41279414D03*
X102693971Y-41971675D03*
X103818895Y-42623247D03*
X104219862Y-41930986D03*
X104620829Y-41238725D03*
%TD*%
D15*
%TO.C,D20*%
X113959476Y-30762779D03*
X113265472Y-31160722D03*
X112571468Y-31558664D03*
X113218124Y-32686421D03*
X113912128Y-32288478D03*
X114606132Y-31890536D03*
%TD*%
D10*
%TO.C,D2*%
X141205012Y-79168942D03*
X141048666Y-78384369D03*
X140892320Y-77599795D03*
X139617388Y-77853858D03*
X139773734Y-78638431D03*
X139930080Y-79423005D03*
%TD*%
D16*
%TO.C,D17*%
X102693971Y-68264325D03*
X103094938Y-68956586D03*
X103495905Y-69648847D03*
X104620829Y-68997275D03*
X104219862Y-68305014D03*
X103818895Y-67612753D03*
%TD*%
D17*
%TO.C,D7*%
X154630232Y-150890764D03*
X155137693Y-150272312D03*
X155645153Y-149653859D03*
X154640168Y-148829236D03*
X154132707Y-149447688D03*
X153625247Y-150066141D03*
%TD*%
D10*
%TO.C,D3*%
X144049812Y-93443742D03*
X143893466Y-92659169D03*
X143737120Y-91874595D03*
X142462188Y-92128658D03*
X142618534Y-92913231D03*
X142774880Y-93697805D03*
%TD*%
D18*
%TO.C,D9*%
X126200000Y-150510000D03*
X127000000Y-150510000D03*
X127800000Y-150510000D03*
X127800000Y-149210000D03*
X127000000Y-149210000D03*
X126200000Y-149210000D03*
%TD*%
D12*
%TO.C,D16*%
X113107680Y-77599795D03*
X112951334Y-78384369D03*
X112794988Y-79168942D03*
X114069920Y-79423005D03*
X114226266Y-78638431D03*
X114382612Y-77853858D03*
%TD*%
D19*
%TO.C,D18*%
X99375200Y-54318000D03*
X99375200Y-55118000D03*
X99375200Y-55918000D03*
X100675200Y-55918000D03*
X100675200Y-55118000D03*
X100675200Y-54318000D03*
%TD*%
D12*
%TO.C,D13*%
X104573280Y-120424195D03*
X104416934Y-121208769D03*
X104260588Y-121993342D03*
X105535520Y-122247405D03*
X105691866Y-121462831D03*
X105848212Y-120678258D03*
%TD*%
%TO.C,D15*%
X110262880Y-91874595D03*
X110106534Y-92659169D03*
X109950188Y-93443742D03*
X111225120Y-93697805D03*
X111381466Y-92913231D03*
X111537812Y-92128658D03*
%TD*%
D10*
%TO.C,D5*%
X149739412Y-121993342D03*
X149583066Y-121208769D03*
X149426720Y-120424195D03*
X148151788Y-120678258D03*
X148308134Y-121462831D03*
X148464480Y-122247405D03*
%TD*%
D20*
%TO.C,D21*%
X141428532Y-31558664D03*
X140734528Y-31160722D03*
X140040524Y-30762779D03*
X139393868Y-31890536D03*
X140087872Y-32288478D03*
X140781876Y-32686421D03*
%TD*%
D12*
%TO.C,D14*%
X107418080Y-106149395D03*
X107261734Y-106933969D03*
X107105388Y-107718542D03*
X108380320Y-107972605D03*
X108536666Y-107188031D03*
X108693012Y-106403458D03*
%TD*%
D18*
%TO.C,D8*%
X140017600Y-150510000D03*
X140817600Y-150510000D03*
X141617600Y-150510000D03*
X141617600Y-149210000D03*
X140817600Y-149210000D03*
X140017600Y-149210000D03*
%TD*%
%TO.C,D10*%
X112382400Y-150510000D03*
X113182400Y-150510000D03*
X113982400Y-150510000D03*
X113982400Y-149210000D03*
X113182400Y-149210000D03*
X112382400Y-149210000D03*
%TD*%
D10*
%TO.C,D4*%
X146894612Y-107718542D03*
X146738266Y-106933969D03*
X146581920Y-106149395D03*
X145306988Y-106403458D03*
X145463334Y-107188031D03*
X145619680Y-107972605D03*
%TD*%
M02*
