M48
; DRILL file {KiCad (6.0.1-0)} date Friday, May 13, 2022 at 10:35:30 AM
; FORMAT={-:-/ absolute / inch / decimal}
; #@! TF.CreationDate,2022-05-13T10:35:30-07:00
; #@! TF.GenerationSoftware,Kicad,Pcbnew,(6.0.1-0)
; #@! TF.FileFunction,MixedPlating,1,2
FMAT,2
INCH
; #@! TA.AperFunction,Plated,PTH,ViaDrill
T1C0.0118
; #@! TA.AperFunction,NonPlated,NPTH,ComponentDrill
T2C0.0197
; #@! TA.AperFunction,NonPlated,NPTH,ComponentDrill
T3C0.1378
%
G90
G05
T1
X3.9381Y-5.4421
X4.2441Y-4.7087
X4.2517Y-5.7404
X4.2677Y-4.7323
X4.2835Y-5.4843
X4.2837Y-5.7084
X4.2913Y-2.4409
X4.2913Y-4.7087
X4.315Y-4.7323
X4.3386Y-4.7087
X4.3622Y-4.7323
X4.4016Y-5.2756
X4.4016Y-5.315
X4.4409Y-1.3701
X4.4961Y-5.5354
X4.5039Y-5.315
X4.5118Y-5.5866
X4.5236Y-5.4567
X4.5593Y-2.2286
X4.5669Y-2.7008
X4.5906Y-5.3829
X4.6181Y-5.3622
X4.622Y-2.3858
X4.6299Y-5.5591
X4.6299Y-5.6142
X4.6299Y-5.6457
X4.6339Y-5.5
X4.6457Y-1.2795
X4.6693Y-5.5866
X4.6929Y-5.4961
X4.7047Y-2.6969
X4.7165Y-2.4134
X4.7323Y-1.6614
X4.748Y-2.4094
X4.7795Y-2.4016
X4.7874Y-1.7244
X4.7874Y-5.3858
X4.8031Y-2.9134
X4.8031Y-3.0315
X4.811Y-5.2992
X4.8189Y-1.685
X4.8189Y-2.4094
X4.8268Y-5.3858
X4.8425Y-2.9528
X4.8425Y-3.0709
X4.8425Y-3.1102
X4.8465Y-5.5118
X4.8543Y-5.6063
X4.8583Y-5.2913
X4.8583Y-5.6457
X4.8583Y-5.685
X4.8819Y-2.9134
X4.8819Y-2.9528
X4.8819Y-3.0315
X4.8819Y-3.0709
X4.9016Y-4.7835
X4.9134Y-1.685
X4.9213Y-2.9134
X4.9213Y-2.9921
X4.9213Y-3.0709
X4.9213Y-3.1102
X4.9606Y-2.9921
X4.9606Y-3.0709
X4.9606Y-5.6142
X4.9685Y-5.4252
X4.9882Y-4.6693
X5.0Y-2.9134
X5.0Y-2.9921
X5.0Y-3.0315
X5.0Y-3.0709
X5.0079Y-1.685
X5.0157Y-2.7323
X5.0394Y-2.9921
X5.0394Y-3.0315
X5.0394Y-3.0709
X5.0472Y-2.2362
X5.0472Y-5.4173
X5.0787Y-2.9134
X5.0787Y-2.9921
X5.0787Y-3.0315
X5.0787Y-3.0709
X5.1181Y-2.9528
X5.1181Y-3.0315
X5.1339Y-5.315
X5.1339Y-5.4646
X5.1378Y-2.3228
X5.1378Y-2.5984
X5.1575Y-2.9134
X5.1575Y-2.9528
X5.1575Y-3.0709
X5.1732Y-5.9606
X5.1969Y-2.9134
X5.1969Y-3.0709
X5.2126Y-5.4961
X5.2362Y-2.9134
X5.2362Y-3.0315
X5.2362Y-3.0709
X5.2362Y-3.1102
X5.2441Y-5.315
X5.2756Y-5.6142
X5.2835Y-5.4852
X5.4134Y-1.4173
X5.4213Y-5.7244
X5.4803Y-2.7874
X5.4803Y-2.9606
X5.5065Y-2.4659
X5.5118Y-2.9331
X5.5315Y-2.7835
X5.5512Y-1.3583
X5.5591Y-1.189
X5.5709Y-1.6142
X5.5709Y-2.4606
X5.6063Y-4.0709
X5.6063Y-5.5906
X5.6299Y-2.4606
X5.6299Y-4.0472
X5.6457Y-5.2835
X5.6654Y-5.7244
X5.6772Y-4.752
X5.6772Y-5.5433
X5.6772Y-5.622
X5.689Y-2.4606
X5.7087Y-4.4409
X5.748Y-4.6457
X5.7559Y-2.5866
X5.8189Y-2.252
X5.8661Y-5.2756
X5.9449Y-2.2717
X5.9449Y-2.4213
X5.9528Y-2.6142
X5.9921Y-2.5354
X5.9921Y-2.6142
X6.0619Y-5.4421
X6.1024Y-2.2638
X6.1407Y-5.9491
T2
X5.6299Y-4.3398
T3
G00X4.7736Y-1.274
M15
G01X5.2264Y-1.274
M16
G05
T0
M30
