%TF.GenerationSoftware,KiCad,Pcbnew,(6.0.1-0)*%
%TF.CreationDate,2022-05-18T17:32:03-07:00*%
%TF.ProjectId,badge_jig,62616467-655f-46a6-9967-2e6b69636164,rev?*%
%TF.SameCoordinates,Original*%
%TF.FileFunction,Legend,Bot*%
%TF.FilePolarity,Positive*%
%FSLAX46Y46*%
G04 Gerber Fmt 4.6, Leading zero omitted, Abs format (unit mm)*
G04 Created by KiCad (PCBNEW (6.0.1-0)) date 2022-05-18 17:32:03*
%MOMM*%
%LPD*%
G01*
G04 APERTURE LIST*
%ADD10C,0.150000*%
%ADD11C,0.125000*%
G04 APERTURE END LIST*
D10*
X138200000Y-104250000D02*
X137800000Y-104850000D01*
G36*
X134200000Y-113000000D02*
G01*
X133900000Y-113000000D01*
X133900000Y-112700000D01*
X134200000Y-112700000D01*
X134200000Y-113000000D01*
G37*
G36*
X134800000Y-119000000D02*
G01*
X134500000Y-119000000D01*
X134500000Y-118700000D01*
X134800000Y-118700000D01*
X134800000Y-119000000D01*
G37*
G36*
X132400000Y-116000000D02*
G01*
X132100000Y-116000000D01*
X132100000Y-115700000D01*
X132400000Y-115700000D01*
X132400000Y-116000000D01*
G37*
X137000000Y-106050000D02*
X137800000Y-106050000D01*
G36*
X133000000Y-120200000D02*
G01*
X132700000Y-120200000D01*
X132700000Y-119900000D01*
X133000000Y-119900000D01*
X133000000Y-120200000D01*
G37*
X137800000Y-107250000D02*
X138200000Y-107850000D01*
G36*
X130600000Y-117800000D02*
G01*
X130300000Y-117800000D01*
X130300000Y-117500000D01*
X130600000Y-117500000D01*
X130600000Y-117800000D01*
G37*
X137800000Y-107250000D02*
X137000000Y-107250000D01*
G36*
X131500000Y-119600000D02*
G01*
X131200000Y-119600000D01*
X131200000Y-119300000D01*
X131500000Y-119300000D01*
X131500000Y-119600000D01*
G37*
G36*
X133600000Y-120200000D02*
G01*
X133300000Y-120200000D01*
X133300000Y-119900000D01*
X133600000Y-119900000D01*
X133600000Y-120200000D01*
G37*
G36*
X133000000Y-113000000D02*
G01*
X132700000Y-113000000D01*
X132700000Y-112700000D01*
X133000000Y-112700000D01*
X133000000Y-113000000D01*
G37*
X136100000Y-107950000D02*
X136400000Y-107850000D01*
G36*
X130600000Y-116900000D02*
G01*
X130300000Y-116900000D01*
X130300000Y-116600000D01*
X130600000Y-116600000D01*
X130600000Y-116900000D01*
G37*
X139400000Y-104850000D02*
X139000000Y-104250000D01*
G36*
X133300000Y-116900000D02*
G01*
X133000000Y-116900000D01*
X133000000Y-116600000D01*
X133300000Y-116600000D01*
X133300000Y-116900000D01*
G37*
G36*
X132400000Y-111800000D02*
G01*
X132100000Y-111800000D01*
X132100000Y-111500000D01*
X132400000Y-111500000D01*
X132400000Y-111800000D01*
G37*
G36*
X133900000Y-115700000D02*
G01*
X133600000Y-115700000D01*
X133600000Y-115400000D01*
X133900000Y-115400000D01*
X133900000Y-115700000D01*
G37*
G36*
X132100000Y-117200000D02*
G01*
X131800000Y-117200000D01*
X131800000Y-116900000D01*
X132100000Y-116900000D01*
X132100000Y-117200000D01*
G37*
G36*
X134800000Y-114800000D02*
G01*
X134500000Y-114800000D01*
X134500000Y-114500000D01*
X134800000Y-114500000D01*
X134800000Y-114800000D01*
G37*
G36*
X130600000Y-114800000D02*
G01*
X130300000Y-114800000D01*
X130300000Y-114500000D01*
X130600000Y-114500000D01*
X130600000Y-114800000D01*
G37*
X136100000Y-108050000D02*
X136100000Y-107650000D01*
G36*
X133900000Y-119000000D02*
G01*
X133600000Y-119000000D01*
X133600000Y-118700000D01*
X133900000Y-118700000D01*
X133900000Y-119000000D01*
G37*
G36*
X134200000Y-117200000D02*
G01*
X133900000Y-117200000D01*
X133900000Y-116900000D01*
X134200000Y-116900000D01*
X134200000Y-117200000D01*
G37*
G36*
X131800000Y-112400000D02*
G01*
X131500000Y-112400000D01*
X131500000Y-112100000D01*
X131800000Y-112100000D01*
X131800000Y-112400000D01*
G37*
G36*
X134800000Y-114200000D02*
G01*
X134500000Y-114200000D01*
X134500000Y-113900000D01*
X134800000Y-113900000D01*
X134800000Y-114200000D01*
G37*
G36*
X134800000Y-113900000D02*
G01*
X134500000Y-113900000D01*
X134500000Y-113600000D01*
X134800000Y-113600000D01*
X134800000Y-113900000D01*
G37*
G36*
X132100000Y-113600000D02*
G01*
X131800000Y-113600000D01*
X131800000Y-113300000D01*
X132100000Y-113300000D01*
X132100000Y-113600000D01*
G37*
G36*
X132100000Y-112700000D02*
G01*
X131800000Y-112700000D01*
X131800000Y-112400000D01*
X132100000Y-112400000D01*
X132100000Y-112700000D01*
G37*
G36*
X132700000Y-116000000D02*
G01*
X132400000Y-116000000D01*
X132400000Y-115700000D01*
X132700000Y-115700000D01*
X132700000Y-116000000D01*
G37*
G36*
X134800000Y-117800000D02*
G01*
X134500000Y-117800000D01*
X134500000Y-117500000D01*
X134800000Y-117500000D01*
X134800000Y-117800000D01*
G37*
G36*
X134200000Y-119900000D02*
G01*
X133900000Y-119900000D01*
X133900000Y-119600000D01*
X134200000Y-119600000D01*
X134200000Y-119900000D01*
G37*
G36*
X134800000Y-118400000D02*
G01*
X134500000Y-118400000D01*
X134500000Y-118100000D01*
X134800000Y-118100000D01*
X134800000Y-118400000D01*
G37*
G36*
X134200000Y-112700000D02*
G01*
X133900000Y-112700000D01*
X133900000Y-112400000D01*
X134200000Y-112400000D01*
X134200000Y-112700000D01*
G37*
X138300000Y-107050000D02*
X137800000Y-107250000D01*
G36*
X130600000Y-116300000D02*
G01*
X130300000Y-116300000D01*
X130300000Y-116000000D01*
X130600000Y-116000000D01*
X130600000Y-116300000D01*
G37*
G36*
X135100000Y-117800000D02*
G01*
X134800000Y-117800000D01*
X134800000Y-117500000D01*
X135100000Y-117500000D01*
X135100000Y-117800000D01*
G37*
X138300000Y-107450000D02*
X138300000Y-107050000D01*
G36*
X133600000Y-115700000D02*
G01*
X133300000Y-115700000D01*
X133300000Y-115400000D01*
X133600000Y-115400000D01*
X133600000Y-115700000D01*
G37*
G36*
X135400000Y-116600000D02*
G01*
X135100000Y-116600000D01*
X135100000Y-116300000D01*
X135400000Y-116300000D01*
X135400000Y-116600000D01*
G37*
G36*
X134200000Y-113300000D02*
G01*
X133900000Y-113300000D01*
X133900000Y-113000000D01*
X134200000Y-113000000D01*
X134200000Y-113300000D01*
G37*
G36*
X133300000Y-119300000D02*
G01*
X133000000Y-119300000D01*
X133000000Y-119000000D01*
X133300000Y-119000000D01*
X133300000Y-119300000D01*
G37*
G36*
X133900000Y-113300000D02*
G01*
X133600000Y-113300000D01*
X133600000Y-113000000D01*
X133900000Y-113000000D01*
X133900000Y-113300000D01*
G37*
G36*
X134500000Y-113900000D02*
G01*
X134200000Y-113900000D01*
X134200000Y-113600000D01*
X134500000Y-113600000D01*
X134500000Y-113900000D01*
G37*
X140970000Y-102235000D02*
X140970000Y-111125000D01*
G36*
X132400000Y-117500000D02*
G01*
X132100000Y-117500000D01*
X132100000Y-117200000D01*
X132400000Y-117200000D01*
X132400000Y-117500000D01*
G37*
G36*
X131800000Y-118700000D02*
G01*
X131500000Y-118700000D01*
X131500000Y-118400000D01*
X131800000Y-118400000D01*
X131800000Y-118700000D01*
G37*
G36*
X133300000Y-114500000D02*
G01*
X133000000Y-114500000D01*
X133000000Y-114200000D01*
X133300000Y-114200000D01*
X133300000Y-114500000D01*
G37*
G36*
X130600000Y-118100000D02*
G01*
X130300000Y-118100000D01*
X130300000Y-117800000D01*
X130600000Y-117800000D01*
X130600000Y-118100000D01*
G37*
X143510000Y-102235000D02*
X143510000Y-114935000D01*
G36*
X134800000Y-115700000D02*
G01*
X134500000Y-115700000D01*
X134500000Y-115400000D01*
X134800000Y-115400000D01*
X134800000Y-115700000D01*
G37*
G36*
X135400000Y-116900000D02*
G01*
X135100000Y-116900000D01*
X135100000Y-116600000D01*
X135400000Y-116600000D01*
X135400000Y-116900000D01*
G37*
G36*
X132100000Y-118700000D02*
G01*
X131800000Y-118700000D01*
X131800000Y-118400000D01*
X132100000Y-118400000D01*
X132100000Y-118700000D01*
G37*
G36*
X133900000Y-118100000D02*
G01*
X133600000Y-118100000D01*
X133600000Y-117800000D01*
X133900000Y-117800000D01*
X133900000Y-118100000D01*
G37*
G36*
X133000000Y-119300000D02*
G01*
X132700000Y-119300000D01*
X132700000Y-119000000D01*
X133000000Y-119000000D01*
X133000000Y-119300000D01*
G37*
G36*
X134500000Y-119600000D02*
G01*
X134200000Y-119600000D01*
X134200000Y-119300000D01*
X134500000Y-119300000D01*
X134500000Y-119600000D01*
G37*
G36*
X130600000Y-114500000D02*
G01*
X130300000Y-114500000D01*
X130300000Y-114200000D01*
X130600000Y-114200000D01*
X130600000Y-114500000D01*
G37*
X146050000Y-112395000D02*
X141605000Y-112395000D01*
G36*
X130900000Y-118400000D02*
G01*
X130600000Y-118400000D01*
X130600000Y-118100000D01*
X130900000Y-118100000D01*
X130900000Y-118400000D01*
G37*
G36*
X133600000Y-115100000D02*
G01*
X133300000Y-115100000D01*
X133300000Y-114800000D01*
X133600000Y-114800000D01*
X133600000Y-115100000D01*
G37*
X139000000Y-106650000D02*
X138200000Y-106650000D01*
G36*
X133000000Y-113600000D02*
G01*
X132700000Y-113600000D01*
X132700000Y-113300000D01*
X133000000Y-113300000D01*
X133000000Y-113600000D01*
G37*
G36*
X133000000Y-117200000D02*
G01*
X132700000Y-117200000D01*
X132700000Y-116900000D01*
X133000000Y-116900000D01*
X133000000Y-117200000D01*
G37*
G36*
X132700000Y-112400000D02*
G01*
X132400000Y-112400000D01*
X132400000Y-112100000D01*
X132700000Y-112100000D01*
X132700000Y-112400000D01*
G37*
X137400000Y-108450000D02*
X136600000Y-107850000D01*
X136500000Y-107450000D02*
X136500000Y-107050000D01*
X138300000Y-106250000D02*
X138300000Y-105850000D01*
G36*
X130600000Y-115100000D02*
G01*
X130300000Y-115100000D01*
X130300000Y-114800000D01*
X130600000Y-114800000D01*
X130600000Y-115100000D01*
G37*
G36*
X134800000Y-118100000D02*
G01*
X134500000Y-118100000D01*
X134500000Y-117800000D01*
X134800000Y-117800000D01*
X134800000Y-118100000D01*
G37*
G36*
X131500000Y-118700000D02*
G01*
X131200000Y-118700000D01*
X131200000Y-118400000D01*
X131500000Y-118400000D01*
X131500000Y-118700000D01*
G37*
G36*
X133900000Y-114800000D02*
G01*
X133600000Y-114800000D01*
X133600000Y-114500000D01*
X133900000Y-114500000D01*
X133900000Y-114800000D01*
G37*
G36*
X133900000Y-113600000D02*
G01*
X133600000Y-113600000D01*
X133600000Y-113300000D01*
X133900000Y-113300000D01*
X133900000Y-113600000D01*
G37*
G36*
X134800000Y-119300000D02*
G01*
X134500000Y-119300000D01*
X134500000Y-119000000D01*
X134800000Y-119000000D01*
X134800000Y-119300000D01*
G37*
G36*
X135100000Y-117200000D02*
G01*
X134800000Y-117200000D01*
X134800000Y-116900000D01*
X135100000Y-116900000D01*
X135100000Y-117200000D01*
G37*
G36*
X131500000Y-116600000D02*
G01*
X131200000Y-116600000D01*
X131200000Y-116300000D01*
X131500000Y-116300000D01*
X131500000Y-116600000D01*
G37*
G36*
X132100000Y-119900000D02*
G01*
X131800000Y-119900000D01*
X131800000Y-119600000D01*
X132100000Y-119600000D01*
X132100000Y-119900000D01*
G37*
G36*
X131200000Y-115700000D02*
G01*
X130900000Y-115700000D01*
X130900000Y-115400000D01*
X131200000Y-115400000D01*
X131200000Y-115700000D01*
G37*
G36*
X135100000Y-113000000D02*
G01*
X134800000Y-113000000D01*
X134800000Y-112700000D01*
X135100000Y-112700000D01*
X135100000Y-113000000D01*
G37*
G36*
X131500000Y-119300000D02*
G01*
X131200000Y-119300000D01*
X131200000Y-119000000D01*
X131500000Y-119000000D01*
X131500000Y-119300000D01*
G37*
G36*
X135100000Y-112700000D02*
G01*
X134800000Y-112700000D01*
X134800000Y-112400000D01*
X135100000Y-112400000D01*
X135100000Y-112700000D01*
G37*
G36*
X135400000Y-118100000D02*
G01*
X135100000Y-118100000D01*
X135100000Y-117800000D01*
X135400000Y-117800000D01*
X135400000Y-118100000D01*
G37*
X137800000Y-107250000D02*
X138300000Y-107450000D01*
X137700000Y-106850000D02*
X137700000Y-106450000D01*
G36*
X133900000Y-120200000D02*
G01*
X133600000Y-120200000D01*
X133600000Y-119900000D01*
X133900000Y-119900000D01*
X133900000Y-120200000D01*
G37*
X138200000Y-106650000D02*
X137700000Y-106850000D01*
G36*
X134800000Y-116300000D02*
G01*
X134500000Y-116300000D01*
X134500000Y-116000000D01*
X134800000Y-116000000D01*
X134800000Y-116300000D01*
G37*
X139400000Y-106050000D02*
X139000000Y-106650000D01*
G36*
X134500000Y-116300000D02*
G01*
X134200000Y-116300000D01*
X134200000Y-116000000D01*
X134500000Y-116000000D01*
X134500000Y-116300000D01*
G37*
G36*
X133300000Y-118400000D02*
G01*
X133000000Y-118400000D01*
X133000000Y-118100000D01*
X133300000Y-118100000D01*
X133300000Y-118400000D01*
G37*
G36*
X134800000Y-116900000D02*
G01*
X134500000Y-116900000D01*
X134500000Y-116600000D01*
X134800000Y-116600000D01*
X134800000Y-116900000D01*
G37*
G36*
X134800000Y-115400000D02*
G01*
X134500000Y-115400000D01*
X134500000Y-115100000D01*
X134800000Y-115100000D01*
X134800000Y-115400000D01*
G37*
X139000000Y-104250000D02*
X138200000Y-104250000D01*
G36*
X130900000Y-113900000D02*
G01*
X130600000Y-113900000D01*
X130600000Y-113600000D01*
X130900000Y-113600000D01*
X130900000Y-113900000D01*
G37*
G36*
X132400000Y-118400000D02*
G01*
X132100000Y-118400000D01*
X132100000Y-118100000D01*
X132400000Y-118100000D01*
X132400000Y-118400000D01*
G37*
X136100000Y-107650000D02*
X136600000Y-107850000D01*
G36*
X135400000Y-118700000D02*
G01*
X135100000Y-118700000D01*
X135100000Y-118400000D01*
X135400000Y-118400000D01*
X135400000Y-118700000D01*
G37*
G36*
X131500000Y-114800000D02*
G01*
X131200000Y-114800000D01*
X131200000Y-114500000D01*
X131500000Y-114500000D01*
X131500000Y-114800000D01*
G37*
G36*
X134800000Y-113300000D02*
G01*
X134500000Y-113300000D01*
X134500000Y-113000000D01*
X134800000Y-113000000D01*
X134800000Y-113300000D01*
G37*
G36*
X132700000Y-113600000D02*
G01*
X132400000Y-113600000D01*
X132400000Y-113300000D01*
X132700000Y-113300000D01*
X132700000Y-113600000D01*
G37*
G36*
X133000000Y-113300000D02*
G01*
X132700000Y-113300000D01*
X132700000Y-113000000D01*
X133000000Y-113000000D01*
X133000000Y-113300000D01*
G37*
G36*
X134200000Y-113600000D02*
G01*
X133900000Y-113600000D01*
X133900000Y-113300000D01*
X134200000Y-113300000D01*
X134200000Y-113600000D01*
G37*
G36*
X134200000Y-117800000D02*
G01*
X133900000Y-117800000D01*
X133900000Y-117500000D01*
X134200000Y-117500000D01*
X134200000Y-117800000D01*
G37*
X136800000Y-107250000D02*
X136500000Y-107150000D01*
G36*
X135100000Y-118700000D02*
G01*
X134800000Y-118700000D01*
X134800000Y-118400000D01*
X135100000Y-118400000D01*
X135100000Y-118700000D01*
G37*
G36*
X133300000Y-113600000D02*
G01*
X133000000Y-113600000D01*
X133000000Y-113300000D01*
X133300000Y-113300000D01*
X133300000Y-113600000D01*
G37*
G36*
X132100000Y-111500000D02*
G01*
X131800000Y-111500000D01*
X131800000Y-111200000D01*
X132100000Y-111200000D01*
X132100000Y-111500000D01*
G37*
G36*
X131800000Y-117800000D02*
G01*
X131500000Y-117800000D01*
X131500000Y-117500000D01*
X131800000Y-117500000D01*
X131800000Y-117800000D01*
G37*
G36*
X135400000Y-114800000D02*
G01*
X135100000Y-114800000D01*
X135100000Y-114500000D01*
X135400000Y-114500000D01*
X135400000Y-114800000D01*
G37*
X138200000Y-107850000D02*
X137400000Y-108450000D01*
X138200000Y-105450000D02*
X139000000Y-105450000D01*
G36*
X135400000Y-115100000D02*
G01*
X135100000Y-115100000D01*
X135100000Y-114800000D01*
X135400000Y-114800000D01*
X135400000Y-115100000D01*
G37*
G36*
X133000000Y-116900000D02*
G01*
X132700000Y-116900000D01*
X132700000Y-116600000D01*
X133000000Y-116600000D01*
X133000000Y-116900000D01*
G37*
G36*
X131200000Y-118700000D02*
G01*
X130900000Y-118700000D01*
X130900000Y-118400000D01*
X131200000Y-118400000D01*
X131200000Y-118700000D01*
G37*
X146050000Y-114935000D02*
X146050000Y-102235000D01*
G36*
X130600000Y-115400000D02*
G01*
X130300000Y-115400000D01*
X130300000Y-115100000D01*
X130600000Y-115100000D01*
X130600000Y-115400000D01*
G37*
G36*
X133000000Y-115700000D02*
G01*
X132700000Y-115700000D01*
X132700000Y-115400000D01*
X133000000Y-115400000D01*
X133000000Y-115700000D01*
G37*
G36*
X134200000Y-118700000D02*
G01*
X133900000Y-118700000D01*
X133900000Y-118400000D01*
X134200000Y-118400000D01*
X134200000Y-118700000D01*
G37*
G36*
X131500000Y-113600000D02*
G01*
X131200000Y-113600000D01*
X131200000Y-113300000D01*
X131500000Y-113300000D01*
X131500000Y-113600000D01*
G37*
G36*
X133600000Y-113600000D02*
G01*
X133300000Y-113600000D01*
X133300000Y-113300000D01*
X133600000Y-113300000D01*
X133600000Y-113600000D01*
G37*
G36*
X134200000Y-116000000D02*
G01*
X133900000Y-116000000D01*
X133900000Y-115700000D01*
X134200000Y-115700000D01*
X134200000Y-116000000D01*
G37*
G36*
X134200000Y-119000000D02*
G01*
X133900000Y-119000000D01*
X133900000Y-118700000D01*
X134200000Y-118700000D01*
X134200000Y-119000000D01*
G37*
G36*
X135400000Y-118400000D02*
G01*
X135100000Y-118400000D01*
X135100000Y-118100000D01*
X135400000Y-118100000D01*
X135400000Y-118400000D01*
G37*
X137700000Y-106450000D02*
X138200000Y-106650000D01*
G36*
X132400000Y-118100000D02*
G01*
X132100000Y-118100000D01*
X132100000Y-117800000D01*
X132400000Y-117800000D01*
X132400000Y-118100000D01*
G37*
G36*
X135400000Y-117200000D02*
G01*
X135100000Y-117200000D01*
X135100000Y-116900000D01*
X135400000Y-116900000D01*
X135400000Y-117200000D01*
G37*
X138900000Y-104550000D02*
X138300000Y-104550000D01*
G36*
X134800000Y-112400000D02*
G01*
X134500000Y-112400000D01*
X134500000Y-112100000D01*
X134800000Y-112100000D01*
X134800000Y-112400000D01*
G37*
X146050000Y-109855000D02*
X140970000Y-109855000D01*
G36*
X131800000Y-119000000D02*
G01*
X131500000Y-119000000D01*
X131500000Y-118700000D01*
X131800000Y-118700000D01*
X131800000Y-119000000D01*
G37*
G36*
X135100000Y-114200000D02*
G01*
X134800000Y-114200000D01*
X134800000Y-113900000D01*
X135100000Y-113900000D01*
X135100000Y-114200000D01*
G37*
X136600000Y-106650000D02*
X137000000Y-106050000D01*
G36*
X134800000Y-115100000D02*
G01*
X134500000Y-115100000D01*
X134500000Y-114800000D01*
X134800000Y-114800000D01*
X134800000Y-115100000D01*
G37*
G36*
X135100000Y-112400000D02*
G01*
X134800000Y-112400000D01*
X134800000Y-112100000D01*
X135100000Y-112100000D01*
X135100000Y-112400000D01*
G37*
G36*
X132400000Y-115100000D02*
G01*
X132100000Y-115100000D01*
X132100000Y-114800000D01*
X132400000Y-114800000D01*
X132400000Y-115100000D01*
G37*
X136500000Y-107350000D02*
X136800000Y-107250000D01*
G36*
X131800000Y-112700000D02*
G01*
X131500000Y-112700000D01*
X131500000Y-112400000D01*
X131800000Y-112400000D01*
X131800000Y-112700000D01*
G37*
X137800000Y-106050000D02*
X138200000Y-105450000D01*
G36*
X135100000Y-115100000D02*
G01*
X134800000Y-115100000D01*
X134800000Y-114800000D01*
X135100000Y-114800000D01*
X135100000Y-115100000D01*
G37*
X138300000Y-105150000D02*
X138100000Y-104850000D01*
X136600000Y-107850000D02*
X136100000Y-108050000D01*
G36*
X134200000Y-117500000D02*
G01*
X133900000Y-117500000D01*
X133900000Y-117200000D01*
X134200000Y-117200000D01*
X134200000Y-117500000D01*
G37*
G36*
X132700000Y-112700000D02*
G01*
X132400000Y-112700000D01*
X132400000Y-112400000D01*
X132700000Y-112400000D01*
X132700000Y-112700000D01*
G37*
X138200000Y-106650000D02*
X137800000Y-106050000D01*
G36*
X132700000Y-119900000D02*
G01*
X132400000Y-119900000D01*
X132400000Y-119600000D01*
X132700000Y-119600000D01*
X132700000Y-119900000D01*
G37*
G36*
X132400000Y-113600000D02*
G01*
X132100000Y-113600000D01*
X132100000Y-113300000D01*
X132400000Y-113300000D01*
X132400000Y-113600000D01*
G37*
X138900000Y-105150000D02*
X139100000Y-104850000D01*
X137800000Y-104850000D02*
X138200000Y-105450000D01*
G36*
X134800000Y-118700000D02*
G01*
X134500000Y-118700000D01*
X134500000Y-118400000D01*
X134800000Y-118400000D01*
X134800000Y-118700000D01*
G37*
G36*
X132100000Y-113000000D02*
G01*
X131800000Y-113000000D01*
X131800000Y-112700000D01*
X132100000Y-112700000D01*
X132100000Y-113000000D01*
G37*
X137800000Y-106050000D02*
X138300000Y-106250000D01*
G36*
X131800000Y-111800000D02*
G01*
X131500000Y-111800000D01*
X131500000Y-111500000D01*
X131800000Y-111500000D01*
X131800000Y-111800000D01*
G37*
G36*
X135400000Y-114500000D02*
G01*
X135100000Y-114500000D01*
X135100000Y-114200000D01*
X135400000Y-114200000D01*
X135400000Y-114500000D01*
G37*
X138300000Y-105850000D02*
X137800000Y-106050000D01*
G36*
X132100000Y-116000000D02*
G01*
X131800000Y-116000000D01*
X131800000Y-115700000D01*
X132100000Y-115700000D01*
X132100000Y-116000000D01*
G37*
G36*
X133000000Y-119000000D02*
G01*
X132700000Y-119000000D01*
X132700000Y-118700000D01*
X133000000Y-118700000D01*
X133000000Y-119000000D01*
G37*
G36*
X131200000Y-113600000D02*
G01*
X130900000Y-113600000D01*
X130900000Y-113300000D01*
X131200000Y-113300000D01*
X131200000Y-113600000D01*
G37*
G36*
X133300000Y-117200000D02*
G01*
X133000000Y-117200000D01*
X133000000Y-116900000D01*
X133300000Y-116900000D01*
X133300000Y-117200000D01*
G37*
G36*
X134500000Y-113600000D02*
G01*
X134200000Y-113600000D01*
X134200000Y-113300000D01*
X134500000Y-113300000D01*
X134500000Y-113600000D01*
G37*
X138200000Y-106650000D02*
X137800000Y-107250000D01*
G36*
X134800000Y-116000000D02*
G01*
X134500000Y-116000000D01*
X134500000Y-115700000D01*
X134800000Y-115700000D01*
X134800000Y-116000000D01*
G37*
G36*
X132400000Y-117800000D02*
G01*
X132100000Y-117800000D01*
X132100000Y-117500000D01*
X132400000Y-117500000D01*
X132400000Y-117800000D01*
G37*
X137000000Y-107250000D02*
X136600000Y-106650000D01*
G36*
X134800000Y-116600000D02*
G01*
X134500000Y-116600000D01*
X134500000Y-116300000D01*
X134800000Y-116300000D01*
X134800000Y-116600000D01*
G37*
G36*
X130600000Y-116600000D02*
G01*
X130300000Y-116600000D01*
X130300000Y-116300000D01*
X130600000Y-116300000D01*
X130600000Y-116600000D01*
G37*
G36*
X130600000Y-117500000D02*
G01*
X130300000Y-117500000D01*
X130300000Y-117200000D01*
X130600000Y-117200000D01*
X130600000Y-117500000D01*
G37*
G36*
X131800000Y-116900000D02*
G01*
X131500000Y-116900000D01*
X131500000Y-116600000D01*
X131800000Y-116600000D01*
X131800000Y-116900000D01*
G37*
G36*
X131800000Y-112100000D02*
G01*
X131500000Y-112100000D01*
X131500000Y-111800000D01*
X131800000Y-111800000D01*
X131800000Y-112100000D01*
G37*
X137000000Y-107250000D02*
X136500000Y-107450000D01*
G36*
X131800000Y-119900000D02*
G01*
X131500000Y-119900000D01*
X131500000Y-119600000D01*
X131800000Y-119600000D01*
X131800000Y-119900000D01*
G37*
X146050000Y-114935000D02*
X141605000Y-114935000D01*
X138000000Y-106650000D02*
X137700000Y-106550000D01*
X136500000Y-107050000D02*
X137000000Y-107250000D01*
G36*
X131500000Y-116300000D02*
G01*
X131200000Y-116300000D01*
X131200000Y-116000000D01*
X131500000Y-116000000D01*
X131500000Y-116300000D01*
G37*
G36*
X133300000Y-120200000D02*
G01*
X133000000Y-120200000D01*
X133000000Y-119900000D01*
X133300000Y-119900000D01*
X133300000Y-120200000D01*
G37*
X146050000Y-104775000D02*
X140970000Y-104775000D01*
G36*
X132400000Y-119900000D02*
G01*
X132100000Y-119900000D01*
X132100000Y-119600000D01*
X132400000Y-119600000D01*
X132400000Y-119900000D01*
G37*
G36*
X132700000Y-112100000D02*
G01*
X132400000Y-112100000D01*
X132400000Y-111800000D01*
X132700000Y-111800000D01*
X132700000Y-112100000D01*
G37*
G36*
X134200000Y-118100000D02*
G01*
X133900000Y-118100000D01*
X133900000Y-117800000D01*
X134200000Y-117800000D01*
X134200000Y-118100000D01*
G37*
X139000000Y-105450000D02*
X139400000Y-104850000D01*
G36*
X134800000Y-117500000D02*
G01*
X134500000Y-117500000D01*
X134500000Y-117200000D01*
X134800000Y-117200000D01*
X134800000Y-117500000D01*
G37*
X139000000Y-104250000D02*
X139400000Y-103650000D01*
G36*
X134800000Y-117200000D02*
G01*
X134500000Y-117200000D01*
X134500000Y-116900000D01*
X134800000Y-116900000D01*
X134800000Y-117200000D01*
G37*
G36*
X133900000Y-117200000D02*
G01*
X133600000Y-117200000D01*
X133600000Y-116900000D01*
X133900000Y-116900000D01*
X133900000Y-117200000D01*
G37*
X139000000Y-105450000D02*
X139400000Y-106050000D01*
G36*
X130600000Y-116000000D02*
G01*
X130300000Y-116000000D01*
X130300000Y-115700000D01*
X130600000Y-115700000D01*
X130600000Y-116000000D01*
G37*
X146050000Y-102235000D02*
X140970000Y-102235000D01*
X136600000Y-107850000D02*
X137000000Y-107250000D01*
G36*
X133300000Y-119000000D02*
G01*
X133000000Y-119000000D01*
X133000000Y-118700000D01*
X133300000Y-118700000D01*
X133300000Y-119000000D01*
G37*
G36*
X132400000Y-111500000D02*
G01*
X132100000Y-111500000D01*
X132100000Y-111200000D01*
X132400000Y-111200000D01*
X132400000Y-111500000D01*
G37*
G36*
X130600000Y-115700000D02*
G01*
X130300000Y-115700000D01*
X130300000Y-115400000D01*
X130600000Y-115400000D01*
X130600000Y-115700000D01*
G37*
G36*
X130600000Y-117200000D02*
G01*
X130300000Y-117200000D01*
X130300000Y-116900000D01*
X130600000Y-116900000D01*
X130600000Y-117200000D01*
G37*
G36*
X132700000Y-113000000D02*
G01*
X132400000Y-113000000D01*
X132400000Y-112700000D01*
X132700000Y-112700000D01*
X132700000Y-113000000D01*
G37*
G36*
X131800000Y-113600000D02*
G01*
X131500000Y-113600000D01*
X131500000Y-113300000D01*
X131800000Y-113300000D01*
X131800000Y-113600000D01*
G37*
X136400000Y-107850000D02*
X136100000Y-107750000D01*
G36*
X134500000Y-112400000D02*
G01*
X134200000Y-112400000D01*
X134200000Y-112100000D01*
X134500000Y-112100000D01*
X134500000Y-112400000D01*
G37*
X137700000Y-106750000D02*
X138000000Y-106650000D01*
G36*
X135100000Y-116300000D02*
G01*
X134800000Y-116300000D01*
X134800000Y-116000000D01*
X135100000Y-116000000D01*
X135100000Y-116300000D01*
G37*
G36*
X132100000Y-113300000D02*
G01*
X131800000Y-113300000D01*
X131800000Y-113000000D01*
X132100000Y-113000000D01*
X132100000Y-113300000D01*
G37*
G36*
X131800000Y-116000000D02*
G01*
X131500000Y-116000000D01*
X131500000Y-115700000D01*
X131800000Y-115700000D01*
X131800000Y-116000000D01*
G37*
G36*
X134800000Y-114500000D02*
G01*
X134500000Y-114500000D01*
X134500000Y-114200000D01*
X134800000Y-114200000D01*
X134800000Y-114500000D01*
G37*
G36*
X130600000Y-114200000D02*
G01*
X130300000Y-114200000D01*
X130300000Y-113900000D01*
X130600000Y-113900000D01*
X130600000Y-114200000D01*
G37*
G36*
X134200000Y-118400000D02*
G01*
X133900000Y-118400000D01*
X133900000Y-118100000D01*
X134200000Y-118100000D01*
X134200000Y-118400000D01*
G37*
G36*
X133300000Y-115700000D02*
G01*
X133000000Y-115700000D01*
X133000000Y-115400000D01*
X133300000Y-115400000D01*
X133300000Y-115700000D01*
G37*
X146050000Y-107315000D02*
X140970000Y-107315000D01*
X142697142Y-105745000D02*
X142754285Y-105716428D01*
X142840000Y-105716428D01*
X142925714Y-105745000D01*
X142982857Y-105802142D01*
X143011428Y-105859285D01*
X143040000Y-105973571D01*
X143040000Y-106059285D01*
X143011428Y-106173571D01*
X142982857Y-106230714D01*
X142925714Y-106287857D01*
X142840000Y-106316428D01*
X142782857Y-106316428D01*
X142697142Y-106287857D01*
X142668571Y-106259285D01*
X142668571Y-106059285D01*
X142782857Y-106059285D01*
X142411428Y-106316428D02*
X142411428Y-105716428D01*
X142068571Y-106316428D01*
X142068571Y-105716428D01*
X141782857Y-106316428D02*
X141782857Y-105716428D01*
X141640000Y-105716428D01*
X141554285Y-105745000D01*
X141497142Y-105802142D01*
X141468571Y-105859285D01*
X141440000Y-105973571D01*
X141440000Y-106059285D01*
X141468571Y-106173571D01*
X141497142Y-106230714D01*
X141554285Y-106287857D01*
X141640000Y-106316428D01*
X141782857Y-106316428D01*
X128643095Y-107093571D02*
X129214523Y-107093571D01*
X128833571Y-107236428D01*
X128690714Y-107379285D01*
X128690714Y-107569761D01*
X128833571Y-107712619D01*
X129071666Y-107712619D01*
X129166904Y-107569761D01*
X129166904Y-107426904D01*
X129071666Y-107331666D01*
X128547857Y-107474523D02*
X129262142Y-107474523D01*
X129357380Y-107379285D01*
X128785952Y-108093571D02*
X128690714Y-108522142D01*
X128738333Y-108665000D01*
X128928809Y-108712619D01*
X129071666Y-108617380D01*
X129214523Y-108331666D01*
X128309761Y-109569761D02*
X128785952Y-109331666D01*
X129309761Y-109569761D01*
X128309761Y-110665000D02*
X128928809Y-110665000D01*
X129119285Y-110617380D01*
X129309761Y-110426904D01*
X128309761Y-110331666D02*
X128547857Y-110284047D01*
X128738333Y-110284047D01*
X128881190Y-110331666D01*
X128738333Y-110426904D01*
X128309761Y-111379285D02*
X129119285Y-111379285D01*
X129262142Y-111426904D01*
X129357380Y-111522142D01*
X129357380Y-111665000D01*
X129262142Y-111807857D01*
X129071666Y-111855476D01*
X128500238Y-112284047D02*
X128405000Y-112903095D01*
X128452619Y-112807857D02*
X128595476Y-112617380D01*
X128833571Y-112522142D01*
X129119285Y-112522142D01*
X129262142Y-112617380D01*
X129309761Y-112760238D01*
X128547857Y-113807857D02*
X128738333Y-113903095D01*
X128976428Y-113950714D01*
X128452619Y-113331666D02*
X128785952Y-113331666D01*
X129024047Y-113379285D01*
X129309761Y-113474523D01*
X129024047Y-113617380D01*
X128785952Y-114379285D02*
X128690714Y-114807857D01*
X128738333Y-114950714D01*
X128928809Y-114998333D01*
X129071666Y-114903095D01*
X129214523Y-114617380D01*
X128500238Y-115426904D02*
X128405000Y-116045952D01*
X128452619Y-115950714D02*
X128595476Y-115760238D01*
X128833571Y-115665000D01*
X129119285Y-115665000D01*
X129262142Y-115760238D01*
X129309761Y-115903095D01*
X128309761Y-116617380D02*
X129309761Y-116617380D01*
X128547857Y-116474523D02*
X128547857Y-116617380D01*
X128595476Y-116617380D01*
X129119285Y-116426904D02*
X128595476Y-116760238D01*
X128500238Y-116950714D01*
X128547857Y-117093571D01*
X128738333Y-117141190D01*
X129071666Y-117093571D01*
X129262142Y-116950714D01*
X129262142Y-116855476D01*
X129214523Y-116760238D01*
X129071666Y-116760238D01*
X129024047Y-116903095D01*
X129214523Y-117141190D01*
X129214523Y-117855476D02*
X129262142Y-117903095D01*
X129309761Y-117855476D01*
X129262142Y-117807857D01*
X129214523Y-117855476D01*
X129309761Y-117855476D01*
X128928809Y-117855476D02*
X128357380Y-117807857D01*
X128309761Y-117855476D01*
X128357380Y-117903095D01*
X128928809Y-117855476D01*
X128309761Y-117855476D01*
X129214523Y-118903095D02*
X129262142Y-118950714D01*
X129309761Y-118903095D01*
X129262142Y-118855476D01*
X129214523Y-118903095D01*
X129309761Y-118903095D01*
X128928809Y-118903095D02*
X128357380Y-118855476D01*
X128309761Y-118903095D01*
X128357380Y-118950714D01*
X128928809Y-118903095D01*
X128309761Y-118903095D01*
X129214523Y-119950714D02*
X129262142Y-119998333D01*
X129309761Y-119950714D01*
X129262142Y-119903095D01*
X129214523Y-119950714D01*
X129309761Y-119950714D01*
X128928809Y-119950714D02*
X128357380Y-119903095D01*
X128309761Y-119950714D01*
X128357380Y-119998333D01*
X128928809Y-119950714D01*
X128309761Y-119950714D01*
X145594285Y-113167000D02*
X144994285Y-113167000D01*
X145108571Y-113936428D02*
X145308571Y-113650714D01*
X145451428Y-113936428D02*
X145451428Y-113336428D01*
X145222857Y-113336428D01*
X145165714Y-113365000D01*
X145137142Y-113393571D01*
X145108571Y-113450714D01*
X145108571Y-113536428D01*
X145137142Y-113593571D01*
X145165714Y-113622142D01*
X145222857Y-113650714D01*
X145451428Y-113650714D01*
X144994285Y-113167000D02*
X144422857Y-113167000D01*
X144880000Y-113907857D02*
X144794285Y-113936428D01*
X144651428Y-113936428D01*
X144594285Y-113907857D01*
X144565714Y-113879285D01*
X144537142Y-113822142D01*
X144537142Y-113765000D01*
X144565714Y-113707857D01*
X144594285Y-113679285D01*
X144651428Y-113650714D01*
X144765714Y-113622142D01*
X144822857Y-113593571D01*
X144851428Y-113565000D01*
X144880000Y-113507857D01*
X144880000Y-113450714D01*
X144851428Y-113393571D01*
X144822857Y-113365000D01*
X144765714Y-113336428D01*
X144622857Y-113336428D01*
X144537142Y-113365000D01*
X144422857Y-113167000D02*
X143965714Y-113167000D01*
X144365714Y-113336428D02*
X144022857Y-113336428D01*
X144194285Y-113936428D02*
X144194285Y-113336428D01*
X146397023Y-120707142D02*
X145787500Y-120707142D01*
X145406547Y-120478571D02*
X144797023Y-120707142D01*
X145406547Y-120935714D01*
X143349404Y-121011904D02*
X143616071Y-120630952D01*
X143806547Y-121011904D02*
X143806547Y-120211904D01*
X143501785Y-120211904D01*
X143425595Y-120250000D01*
X143387500Y-120288095D01*
X143349404Y-120364285D01*
X143349404Y-120478571D01*
X143387500Y-120554761D01*
X143425595Y-120592857D01*
X143501785Y-120630952D01*
X143806547Y-120630952D01*
X143082738Y-120211904D02*
X142549404Y-121011904D01*
X142549404Y-120211904D02*
X143082738Y-121011904D01*
D11*
X139026190Y-105907142D02*
X138526190Y-105907142D01*
X138764285Y-105907142D02*
X138764285Y-106192857D01*
X139026190Y-106192857D02*
X138526190Y-106192857D01*
X139726190Y-102545238D02*
X139226190Y-102545238D01*
X139464285Y-102545238D02*
X139464285Y-102830952D01*
X139726190Y-102830952D02*
X139226190Y-102830952D01*
X139226190Y-103164285D02*
X139226190Y-103259523D01*
X139250000Y-103307142D01*
X139297619Y-103354761D01*
X139392857Y-103378571D01*
X139559523Y-103378571D01*
X139654761Y-103354761D01*
X139702380Y-103307142D01*
X139726190Y-103259523D01*
X139726190Y-103164285D01*
X139702380Y-103116666D01*
X139654761Y-103069047D01*
X139559523Y-103045238D01*
X139392857Y-103045238D01*
X139297619Y-103069047D01*
X139250000Y-103116666D01*
X139226190Y-103164285D01*
D10*
X145977976Y-124060000D02*
X146054166Y-124021904D01*
X146168452Y-124021904D01*
X146282738Y-124060000D01*
X146358928Y-124136190D01*
X146397023Y-124212380D01*
X146435119Y-124364761D01*
X146435119Y-124479047D01*
X146397023Y-124631428D01*
X146358928Y-124707619D01*
X146282738Y-124783809D01*
X146168452Y-124821904D01*
X146092261Y-124821904D01*
X145977976Y-124783809D01*
X145939880Y-124745714D01*
X145939880Y-124479047D01*
X146092261Y-124479047D01*
X145597023Y-124821904D02*
X145597023Y-124021904D01*
X145139880Y-124821904D01*
X145139880Y-124021904D01*
X144758928Y-124821904D02*
X144758928Y-124021904D01*
X144568452Y-124021904D01*
X144454166Y-124060000D01*
X144377976Y-124136190D01*
X144339880Y-124212380D01*
X144301785Y-124364761D01*
X144301785Y-124479047D01*
X144339880Y-124631428D01*
X144377976Y-124707619D01*
X144454166Y-124783809D01*
X144568452Y-124821904D01*
X144758928Y-124821904D01*
D11*
X137526190Y-106507142D02*
X137026190Y-106507142D01*
X137264285Y-106507142D02*
X137264285Y-106792857D01*
X137526190Y-106792857D02*
X137026190Y-106792857D01*
D10*
X145787500Y-118573571D02*
X146397023Y-118802142D01*
X145787500Y-119030714D01*
X145406547Y-118802142D02*
X144797023Y-118802142D01*
X143920833Y-118306904D02*
X143463690Y-118306904D01*
X143692261Y-119106904D02*
X143692261Y-118306904D01*
X143273214Y-118306904D02*
X142739880Y-119106904D01*
X142739880Y-118306904D02*
X143273214Y-119106904D01*
X142697142Y-108285000D02*
X142754285Y-108256428D01*
X142840000Y-108256428D01*
X142925714Y-108285000D01*
X142982857Y-108342142D01*
X143011428Y-108399285D01*
X143040000Y-108513571D01*
X143040000Y-108599285D01*
X143011428Y-108713571D01*
X142982857Y-108770714D01*
X142925714Y-108827857D01*
X142840000Y-108856428D01*
X142782857Y-108856428D01*
X142697142Y-108827857D01*
X142668571Y-108799285D01*
X142668571Y-108599285D01*
X142782857Y-108599285D01*
X142411428Y-108856428D02*
X142411428Y-108256428D01*
X142068571Y-108856428D01*
X142068571Y-108256428D01*
X141782857Y-108856428D02*
X141782857Y-108256428D01*
X141640000Y-108256428D01*
X141554285Y-108285000D01*
X141497142Y-108342142D01*
X141468571Y-108399285D01*
X141440000Y-108513571D01*
X141440000Y-108599285D01*
X141468571Y-108713571D01*
X141497142Y-108770714D01*
X141554285Y-108827857D01*
X141640000Y-108856428D01*
X141782857Y-108856428D01*
X142725714Y-103547857D02*
X142268571Y-103547857D01*
X142497142Y-103776428D02*
X142497142Y-103319285D01*
X142068571Y-103176428D02*
X141868571Y-103776428D01*
X141668571Y-103176428D01*
D11*
X139026190Y-107107142D02*
X138526190Y-107107142D01*
X138764285Y-107107142D02*
X138764285Y-107392857D01*
X139026190Y-107392857D02*
X138526190Y-107392857D01*
X135326190Y-107840476D02*
X135326190Y-107935714D01*
X135350000Y-107983333D01*
X135397619Y-108030952D01*
X135492857Y-108054761D01*
X135659523Y-108054761D01*
X135754761Y-108030952D01*
X135802380Y-107983333D01*
X135826190Y-107935714D01*
X135826190Y-107840476D01*
X135802380Y-107792857D01*
X135754761Y-107745238D01*
X135659523Y-107721428D01*
X135492857Y-107721428D01*
X135397619Y-107745238D01*
X135350000Y-107792857D01*
X135326190Y-107840476D01*
X135826190Y-108269047D02*
X135326190Y-108269047D01*
X135564285Y-108269047D02*
X135564285Y-108554761D01*
X135826190Y-108554761D02*
X135326190Y-108554761D01*
D10*
X145294285Y-103264857D02*
X145208571Y-103293428D01*
X145065714Y-103293428D01*
X145008571Y-103264857D01*
X144980000Y-103236285D01*
X144951428Y-103179142D01*
X144951428Y-103122000D01*
X144980000Y-103064857D01*
X145008571Y-103036285D01*
X145065714Y-103007714D01*
X145180000Y-102979142D01*
X145237142Y-102950571D01*
X145265714Y-102922000D01*
X145294285Y-102864857D01*
X145294285Y-102807714D01*
X145265714Y-102750571D01*
X145237142Y-102722000D01*
X145180000Y-102693428D01*
X145037142Y-102693428D01*
X144951428Y-102722000D01*
X144751428Y-102693428D02*
X144608571Y-103293428D01*
X144494285Y-102864857D01*
X144380000Y-103293428D01*
X144237142Y-102693428D01*
X145394285Y-104259428D02*
X145394285Y-103659428D01*
X145251428Y-103659428D01*
X145165714Y-103688000D01*
X145108571Y-103745142D01*
X145080000Y-103802285D01*
X145051428Y-103916571D01*
X145051428Y-104002285D01*
X145080000Y-104116571D01*
X145108571Y-104173714D01*
X145165714Y-104230857D01*
X145251428Y-104259428D01*
X145394285Y-104259428D01*
X144794285Y-104259428D02*
X144794285Y-103659428D01*
X144394285Y-103659428D02*
X144280000Y-103659428D01*
X144222857Y-103688000D01*
X144165714Y-103745142D01*
X144137142Y-103859428D01*
X144137142Y-104059428D01*
X144165714Y-104173714D01*
X144222857Y-104230857D01*
X144280000Y-104259428D01*
X144394285Y-104259428D01*
X144451428Y-104230857D01*
X144508571Y-104173714D01*
X144537142Y-104059428D01*
X144537142Y-103859428D01*
X144508571Y-103745142D01*
X144451428Y-103688000D01*
X144394285Y-103659428D01*
X142697142Y-113365000D02*
X142754285Y-113336428D01*
X142840000Y-113336428D01*
X142925714Y-113365000D01*
X142982857Y-113422142D01*
X143011428Y-113479285D01*
X143040000Y-113593571D01*
X143040000Y-113679285D01*
X143011428Y-113793571D01*
X142982857Y-113850714D01*
X142925714Y-113907857D01*
X142840000Y-113936428D01*
X142782857Y-113936428D01*
X142697142Y-113907857D01*
X142668571Y-113879285D01*
X142668571Y-113679285D01*
X142782857Y-113679285D01*
X142411428Y-113936428D02*
X142411428Y-113336428D01*
X142068571Y-113936428D01*
X142068571Y-113336428D01*
X141782857Y-113936428D02*
X141782857Y-113336428D01*
X141640000Y-113336428D01*
X141554285Y-113365000D01*
X141497142Y-113422142D01*
X141468571Y-113479285D01*
X141440000Y-113593571D01*
X141440000Y-113679285D01*
X141468571Y-113793571D01*
X141497142Y-113850714D01*
X141554285Y-113907857D01*
X141640000Y-113936428D01*
X141782857Y-113936428D01*
X145294285Y-105804857D02*
X145208571Y-105833428D01*
X145065714Y-105833428D01*
X145008571Y-105804857D01*
X144980000Y-105776285D01*
X144951428Y-105719142D01*
X144951428Y-105662000D01*
X144980000Y-105604857D01*
X145008571Y-105576285D01*
X145065714Y-105547714D01*
X145180000Y-105519142D01*
X145237142Y-105490571D01*
X145265714Y-105462000D01*
X145294285Y-105404857D01*
X145294285Y-105347714D01*
X145265714Y-105290571D01*
X145237142Y-105262000D01*
X145180000Y-105233428D01*
X145037142Y-105233428D01*
X144951428Y-105262000D01*
X144751428Y-105233428D02*
X144608571Y-105833428D01*
X144494285Y-105404857D01*
X144380000Y-105833428D01*
X144237142Y-105233428D01*
X145137142Y-106742285D02*
X145165714Y-106770857D01*
X145251428Y-106799428D01*
X145308571Y-106799428D01*
X145394285Y-106770857D01*
X145451428Y-106713714D01*
X145480000Y-106656571D01*
X145508571Y-106542285D01*
X145508571Y-106456571D01*
X145480000Y-106342285D01*
X145451428Y-106285142D01*
X145394285Y-106228000D01*
X145308571Y-106199428D01*
X145251428Y-106199428D01*
X145165714Y-106228000D01*
X145137142Y-106256571D01*
X144594285Y-106799428D02*
X144880000Y-106799428D01*
X144880000Y-106199428D01*
X144394285Y-106799428D02*
X144394285Y-106199428D01*
X144051428Y-106799428D02*
X144308571Y-106456571D01*
X144051428Y-106199428D02*
X144394285Y-106542285D01*
M02*
