%TF.GenerationSoftware,KiCad,Pcbnew,(6.0.1-0)*%
%TF.CreationDate,2022-05-18T17:32:03-07:00*%
%TF.ProjectId,badge_jig,62616467-655f-46a6-9967-2e6b69636164,rev?*%
%TF.SameCoordinates,Original*%
%TF.FileFunction,Legend,Top*%
%TF.FilePolarity,Positive*%
%FSLAX46Y46*%
G04 Gerber Fmt 4.6, Leading zero omitted, Abs format (unit mm)*
G04 Created by KiCad (PCBNEW (6.0.1-0)) date 2022-05-18 17:32:03*
%MOMM*%
%LPD*%
G01*
G04 APERTURE LIST*
%ADD10C,0.150000*%
%ADD11C,0.120000*%
G04 APERTURE END LIST*
D10*
X128576190Y-115833333D02*
X128528571Y-115880952D01*
X128480952Y-115976190D01*
X128480952Y-116071428D01*
X128528571Y-116166666D01*
X128576190Y-116214285D01*
X128671428Y-116261904D01*
X128766666Y-116261904D01*
X128861904Y-116214285D01*
X128909523Y-116166666D01*
X128957142Y-116071428D01*
X128957142Y-115976190D01*
X128909523Y-115880952D01*
X128861904Y-115833333D01*
X128480952Y-115833333D02*
X128861904Y-115833333D01*
X128909523Y-115785714D01*
X128909523Y-115738095D01*
X128861904Y-115642857D01*
X128766666Y-115595238D01*
X128528571Y-115595238D01*
X128385714Y-115690476D01*
X128290476Y-115833333D01*
X128242857Y-116023809D01*
X128290476Y-116214285D01*
X128385714Y-116357142D01*
X128528571Y-116452380D01*
X128719047Y-116500000D01*
X128909523Y-116452380D01*
X129052380Y-116357142D01*
X129147619Y-116214285D01*
X129195238Y-116023809D01*
X129147619Y-115833333D01*
X129052380Y-115690476D01*
X129052380Y-115166666D02*
X128385714Y-115166666D01*
X128576190Y-115166666D02*
X128480952Y-115119047D01*
X128433333Y-115071428D01*
X128385714Y-114976190D01*
X128385714Y-114880952D01*
X128385714Y-114119047D02*
X129385714Y-114119047D01*
X129004761Y-114119047D02*
X129052380Y-114214285D01*
X129052380Y-114404761D01*
X129004761Y-114500000D01*
X128957142Y-114547619D01*
X128861904Y-114595238D01*
X128576190Y-114595238D01*
X128480952Y-114547619D01*
X128433333Y-114500000D01*
X128385714Y-114404761D01*
X128385714Y-114214285D01*
X128433333Y-114119047D01*
X129052380Y-113500000D02*
X129004761Y-113595238D01*
X128957142Y-113642857D01*
X128861904Y-113690476D01*
X128576190Y-113690476D01*
X128480952Y-113642857D01*
X128433333Y-113595238D01*
X128385714Y-113500000D01*
X128385714Y-113357142D01*
X128433333Y-113261904D01*
X128480952Y-113214285D01*
X128576190Y-113166666D01*
X128861904Y-113166666D01*
X128957142Y-113214285D01*
X129004761Y-113261904D01*
X129052380Y-113357142D01*
X129052380Y-113500000D01*
X128385714Y-112309523D02*
X129052380Y-112309523D01*
X128385714Y-112738095D02*
X128909523Y-112738095D01*
X129004761Y-112690476D01*
X129052380Y-112595238D01*
X129052380Y-112452380D01*
X129004761Y-112357142D01*
X128957142Y-112309523D01*
X129147619Y-112071428D02*
X129147619Y-111309523D01*
X131502142Y-120997023D02*
X131502142Y-120387500D01*
X131273571Y-120006547D02*
X131502142Y-119397023D01*
X131730714Y-120006547D01*
X131806904Y-117949404D02*
X131425952Y-118216071D01*
X131806904Y-118406547D02*
X131006904Y-118406547D01*
X131006904Y-118101785D01*
X131045000Y-118025595D01*
X131083095Y-117987500D01*
X131159285Y-117949404D01*
X131273571Y-117949404D01*
X131349761Y-117987500D01*
X131387857Y-118025595D01*
X131425952Y-118101785D01*
X131425952Y-118406547D01*
X131006904Y-117682738D02*
X131806904Y-117149404D01*
X131006904Y-117149404D02*
X131806904Y-117682738D01*
X136858809Y-104422380D02*
X136858809Y-103422380D01*
X137239761Y-103422380D01*
X137335000Y-103470000D01*
X137382619Y-103517619D01*
X137430238Y-103612857D01*
X137430238Y-103755714D01*
X137382619Y-103850952D01*
X137335000Y-103898571D01*
X137239761Y-103946190D01*
X136858809Y-103946190D01*
X138287380Y-104422380D02*
X138287380Y-103898571D01*
X138239761Y-103803333D01*
X138144523Y-103755714D01*
X137954047Y-103755714D01*
X137858809Y-103803333D01*
X138287380Y-104374761D02*
X138192142Y-104422380D01*
X137954047Y-104422380D01*
X137858809Y-104374761D01*
X137811190Y-104279523D01*
X137811190Y-104184285D01*
X137858809Y-104089047D01*
X137954047Y-104041428D01*
X138192142Y-104041428D01*
X138287380Y-103993809D01*
X138763571Y-104422380D02*
X138763571Y-103755714D01*
X138763571Y-103946190D02*
X138811190Y-103850952D01*
X138858809Y-103803333D01*
X138954047Y-103755714D01*
X139049285Y-103755714D01*
X139811190Y-104422380D02*
X139811190Y-103898571D01*
X139763571Y-103803333D01*
X139668333Y-103755714D01*
X139477857Y-103755714D01*
X139382619Y-103803333D01*
X139811190Y-104374761D02*
X139715952Y-104422380D01*
X139477857Y-104422380D01*
X139382619Y-104374761D01*
X139335000Y-104279523D01*
X139335000Y-104184285D01*
X139382619Y-104089047D01*
X139477857Y-104041428D01*
X139715952Y-104041428D01*
X139811190Y-103993809D01*
X140287380Y-103755714D02*
X140287380Y-104422380D01*
X140287380Y-103850952D02*
X140335000Y-103803333D01*
X140430238Y-103755714D01*
X140573095Y-103755714D01*
X140668333Y-103803333D01*
X140715952Y-103898571D01*
X140715952Y-104422380D01*
X141335000Y-104422380D02*
X141239761Y-104374761D01*
X141192142Y-104327142D01*
X141144523Y-104231904D01*
X141144523Y-103946190D01*
X141192142Y-103850952D01*
X141239761Y-103803333D01*
X141335000Y-103755714D01*
X141477857Y-103755714D01*
X141573095Y-103803333D01*
X141620714Y-103850952D01*
X141668333Y-103946190D01*
X141668333Y-104231904D01*
X141620714Y-104327142D01*
X141573095Y-104374761D01*
X141477857Y-104422380D01*
X141335000Y-104422380D01*
X142096904Y-104422380D02*
X142096904Y-103755714D01*
X142096904Y-103422380D02*
X142049285Y-103470000D01*
X142096904Y-103517619D01*
X142144523Y-103470000D01*
X142096904Y-103422380D01*
X142096904Y-103517619D01*
X143001666Y-104422380D02*
X143001666Y-103422380D01*
X143001666Y-104374761D02*
X142906428Y-104422380D01*
X142715952Y-104422380D01*
X142620714Y-104374761D01*
X142573095Y-104327142D01*
X142525476Y-104231904D01*
X142525476Y-103946190D01*
X142573095Y-103850952D01*
X142620714Y-103803333D01*
X142715952Y-103755714D01*
X142906428Y-103755714D01*
X143001666Y-103803333D01*
X143430238Y-104374761D02*
X143525476Y-104422380D01*
X143715952Y-104422380D01*
X143811190Y-104374761D01*
X143858809Y-104279523D01*
X143858809Y-104231904D01*
X143811190Y-104136666D01*
X143715952Y-104089047D01*
X143573095Y-104089047D01*
X143477857Y-104041428D01*
X143430238Y-103946190D01*
X143430238Y-103898571D01*
X143477857Y-103803333D01*
X143573095Y-103755714D01*
X143715952Y-103755714D01*
X143811190Y-103803333D01*
X137168333Y-105508571D02*
X137311190Y-105556190D01*
X137358809Y-105603809D01*
X137406428Y-105699047D01*
X137406428Y-105841904D01*
X137358809Y-105937142D01*
X137311190Y-105984761D01*
X137215952Y-106032380D01*
X136835000Y-106032380D01*
X136835000Y-105032380D01*
X137168333Y-105032380D01*
X137263571Y-105080000D01*
X137311190Y-105127619D01*
X137358809Y-105222857D01*
X137358809Y-105318095D01*
X137311190Y-105413333D01*
X137263571Y-105460952D01*
X137168333Y-105508571D01*
X136835000Y-105508571D01*
X138263571Y-106032380D02*
X138263571Y-105508571D01*
X138215952Y-105413333D01*
X138120714Y-105365714D01*
X137930238Y-105365714D01*
X137835000Y-105413333D01*
X138263571Y-105984761D02*
X138168333Y-106032380D01*
X137930238Y-106032380D01*
X137835000Y-105984761D01*
X137787380Y-105889523D01*
X137787380Y-105794285D01*
X137835000Y-105699047D01*
X137930238Y-105651428D01*
X138168333Y-105651428D01*
X138263571Y-105603809D01*
X139168333Y-106032380D02*
X139168333Y-105032380D01*
X139168333Y-105984761D02*
X139073095Y-106032380D01*
X138882619Y-106032380D01*
X138787380Y-105984761D01*
X138739761Y-105937142D01*
X138692142Y-105841904D01*
X138692142Y-105556190D01*
X138739761Y-105460952D01*
X138787380Y-105413333D01*
X138882619Y-105365714D01*
X139073095Y-105365714D01*
X139168333Y-105413333D01*
X140073095Y-105365714D02*
X140073095Y-106175238D01*
X140025476Y-106270476D01*
X139977857Y-106318095D01*
X139882619Y-106365714D01*
X139739761Y-106365714D01*
X139644523Y-106318095D01*
X140073095Y-105984761D02*
X139977857Y-106032380D01*
X139787380Y-106032380D01*
X139692142Y-105984761D01*
X139644523Y-105937142D01*
X139596904Y-105841904D01*
X139596904Y-105556190D01*
X139644523Y-105460952D01*
X139692142Y-105413333D01*
X139787380Y-105365714D01*
X139977857Y-105365714D01*
X140073095Y-105413333D01*
X140930238Y-105984761D02*
X140835000Y-106032380D01*
X140644523Y-106032380D01*
X140549285Y-105984761D01*
X140501666Y-105889523D01*
X140501666Y-105508571D01*
X140549285Y-105413333D01*
X140644523Y-105365714D01*
X140835000Y-105365714D01*
X140930238Y-105413333D01*
X140977857Y-105508571D01*
X140977857Y-105603809D01*
X140501666Y-105699047D01*
X142454047Y-105032380D02*
X142454047Y-105746666D01*
X142406428Y-105889523D01*
X142311190Y-105984761D01*
X142168333Y-106032380D01*
X142073095Y-106032380D01*
X142930238Y-106032380D02*
X142930238Y-105365714D01*
X142930238Y-105032380D02*
X142882619Y-105080000D01*
X142930238Y-105127619D01*
X142977857Y-105080000D01*
X142930238Y-105032380D01*
X142930238Y-105127619D01*
X143835000Y-105365714D02*
X143835000Y-106175238D01*
X143787380Y-106270476D01*
X143739761Y-106318095D01*
X143644523Y-106365714D01*
X143501666Y-106365714D01*
X143406428Y-106318095D01*
X143835000Y-105984761D02*
X143739761Y-106032380D01*
X143549285Y-106032380D01*
X143454047Y-105984761D01*
X143406428Y-105937142D01*
X143358809Y-105841904D01*
X143358809Y-105556190D01*
X143406428Y-105460952D01*
X143454047Y-105413333D01*
X143549285Y-105365714D01*
X143739761Y-105365714D01*
X143835000Y-105413333D01*
X136848809Y-121035119D02*
X136886904Y-120920833D01*
X136886904Y-120730357D01*
X136848809Y-120654166D01*
X136810714Y-120616071D01*
X136734523Y-120577976D01*
X136658333Y-120577976D01*
X136582142Y-120616071D01*
X136544047Y-120654166D01*
X136505952Y-120730357D01*
X136467857Y-120882738D01*
X136429761Y-120958928D01*
X136391666Y-120997023D01*
X136315476Y-121035119D01*
X136239285Y-121035119D01*
X136163095Y-120997023D01*
X136125000Y-120958928D01*
X136086904Y-120882738D01*
X136086904Y-120692261D01*
X136125000Y-120577976D01*
X136086904Y-120311309D02*
X136886904Y-120120833D01*
X136315476Y-119968452D01*
X136886904Y-119816071D01*
X136086904Y-119625595D01*
X136886904Y-119320833D02*
X136086904Y-119320833D01*
X136086904Y-119130357D01*
X136125000Y-119016071D01*
X136201190Y-118939880D01*
X136277380Y-118901785D01*
X136429761Y-118863690D01*
X136544047Y-118863690D01*
X136696428Y-118901785D01*
X136772619Y-118939880D01*
X136848809Y-119016071D01*
X136886904Y-119130357D01*
X136886904Y-119320833D01*
X136886904Y-118520833D02*
X136086904Y-118520833D01*
X136086904Y-117987500D02*
X136086904Y-117835119D01*
X136125000Y-117758928D01*
X136201190Y-117682738D01*
X136353571Y-117644642D01*
X136620238Y-117644642D01*
X136772619Y-117682738D01*
X136848809Y-117758928D01*
X136886904Y-117835119D01*
X136886904Y-117987500D01*
X136848809Y-118063690D01*
X136772619Y-118139880D01*
X136620238Y-118177976D01*
X136353571Y-118177976D01*
X136201190Y-118139880D01*
X136125000Y-118063690D01*
X136086904Y-117987500D01*
X140941000Y-121187500D02*
X140941000Y-120387500D01*
X141966904Y-120539880D02*
X141585952Y-120806547D01*
X141966904Y-120997023D02*
X141166904Y-120997023D01*
X141166904Y-120692261D01*
X141205000Y-120616071D01*
X141243095Y-120577976D01*
X141319285Y-120539880D01*
X141433571Y-120539880D01*
X141509761Y-120577976D01*
X141547857Y-120616071D01*
X141585952Y-120692261D01*
X141585952Y-120997023D01*
X140941000Y-120387500D02*
X140941000Y-119625595D01*
X141928809Y-120235119D02*
X141966904Y-120120833D01*
X141966904Y-119930357D01*
X141928809Y-119854166D01*
X141890714Y-119816071D01*
X141814523Y-119777976D01*
X141738333Y-119777976D01*
X141662142Y-119816071D01*
X141624047Y-119854166D01*
X141585952Y-119930357D01*
X141547857Y-120082738D01*
X141509761Y-120158928D01*
X141471666Y-120197023D01*
X141395476Y-120235119D01*
X141319285Y-120235119D01*
X141243095Y-120197023D01*
X141205000Y-120158928D01*
X141166904Y-120082738D01*
X141166904Y-119892261D01*
X141205000Y-119777976D01*
X140941000Y-119625595D02*
X140941000Y-119016071D01*
X141166904Y-119549404D02*
X141166904Y-119092261D01*
X141966904Y-119320833D02*
X141166904Y-119320833D01*
X133813571Y-120387500D02*
X134042142Y-120997023D01*
X134270714Y-120387500D01*
X134042142Y-120006547D02*
X134042142Y-119397023D01*
X133546904Y-118520833D02*
X133546904Y-118063690D01*
X134346904Y-118292261D02*
X133546904Y-118292261D01*
X133546904Y-117873214D02*
X134346904Y-117339880D01*
X133546904Y-117339880D02*
X134346904Y-117873214D01*
X139388809Y-121035119D02*
X139426904Y-120920833D01*
X139426904Y-120730357D01*
X139388809Y-120654166D01*
X139350714Y-120616071D01*
X139274523Y-120577976D01*
X139198333Y-120577976D01*
X139122142Y-120616071D01*
X139084047Y-120654166D01*
X139045952Y-120730357D01*
X139007857Y-120882738D01*
X138969761Y-120958928D01*
X138931666Y-120997023D01*
X138855476Y-121035119D01*
X138779285Y-121035119D01*
X138703095Y-120997023D01*
X138665000Y-120958928D01*
X138626904Y-120882738D01*
X138626904Y-120692261D01*
X138665000Y-120577976D01*
X138626904Y-120311309D02*
X139426904Y-120120833D01*
X138855476Y-119968452D01*
X139426904Y-119816071D01*
X138626904Y-119625595D01*
X139350714Y-118863690D02*
X139388809Y-118901785D01*
X139426904Y-119016071D01*
X139426904Y-119092261D01*
X139388809Y-119206547D01*
X139312619Y-119282738D01*
X139236428Y-119320833D01*
X139084047Y-119358928D01*
X138969761Y-119358928D01*
X138817380Y-119320833D01*
X138741190Y-119282738D01*
X138665000Y-119206547D01*
X138626904Y-119092261D01*
X138626904Y-119016071D01*
X138665000Y-118901785D01*
X138703095Y-118863690D01*
X139426904Y-118139880D02*
X139426904Y-118520833D01*
X138626904Y-118520833D01*
X139426904Y-117873214D02*
X138626904Y-117873214D01*
X139426904Y-117416071D02*
X138969761Y-117758928D01*
X138626904Y-117416071D02*
X139084047Y-117873214D01*
X128505000Y-120577976D02*
X128466904Y-120654166D01*
X128466904Y-120768452D01*
X128505000Y-120882738D01*
X128581190Y-120958928D01*
X128657380Y-120997023D01*
X128809761Y-121035119D01*
X128924047Y-121035119D01*
X129076428Y-120997023D01*
X129152619Y-120958928D01*
X129228809Y-120882738D01*
X129266904Y-120768452D01*
X129266904Y-120692261D01*
X129228809Y-120577976D01*
X129190714Y-120539880D01*
X128924047Y-120539880D01*
X128924047Y-120692261D01*
X129266904Y-120197023D02*
X128466904Y-120197023D01*
X129266904Y-119739880D01*
X128466904Y-119739880D01*
X129266904Y-119358928D02*
X128466904Y-119358928D01*
X128466904Y-119168452D01*
X128505000Y-119054166D01*
X128581190Y-118977976D01*
X128657380Y-118939880D01*
X128809761Y-118901785D01*
X128924047Y-118901785D01*
X129076428Y-118939880D01*
X129152619Y-118977976D01*
X129228809Y-119054166D01*
X129266904Y-119168452D01*
X129266904Y-119358928D01*
X144202142Y-120997023D02*
X144202142Y-120387500D01*
X144506904Y-120692261D02*
X143897380Y-120692261D01*
X143706904Y-120120833D02*
X144506904Y-119854166D01*
X143706904Y-119587500D01*
D11*
%TO.C,J9*%
X152055000Y-120905000D02*
X158055000Y-120905000D01*
X152055000Y-118905000D02*
X158055000Y-118905000D01*
X149395000Y-122555000D02*
X152055000Y-122555000D01*
X158055000Y-121665000D02*
X152055000Y-121665000D01*
X152055000Y-123445000D02*
X158055000Y-123445000D01*
X152055000Y-118425000D02*
X158055000Y-118425000D01*
X152055000Y-117415000D02*
X149395000Y-117415000D01*
X148997929Y-123445000D02*
X149395000Y-123445000D01*
X149065000Y-119125000D02*
X149395000Y-119125000D01*
X152055000Y-118545000D02*
X158055000Y-118545000D01*
X158055000Y-123445000D02*
X158055000Y-124205000D01*
X152055000Y-119025000D02*
X158055000Y-119025000D01*
X148997929Y-121665000D02*
X149395000Y-121665000D01*
X149395000Y-125155000D02*
X152055000Y-125155000D01*
X148997929Y-124205000D02*
X149395000Y-124205000D01*
X158055000Y-119125000D02*
X152055000Y-119125000D01*
X158055000Y-120905000D02*
X158055000Y-121665000D01*
X146685000Y-118745000D02*
X146685000Y-117475000D01*
X158055000Y-124205000D02*
X152055000Y-124205000D01*
X152055000Y-125155000D02*
X152055000Y-117415000D01*
X146685000Y-117475000D02*
X147955000Y-117475000D01*
X149395000Y-120015000D02*
X152055000Y-120015000D01*
X152055000Y-118365000D02*
X158055000Y-118365000D01*
X158055000Y-118365000D02*
X158055000Y-119125000D01*
X152055000Y-118785000D02*
X158055000Y-118785000D01*
X149065000Y-118365000D02*
X149395000Y-118365000D01*
X148997929Y-120905000D02*
X149395000Y-120905000D01*
X149395000Y-117415000D02*
X149395000Y-125155000D01*
X152055000Y-118665000D02*
X158055000Y-118665000D01*
%TO.C,J8*%
X144525000Y-126655000D02*
X144525000Y-132655000D01*
X131065000Y-132655000D02*
X131065000Y-126655000D01*
X136905000Y-123597929D02*
X136905000Y-123995000D01*
X137795000Y-123995000D02*
X137795000Y-126655000D01*
X134365000Y-126655000D02*
X134365000Y-132655000D01*
X139445000Y-126655000D02*
X139445000Y-132655000D01*
X129285000Y-123597929D02*
X129285000Y-123995000D01*
X129285000Y-126655000D02*
X129285000Y-132655000D01*
X141225000Y-132655000D02*
X141225000Y-126655000D01*
X141985000Y-126655000D02*
X141985000Y-132655000D01*
X144345000Y-126655000D02*
X144345000Y-132655000D01*
X144525000Y-123665000D02*
X144525000Y-123995000D01*
X130175000Y-123995000D02*
X130175000Y-126655000D01*
X135255000Y-123995000D02*
X135255000Y-126655000D01*
X136145000Y-132655000D02*
X136145000Y-126655000D01*
X127575000Y-123995000D02*
X127575000Y-126655000D01*
X129285000Y-132655000D02*
X128525000Y-132655000D01*
X131825000Y-132655000D02*
X131065000Y-132655000D01*
X131825000Y-126655000D02*
X131825000Y-132655000D01*
X144525000Y-132655000D02*
X143765000Y-132655000D01*
X141985000Y-123597929D02*
X141985000Y-123995000D01*
X143765000Y-123665000D02*
X143765000Y-123995000D01*
X134365000Y-123597929D02*
X134365000Y-123995000D01*
X143765000Y-132655000D02*
X143765000Y-126655000D01*
X131065000Y-123597929D02*
X131065000Y-123995000D01*
X145475000Y-123995000D02*
X127575000Y-123995000D01*
X145475000Y-126655000D02*
X145475000Y-123995000D01*
X145415000Y-121285000D02*
X145415000Y-122555000D01*
X138685000Y-123597929D02*
X138685000Y-123995000D01*
X133605000Y-123597929D02*
X133605000Y-123995000D01*
X143985000Y-126655000D02*
X143985000Y-132655000D01*
X128525000Y-123597929D02*
X128525000Y-123995000D01*
X141225000Y-123597929D02*
X141225000Y-123995000D01*
X144465000Y-126655000D02*
X144465000Y-132655000D01*
X140335000Y-123995000D02*
X140335000Y-126655000D01*
X128525000Y-132655000D02*
X128525000Y-126655000D01*
X139445000Y-132655000D02*
X138685000Y-132655000D01*
X139445000Y-123597929D02*
X139445000Y-123995000D01*
X138685000Y-132655000D02*
X138685000Y-126655000D01*
X134365000Y-132655000D02*
X133605000Y-132655000D01*
X127575000Y-126655000D02*
X145475000Y-126655000D01*
X136905000Y-126655000D02*
X136905000Y-132655000D01*
X141985000Y-132655000D02*
X141225000Y-132655000D01*
X144105000Y-126655000D02*
X144105000Y-132655000D01*
X143865000Y-126655000D02*
X143865000Y-132655000D01*
X136905000Y-132655000D02*
X136145000Y-132655000D01*
X142875000Y-123995000D02*
X142875000Y-126655000D01*
X144225000Y-126655000D02*
X144225000Y-132655000D01*
X132715000Y-123995000D02*
X132715000Y-126655000D01*
X144145000Y-121285000D02*
X145415000Y-121285000D01*
X136145000Y-123597929D02*
X136145000Y-123995000D01*
X131825000Y-123597929D02*
X131825000Y-123995000D01*
X133605000Y-132655000D02*
X133605000Y-126655000D01*
%TO.C,J10*%
X146625000Y-104775000D02*
X146625000Y-114995000D01*
X146625000Y-103505000D02*
X146625000Y-102175000D01*
X151825000Y-102175000D02*
X151825000Y-114995000D01*
X146625000Y-104775000D02*
X149225000Y-104775000D01*
X146625000Y-114995000D02*
X151825000Y-114995000D01*
X149225000Y-104775000D02*
X149225000Y-102175000D01*
X146625000Y-102175000D02*
X147955000Y-102175000D01*
X149225000Y-102175000D02*
X151825000Y-102175000D01*
%TD*%
M02*
