M48
; DRILL file {KiCad (6.0.1-0)} date Wednesday, May 18, 2022 at 05:32:06 PM
; FORMAT={-:-/ absolute / inch / decimal}
; #@! TF.CreationDate,2022-05-18T17:32:06-07:00
; #@! TF.GenerationSoftware,Kicad,Pcbnew,(6.0.1-0)
; #@! TF.FileFunction,MixedPlating,1,2
FMAT,2
INCH
; #@! TA.AperFunction,Plated,PTH,ViaDrill
T1C0.0118
; #@! TA.AperFunction,Plated,PTH,ComponentDrill
T2C0.0394
; #@! TA.AperFunction,Plated,PTH,ComponentDrill
T3C0.0472
%
G90
G05
T1
X5.4409Y-4.6457
X5.5118Y-4.6457
X5.725Y-4.4
T2
X5.075Y-4.825
X5.175Y-4.825
X5.275Y-4.825
X5.375Y-4.825
X5.475Y-4.825
X5.575Y-4.825
X5.675Y-4.825
X5.825Y-4.075
X5.825Y-4.175
X5.825Y-4.275
X5.825Y-4.375
X5.825Y-4.475
X5.825Y-4.675
X5.825Y-4.775
X5.825Y-4.875
X5.925Y-4.075
X5.925Y-4.175
X5.925Y-4.275
X5.925Y-4.375
X5.925Y-4.475
T3
X5.1181Y-4.1181
X5.2362Y-4.1181
X5.2362Y-4.2362
X5.3937Y-4.4331
X5.3937Y-4.5512
X5.5118Y-4.4331
X5.5118Y-4.5512
T0
M30
